<svg width="242" height="91" fill="none" xmlns="http://www.w3.org/2000/svg"><g clip-path="url(#clip0)"><path d="M241.877 5.548H1.592v78.727h240.285V5.548z" fill="#0072BB"/><path d="M18.629 61.07l10.76 11.712c.169.169.312.363.429.363h.039c.065 0 .104-.155.104-.31v-9.55c0-1.4.208-2.864 1.208-3.356.208-.104.351-.207.351-.272 0-.065-.104-.078-.208-.078H27.96c-.168 0-.26.026-.26.104 0 .065.04.116.156.168 1.39.596 1.599 2.216 1.599 4.095v4.871l-8.98-9.147h-3.392c-.22 0-.312.039-.312.103 0 .065.143.117.364.22.598.26.975.752.975 3.383v5.7c0 1.348-.26 2.851-1.612 3.5-.078 0-.142.038-.142.077 0 .026.064.039.181.039h3.431c.351 0 .455-.026.455-.078 0-.039-.117-.065-.247-.117-1.325-.609-1.546-2.021-1.546-3.42v-8.008zm31.657 5.104c0-4.198-3.717-6.92-7.72-6.92-4.002 0-7.719 2.735-7.719 6.92 0 4.198 3.717 6.92 7.72 6.92 4.002 0 7.719-2.722 7.719-6.92zm-2.742 0c0 3.032-1.26 6.414-4.978 6.414-3.716 0-4.977-3.382-4.977-6.414 0-3.032 1.26-6.414 4.977-6.414 3.717 0 4.978 3.382 4.978 6.414zm8.291-5.104l10.76 11.712c.169.169.312.363.429.363h.039c.065 0 .104-.155.104-.31v-9.55c0-1.4.208-2.864 1.208-3.356.208-.104.351-.207.351-.272 0-.065-.104-.078-.208-.078h-3.353c-.169 0-.26.026-.26.104 0 .065.04.116.156.168 1.391.596 1.599 2.216 1.599 4.095v4.871l-8.98-9.147h-3.392c-.22 0-.312.039-.312.103 0 .065.143.117.364.22.598.26.975.752.975 3.383v5.7c0 1.348-.26 2.851-1.611 3.5-.078 0-.144.038-.144.077 0 .026.066.039.182.039h3.431c.351 0 .455-.026.455-.078 0-.039-.117-.065-.247-.117-1.325-.609-1.546-2.021-1.546-3.42v-8.008zm15.477 7.139h4.834l.364-1.62h-4.82l-.377 1.62zm16.751-1.97h-4.327l2.144-4.237 2.183 4.237zm.273.505l1.17 2.397c.493.959.922 1.957.922 2.32 0 .505-.104.894-.571 1.062-.17.039-.273.078-.273.168 0 .04.104.065.208.065.117 0 .792-.065 2.469-.065 1.182 0 2.144.065 2.287.065.182 0 .286-.039.286-.103 0-.104-.247-.182-.468-.35-.61-.467-1.027-1.063-1.365-1.685l-6.003-11.195c-.04-.077-.104-.168-.17-.168h-.051c-.04 0-.078.065-.143.168l-5.004 9.692c-.454.881-1.546 2.566-2.365 3.214-.143.103-.39.181-.39.324 0 .064.066.103.273.103.247 0 .78-.065 1.599-.065 1.117 0 1.858.065 2.001.065.143 0 .247-.026.247-.103 0-.065-.065-.104-.22-.143-.547-.207-1.106-.428-1.106-1.296 0-.829.351-1.606.715-2.319l1.105-2.138h4.847v-.013zm13.086-5.299c0-.83.221-1.386.832-1.646.078-.038.182-.064.182-.116 0-.078-.065-.104-.247-.104-.325 0-1.312.078-1.962.078-.65 0-1.638-.078-1.962-.078-.182 0-.312.026-.312.078 0 .065.065.104.208.168.545.182.883.79.883 1.633v8.046c0 1.814-.208 2.566-1 2.916-.351.116-.494.142-.494.181 0 .065.104.104.455.104h12.007l.832-2.929c.026-.103.078-.207.078-.285 0-.103-.065-.142-.117-.142-.104 0-.208.22-.429.492-1.247 1.451-3.651 2.358-5.367 2.358h-1.078c-1.742 0-2.509-.168-2.509-2.202v-8.552zm26.251 7.943c-.078-.311-.104-.363-.182-.363-.104 0-.13.181-.221.427-.897 2.06-2.404 3.136-4.405 3.136-4.367 0-5.796-3.382-5.796-6.414 0-3.032 1.273-6.414 4.977-6.414 3.028.065 4.288 1.348 4.717 3.11.065.22.169.531.221.531.065 0 .208-.453.286-.7l.637-1.917c-1.677-1.062-3.977-1.542-5.861-1.542-4.003 0-7.719 2.734-7.719 6.92 0 4.69 3.716 6.918 7.719 6.918 2.183 0 4.457-.466 6.173-1.852l-.546-1.84zm19.844-3.214c0-4.198-3.717-6.92-7.719-6.92-4.003 0-7.719 2.735-7.719 6.92 0 4.198 3.716 6.92 7.719 6.92 4.002 0 7.719-2.722 7.719-6.92zm-2.729 0c0 3.032-1.26 6.414-4.977 6.414-3.717 0-4.977-3.382-4.977-6.414 0-3.032 1.26-6.414 4.977-6.414 3.704 0 4.977 3.382 4.977 6.414zm10.098-.609v-4.107c0-.83.221-1.503.883-1.672.104-.038.208-.103.208-.13 0-.064-.117-.077-.311-.077-.325 0-1.313.078-1.963.078-.65 0-1.637-.078-1.962-.078-.182 0-.299.026-.299.078 0 .026.104.078.208.13.65.155.884.829.884 1.67v9.045c0 .998-.182 1.58-1.105 2.034-.117.065-.182.104-.182.169 0 .064.117.064.325.064.741 0 .975-.064 2.144-.064 1.17 0 1.404.064 2.144.064.208 0 .325 0 .325-.064 0-.065-.065-.104-.182-.169-.922-.453-1.104-1.036-1.104-2.034v-4.418h7.784v4.418c0 .998-.182 1.58-1.105 2.034-.117.065-.182.104-.182.169 0 .064.117.064.325.064.728 0 .975-.064 2.145-.064 1.169 0 1.403.064 2.144.064.208 0 .325 0 .325-.064 0-.065-.065-.104-.182-.169-.923-.453-1.105-1.036-1.105-2.034v-9.044c0-.83.221-1.503.871-1.672.104-.038.208-.103.208-.13 0-.064-.117-.077-.312-.077-.325 0-1.313.078-1.962.078-.65 0-1.638-.078-1.963-.078-.182 0-.312.026-.312.078 0 .026.104.078.208.13.65.155.884.829.884 1.67v4.108h-7.784zm30.591.609c0-4.198-3.717-6.92-7.72-6.92-4.002 0-7.719 2.735-7.719 6.92 0 4.198 3.717 6.92 7.719 6.92 4.003 0 7.72-2.722 7.72-6.92zm-2.729 0c0 3.032-1.261 6.414-4.978 6.414-3.716 0-4.977-3.382-4.977-6.414 0-3.032 1.261-6.414 4.977-6.414 3.704 0 4.978 3.382 4.978 6.414zm10.162-4.729c0-.83.221-1.386.832-1.646.078-.038.182-.064.182-.116 0-.078-.065-.104-.247-.104-.325 0-1.313.078-1.962.078-.65 0-1.638-.078-1.963-.078-.182 0-.312.026-.312.078 0 .065.065.104.208.168.559.182.884.79.884 1.633v8.046c0 1.814-.208 2.566-1.001 2.916-.35.116-.493.142-.493.181 0 .065.104.104.454.104H201.5l.832-2.929c.026-.103.078-.207.078-.285 0-.103-.065-.142-.117-.142-.104 0-.208.22-.429.492-1.247 1.451-3.652 2.358-5.367 2.358h-1.079c-1.728 0-2.508-.168-2.508-2.202v-8.552zm13.879 9.044c0 .998-.181 1.58-.961 1.995-.182.078-.325.117-.325.156 0 .039.065.039.169.039h4.548c.182 0 .221-.026.221-.04 0-.038-.078-.064-.286-.155-.74-.324-1-.997-1-1.995v-9.407c0-.674.286-.959.532-1.114.117-.078.325-.143.325-.22 0-.143-.182-.169-.286-.169-.117 0-1.104.078-1.754.078-.65 0-1.832-.078-1.962-.078-.182 0-.247.104-.247.169 0 .064.143.103.221.116.507.117.779.61.792 1.594v9.031m20.78-1.101c-.078-.311-.104-.363-.182-.363-.104 0-.13.181-.221.427-.896 2.06-2.404 3.136-4.405 3.136-4.367 0-5.796-3.382-5.796-6.414 0-3.032 1.261-6.414 4.977-6.414 3.028.065 4.289 1.348 4.718 3.11.065.22.169.531.22.531.065 0 .208-.453.286-.7l.637-1.917c-1.676-1.062-3.976-1.542-5.861-1.542-4.002 0-7.719 2.734-7.719 6.92 0 4.69 3.717 6.918 7.719 6.918 2.183 0 4.458-.466 6.173-1.852l-.546-1.84zM51.767 51.844H17.654v.997h35.049l-.936-.997zm15.867 0l-.831.997H174.86v-.997H67.634zM25.867 33.108v7.968c0 .817.026 1.516.364 1.866.169.182.442.26.819.26h3.495c5.056 0 6.615-2.307 6.615-2.307l-1.637 6.647h-.156l-19.285-.013s2.105-1.024 2.105-3.99V20.746c0-2.968-2.093-3.991-2.093-3.991h18.87v6.284s-.988-1.97-3.262-1.97h-5.809v7.632h6.953v6.116l-.377-.635c0-.013-.715-1.088-3.353-1.088h-3.249m24.925 14.008c1.754 2.837 3.665 4.742 7.251 4.742 3.64 0 4.094-1.063 4.133-1.18l.065-.194-.195-.064c-.013 0-1.82-.584-3.99-3.965-2.027-3.149-5.705-10.288-6.38-11.597 1.026-.35 5.016-2.034 5.016-7.036 0-2.086-.637-3.77-1.871-5.001-2.106-2.086-5.602-2.527-8.162-2.527h-9.356s1.65.778 1.65 3.55v20.162c0 2.786-1.65 3.563-1.65 3.563h9.928s-1.65-.777-1.65-3.563l.013-7.347c1 2.216 3.846 8.28 5.198 10.456zM45.568 24.18h.728c1.3-.026 2.235.273 2.898.907.701.687 1.065 1.788 1.065 3.265 0 1.71-.403 2.968-1.208 3.758-.832.816-1.963.972-2.755.959h-.728V24.18zm129.24 22.922c1.754 2.837 3.664 4.742 7.251 4.742 3.639 0 4.094-1.063 4.133-1.18l.065-.194-.195-.064c-.013 0-1.82-.584-3.99-3.965-2.027-3.149-5.705-10.288-6.381-11.597 1.027-.35 5.017-2.034 5.017-7.036 0-2.086-.637-3.77-1.872-5.001-2.105-2.086-5.588-2.527-8.161-2.527h-9.357s1.651.778 1.651 3.55v20.162c0 2.786-1.651 3.563-1.651 3.563h9.929s-1.664-.777-1.664-3.563l.013-7.347c1.027 2.216 3.873 8.28 5.212 10.456zm-5.212-22.922h.728c1.287-.026 2.235.273 2.898.907.702.687 1.066 1.788 1.066 3.265 0 1.71-.403 2.968-1.209 3.758-.831.816-1.962.972-2.755.959h-.728V24.18z" fill="#fff"/><path fill-rule="evenodd" clip-rule="evenodd" d="M59.148 47.529s1.65-.778 1.65-3.564v-20.16c0-2.787-1.65-3.551-1.65-3.551h10.63c2.158 0 6.212.44 9.214 3.433 2.314 2.307 3.483 5.637 3.483 9.9 0 12.128-8.798 13.942-14.048 13.942h-9.279zm8.279-4.017c.142 0 1.351-.026 1.845-.026 1.078 0 2.664-.142 3.938-1.412 1.533-1.53 2.313-4.38 2.313-8.487 0-8.41-3.64-9.394-6.368-9.407h-1.728v19.332z" fill="#fff"/><path d="M93.34 20.268s-1.651.777-1.651 3.55v20.161c0 2.786 1.65 3.563 1.65 3.563h-9.941s1.65-.777 1.65-3.563V23.818c0-2.786-1.65-3.55-1.65-3.55h9.942zm19.557 14.718V23.817c0-2.785-1.663-3.55-1.663-3.55h7.459s-1.65.777-1.65 3.55l-.013 24.23h-1.482c-1.403 0-3.599-1.023-5.588-3.913-1.208-1.75-7.29-10.949-8.863-13.333v13.165c0 2.785 1.651 3.563 1.651 3.563h-7.46s1.65-.778 1.65-3.563V25.19c0-2.734-2.143-4.561-2.17-4.587l-.428-.363h8.681l9.876 14.745zm28.486-1.749v12.49l-.013.04c-.039.09-.896 2.254-7.823 2.254-1.312 0-5.874-.285-9.473-3.887-2.6-2.592-3.925-6.168-3.925-10.625 0-4.289 1.221-7.684 3.652-10.107 3.287-3.278 7.602-3.628 9.304-3.628 4.471 0 7.148 1.413 7.148 1.413v6.647s-1.833-3.991-6.706-3.991c-2.495 0-6.679 1.283-6.679 9.847 0 4.263 1.026 7.217 3.066 8.772 2.366 1.814 5.303 1.063 5.329 1.05l-.143.194V36.58c0-2.605-1.469-3.563-1.469-3.563h7.732v.22zm10.488 1.478h2.157c2.079 0 3.145 1.243 3.145 1.256l.351.44.026-5.843h-5.692v-6.452h3.015c2.508.012 3.508 1.321 3.521 1.334l.364.506V20.28h-15.581s1.65.778 1.65 3.55v20.162c0 2.786-1.65 3.563-1.65 3.563h16.192l1.339-6.051s-1.079 2.086-5.368 2.086c-.415 0-.883 0-1.221.013-1.118.026-1.858.039-2.131-.233-.065-.065-.156-.182-.156-.492v-8.163" fill="#fff"/><path d="M188.453 34.767c0 8.538 6.289 18.256 19.727 18.062 13.424.194 19.727-9.537 19.727-18.063v-.012c0-8.54-6.29-18.257-19.727-18.063-13.438-.181-19.727 9.55-19.727 18.076z" fill="#C39109"/><path d="M188.453 34.767c0 8.538 6.289 18.256 19.727 18.062 13.424.194 19.727-9.537 19.727-18.063v-.012c0-8.54-6.29-18.257-19.727-18.063-13.438-.181-19.727 9.55-19.727 18.076z" stroke="#002850" stroke-width=".176"/><path d="M197.965 34.766c0 4.392 3.301 8.759 10.215 8.655 6.913.104 10.214-4.263 10.214-8.655v-.013c0-4.393-3.301-8.798-10.214-8.695-6.914-.09-10.215 4.315-10.215 8.708z" fill="#fff"/><path d="M197.965 34.766c0 4.392 3.301 8.759 10.215 8.655 6.913.104 10.214-4.263 10.214-8.655v-.013c0-4.393-3.301-8.798-10.214-8.695-6.914-.09-10.215 4.315-10.215 8.708z" stroke="#002850" stroke-width=".176"/><path d="M203.905 27.25l1.299-.362v3.032s-.156 0-.728-.493c-.26-.22-.532-.609-.558-1.01-.026-.298-.013-1.167-.013-1.167z" fill="#002850"/><path d="M204.424 27.354l.507-.142v1.97s-.143-.04-.39-.312c-.117-.13-.117-.427-.117-.609v-.907z" fill="#C39109"/><path d="M204.424 27.354l.507-.142v1.97s-.143-.04-.39-.312c-.117-.13-.117-.427-.117-.609v-.907z" stroke="#002850" stroke-width=".039" stroke-miterlimit="3.864"/><path d="M205.802 26.746l1.195-.207v4.639s-1.091-.648-1.156-1.05c-.039-.272-.039-3.382-.039-3.382z" fill="#002850"/><path d="M206.088 26.927l.662-.104v3.59s-.623-.299-.649-.57c-.026-.35-.013-2.916-.013-2.916z" fill="#C39109"/><path d="M206.088 26.927l.662-.104v3.59s-.623-.299-.649-.57c-.026-.35-.013-2.916-.013-2.916z" stroke="#002850" stroke-width=".039" stroke-miterlimit="3.864"/><path d="M212.481 27.25l-1.299-.362v3.032s.156 0 .727-.493c.26-.22.533-.609.559-1.01.026-.298.013-1.167.013-1.167z" fill="#002850"/><path d="M211.961 27.354l-.506-.142v1.97s.143-.04.389-.312c.117-.13.117-.427.117-.609v-.907z" fill="#C39109"/><path d="M211.961 27.354l-.506-.142v1.97s.143-.04.389-.312c.117-.13.117-.427.117-.609v-.907z" stroke="#002850" stroke-width=".039" stroke-miterlimit="3.864"/><path d="M210.584 26.746l-1.195-.207v4.639s1.091-.648 1.156-1.05c.039-.272.039-3.382.039-3.382z" fill="#002850"/><path d="M210.298 26.927l-.663-.104v3.59s.637-.299.65-.57c.026-.35.013-2.916.013-2.916z" fill="#C39109"/><path d="M210.298 26.927l-.663-.104v3.59s.637-.299.65-.57c.026-.35.013-2.916.013-2.916z" stroke="#002850" stroke-width=".039" stroke-miterlimit="3.864"/><path d="M208.843 31.501c.026-.207.013-5.027.013-5.027h-1.248s-.026 4.82 0 5.027c.052.389.611.894.611.894s.585-.505.624-.894z" fill="#002850"/><path d="M208.583 31.19c.013-.117 0-4.406 0-4.406h-.728s-.013 4.289 0 4.406c.026.22.351.518.351.518s.351-.285.377-.518z" fill="#C39109"/><path d="M208.583 31.19c.013-.117 0-4.406 0-4.406h-.728s-.013 4.289 0 4.406c.026.22.351.518.351.518s.351-.285.377-.518z" stroke="#002850" stroke-width=".039" stroke-miterlimit="3.864"/><path d="M208.232 36.399s.247-.48.663-.79c.442-.338 1.091-.908 2.521-1.88.754-.505 1-1.127 1.052-1.334.13-.415.078-2.967.078-2.967s-.597.738-2.196 1.917c-.468.337-.819.57-1.312 1.102-.624.686-.39 1.866-.442 2.19-.052.323.039.816-.377.764h-.013c-.416.052-.338-.454-.377-.765-.052-.323.182-1.49-.442-2.176-.481-.544-.845-.765-1.312-1.102-1.599-1.179-2.197-1.917-2.197-1.917s-.052 2.552.078 2.967c.065.194.312.816 1.066 1.334 1.43.972 2.066 1.555 2.521 1.892.429.285.689.778.689.765z" fill="#002850"/><path d="M208.959 34.883c.325-.195 1.248-.92 2.249-1.607.52-.35.662-.803.74-.933.169-.298.065-1.801.065-1.801l-1.676 1.244c-.325.246-.858.57-1.131 1.023-.312.506-.208 1.84-.247 2.074z" fill="#C39109"/><path d="M208.959 34.883c.325-.195 1.248-.92 2.249-1.607.52-.35.662-.803.74-.933.169-.298.065-1.801.065-1.801l-1.676 1.244c-.325.246-.858.57-1.131 1.023-.312.506-.208 1.84-.247 2.074z" stroke="#002850" stroke-width=".039" stroke-miterlimit="3.864"/><path d="M207.517 34.883c-.338-.195-1.247-.92-2.248-1.607-.52-.35-.663-.803-.741-.933-.169-.298-.065-1.801-.065-1.801l1.677 1.244c.325.246.857.57 1.13 1.023.299.506.208 1.84.247 2.074z" fill="#C39109"/><path d="M207.517 34.883c-.338-.195-1.247-.92-2.248-1.607-.52-.35-.663-.803-.741-.933-.169-.298-.065-1.801-.065-1.801l1.677 1.244c.325.246.857.57 1.13 1.023.299.506.208 1.84.247 2.074z" stroke="#002850" stroke-width=".039" stroke-miterlimit="3.864"/><path d="M208.232 40.221s.247-.48.663-.79c.442-.337 1.091-.907 2.521-1.892.754-.505 1-1.127 1.052-1.334.13-.415.078-2.968.078-2.968s-.597.739-2.196 1.918c-.468.337-.819.57-1.312 1.101-.624.687-.39 1.866-.442 2.177-.052.324.039.816-.377.765h-.013c-.416.051-.338-.454-.377-.765-.052-.324.182-1.49-.442-2.177-.481-.53-.845-.764-1.312-1.101-1.599-1.18-2.197-1.918-2.197-1.918s-.052 2.553.078 2.968c.065.194.312.816 1.066 1.334 1.43.972 2.066 1.555 2.521 1.892.429.31.689.803.689.79z" fill="#002850"/><path d="M208.959 38.705c.325-.194 1.248-.92 2.249-1.607.52-.35.662-.803.74-.933.169-.298.065-1.8.065-1.8l-1.676 1.243c-.325.246-.858.57-1.131 1.024-.312.505-.208 1.853-.247 2.073z" fill="#C39109"/><path d="M208.959 38.705c.325-.194 1.248-.92 2.249-1.607.52-.35.662-.803.74-.933.169-.298.065-1.8.065-1.8l-1.676 1.243c-.325.246-.858.57-1.131 1.024-.312.505-.208 1.853-.247 2.073z" stroke="#002850" stroke-width=".039" stroke-miterlimit="3.864"/><path d="M207.517 38.705c-.338-.207-1.247-.92-2.248-1.607-.52-.35-.663-.803-.741-.933-.169-.298-.065-1.8-.065-1.8l1.677 1.243c.325.246.857.57 1.13 1.024.299.505.208 1.853.247 2.073z" fill="#C39109"/><path d="M207.517 38.705c-.338-.207-1.247-.92-2.248-1.607-.52-.35-.663-.803-.741-.933-.169-.298-.065-1.8-.065-1.8l1.677 1.243c.325.246.857.57 1.13 1.024.299.505.208 1.853.247 2.073z" stroke="#002850" stroke-width=".039" stroke-miterlimit="3.864"/><path d="M208.245 43.059c4.093-.22 4.249-3.59 4.314-3.835.104-.415.039-2.022.039-2.022s-.689.713-1.598 1.451c-.416.337-1.703 1.335-1.95 1.672-.454.622-.117 2.306-.805 2.177-.689.13-.351-1.542-.806-2.177-.247-.35-1.534-1.36-1.949-1.672a11.789 11.789 0 01-1.599-1.45s-.078 1.593.039 2.02c.065.247.221 3.616 4.315 3.836z" fill="#002850"/><path d="M208.946 42.424c3.665-.79 3.145-4.147 3.145-4.147s-.832.622-1.832 1.36c-.325.247-.767.545-1.014 1.011-.26.454-.208 1.568-.299 1.776z" fill="#C39109"/><path d="M208.946 42.424c3.665-.79 3.145-4.147 3.145-4.147s-.832.622-1.832 1.36c-.325.247-.767.545-1.014 1.011-.26.454-.208 1.568-.299 1.776z" stroke="#002850" stroke-width=".039" stroke-miterlimit="3.864"/><path d="M207.556 42.424c-3.665-.79-3.145-4.147-3.145-4.147s.806.635 1.832 1.36c.325.234.767.545 1.014 1.011.26.454.195 1.568.299 1.776z" fill="#C39109"/><path d="M207.556 42.424c-3.665-.79-3.145-4.147-3.145-4.147s.806.635 1.832 1.36c.325.234.767.545 1.014 1.011.26.454.195 1.568.299 1.776z" stroke="#002850" stroke-width=".039" stroke-miterlimit="3.864"/><path d="M208.18 24.906c-7.745-.117-11.41 4.755-11.501 9.666h-6.654c.091-7.814 5.887-16.443 18.155-16.262 12.268-.181 18.064 8.449 18.155 16.262h-6.654c-.091-4.911-3.769-9.783-11.501-9.666z" fill="#002850"/><path d="M208.18 24.906c-7.745-.117-11.41 4.755-11.501 9.666h-6.654c.091-7.814 5.887-16.443 18.155-16.262 12.268-.181 18.064 8.449 18.155 16.262h-6.654c-.091-4.911-3.769-9.783-11.501-9.666z" stroke="#002850" stroke-width=".176"/><path d="M208.18 44.588c-7.46.104-11.15-4.367-11.488-9.096h-6.654c.338 7.658 6.147 15.899 18.142 15.73 11.994.169 17.803-8.072 18.141-15.73h-6.653c-.351 4.73-4.029 9.2-11.488 9.096z" fill="#D2072A"/><path d="M208.18 44.588c-7.46.104-11.15-4.367-11.488-9.096h-6.654c.338 7.658 6.147 15.899 18.142 15.73 11.994.169 17.803-8.072 18.141-15.73h-6.653c-.351 4.73-4.029 9.2-11.488 9.096z" stroke="#002850" stroke-width=".177"/><path d="M195.938 32.46c-.052.026-.091-.233-.338-.376-.26-.155-3.456-1.49-3.768-1.503-.234-.013-.507.078-.494.026.091-.246.936-2.371 1.104-2.734 0 0 .949.363.871.389-.416.116-.676 1.088-.676 1.088l1.092.44s.377-.932.429-.932c.052-.013.897.35.871.363-.416.13-.559.868-.559.868l1.273.518s.741-1.024.494-1.71c-.039-.091.975.48.975.48-.065.103-1.183 3.018-1.274 3.083zm2.95-5.429c-.844 0-2.079-.31-2.079-.31s.728.647 1.131.945c.273.194.559.142.559.168 0 .052-1.287 1.477-1.3 1.516 0 0-.065-.466-.299-.673-.702-.61-1.988-1.724-2.729-2.372-.26-.233-.728-.233-.715-.246.169-.168 1.534-1.93 2.275-2.306a1.293 1.293 0 011.325.13c.832.583.377 1.58.377 1.58.065.078 1.741.868 2.807.674 0-.013-.806.894-1.352.894z" fill="#fff"/><path d="M195.223 25.269s.507-.635 1.157-.104c.351.285.312.726.221.998-.065.168-.156.246-.156.246l-1.222-1.14z" fill="#002850"/><path d="M219.979 30.93c.325-.777 1.105-1.774 1.105-1.774s-.897.401-1.312.66c-.286.169-.351.467-.377.44-.039-.025-.845-1.761-.871-1.787 0 0 .455.13.741 0 .844-.389 2.378-1.128 3.275-1.555.311-.156.493-.57.506-.557.091.233 1.17 2.164 1.222 2.993.013.22-.065.816-.65 1.166-.871.518-1.598-.285-1.598-.285-.091.026-1.352 1.451-1.495 2.358-.013 0-.857-.907-.546-1.658z" fill="#fff"/><path d="M223.06 28.274s.376.713-.364 1.102c-.403.207-.793 0-1.001-.195a.563.563 0 01-.156-.246l1.521-.66z" fill="#002850"/><path d="M216.25 26.045c-.013-.051.247 0 .481-.155.247-.181 2.742-2.579 2.872-2.864.104-.207.13-.492.156-.453a79.339 79.339 0 012.092 2.086s-.715.726-.702.648c.052-.428-.727-1.05-.727-1.05l-.845.83s.715.7.689.764c-.013.052-.676.687-.676.648.052-.428-.585-.855-.585-.855l-.975.972s.65 1.088 1.391 1.127c.091 0-.923.738-.923.738-.078-.116-2.222-2.332-2.248-2.436zm-16.193.182s.104-.298-.065-.648c-.155-.337-1.208-2.345-1.728-3.29-.156-.299-.611-.441-.585-.441.078-.013 2.041-1.205 3.054-1.374 1.326-.22 2.183.881 2.313 1.115.923 1.71.117 2.591 0 2.772-.519.778-2.144 1.36-2.989 1.866z" fill="#fff"/><path d="M199.642 21.758s1.157-1.128 2.105.57c1.04 1.852-.597 2.397-.597 2.397l-1.508-2.968z" fill="#002850"/><path d="M203.67 19.528l2.002-.246c-.078.233-.195.557-.156.83.156 1.192.442 3.446.468 3.589.039.22.312.492.312.492-.208.026-1.742.194-1.937.22 0 0 .182-.337.169-.557-.026-.739-.351-2.902-.455-3.576-.078-.376-.247-.557-.403-.752zm3.392-.336c-.013-.013 1.3 0 1.508-.013.104-.013 2.3 3.006 2.3 3.006s.052-2.073.039-2.358c-.026-.428-.338-.596-.312-.596.143-.013 1.182.038 1.442.051.052 0-.221.195-.26.622-.039.337-.104 4.198-.117 4.406-.013.168-1.013-.117-1.689-.894-.338-.389-1.728-2.216-1.728-2.216s-.039 1.684-.026 2.32c0 .336.208.544.286.634.013.026-1.339-.013-1.443-.013 0 0 .286-.272.312-.686.013-.428.078-2.968.052-3.395 0-.337-.221-.674-.364-.868zm10.955 2.358c-.091-.116-.48-.544-1.338-.958-.923-.44-2.417-.506-3.327.686-.975 1.283-.611 2.63.312 3.486.949.881 2.183 1.062 2.391 1.075.052 0 1.196-2.06 1.196-2.06-.507-.272-1.053-.609-1.365-.751-.065-.026.013.31-.078.492-.065.117-.585 1.075-.689 1.18-.052.05-.714-.299-.896-.804-.13-.363-.117-.804.143-1.348.364-.764 1-1.282 1.429-1.27 1.313.026 1.651 1.27 1.729 1.128.207-.363.506-.842.493-.855zm-18.609 21.962c.559.402 1.624.998 1.663.998.039.013-.299.518-.312.492-.026-.052-.13-.246-.247-.337-.208-.168-.662-.389-.792-.466-.013-.013-.468.79-.559.933-.039.052.767.466.819.518.013.013-.26.453-.273.44-.052-.077-.104-.155-.273-.285-.065-.038-.455-.285-.494-.272-.078.04-.585.998-.689 1.154-.052.077.689.57 1.118.66.208.052.442.065.546.078 0 0-.416.376-.546.454 0 0-2.119-1.128-2.093-1.154.052-.09.273-.142.377-.31.819-1.348 1.573-2.566 1.495-2.644-.052-.052-3.353 1.451-3.652 1.503-.078.013-.156-.376-.065-.7.078-.272 1.313-2.137 1.248-2.202-.091-.078-2.521.894-2.846.907-.078 0-.078-.389-.039-.596.052-.311 1.819-2.605 1.962-2.85.169-.286.117-.48.143-.558.026-.052.442.687.481.752.026.038-.104.116-.182.259-.143.259-1.69 2.215-1.638 2.241.104.065 1.729-.57 2.418-.816.376-.142.324-.518.363-.48.104.117.377.441.481.57.039.04-.143.117-.195.247-.156.337-1.598 2.462-1.494 2.5.091.026 2.027-.945 2.274-1.088.143-.078.403-.285.429-.466.013-.013.013.116.572.518zm1.092 4.898c-.039-.013.247-.155.325-.388.312-.933 1.039-2.605 1.052-2.825 0-.143-.039-.285-.026-.298 0-.026.897.31.884.337 0 .013-.13.09-.221.194-.143.169-.715 1.905-1.092 2.812-.104.233.026.518-.013.505a57.41 57.41 0 01-.909-.337zm5.094-2.475c-.247-.142-.936-.324-1.365-.298-.532.04-.974.376-1.052.752-.13.622.351 1.023.52 1.127 1.104.687 1.13.881 1.078 1.14-.039.246-.403.402-.624.389-.87-.039-1.312-.596-1.403-.583-.026 0 0 .648.013.66.299.156.871.402 1.26.39.299 0 1.079 0 1.404-.817.091-.22.091-.635-.364-1.036-.52-.454-1.351-.752-1.156-1.244.142-.376.597-.363.935-.272.338.077.611.44.637.388 0-.064.156-.57.117-.596zm3.041.298c-.26-.103-.988-.181-1.404-.09-.52.116-.91.518-.922.894-.039.635.493.958.675 1.036 1.196.519 1.248.7 1.235.972-.013.246-.351.453-.559.48-.871.09-1.39-.39-1.468-.363-.013 0 .091.647.117.647.311.104.909.26 1.299.208.286-.052 1.079-.169 1.261-1.01.052-.234 0-.649-.507-.973-.585-.362-1.456-.544-1.326-1.062.091-.389.546-.44.884-.415.351.04.676.35.676.298 0-.077.091-.596.039-.622zm2.001 1.257s1.117.103.974-.752c-.116-.712-1.117-.376-1.117-.376l.143 1.128zm.234 1.878s1.546.014 1.364-1.01c-.156-.881-1.559-.48-1.559-.48s.182 1.361.195 1.49zm-1.248-3.278c.039-.013.39-.039.819-.103.65-.091 1.806-.26 1.923.622.065.518-.455.79-.429.803.182.065.871.078.988.842.039.22.052.855-.676 1.205-.624.311-2.027.35-2.144.389-.078.026.117-.065.117-.44 0-.363-.325-2.89-.377-2.994-.143-.233-.247-.31-.221-.324zm8.694-3.848c.013-.052.52-.842.546-.829.026 0 .182.298.442.48.519.362 1.377.997 1.858 1.191.442.195.923-.298.975-.362.337-.428.428-.907.091-1.205-.494-.428-1.781-1.244-2.041-1.36-.182-.079-.429-.079-.403-.104.065-.078.416-.648.494-.726.026-.039.312.363.494.44.104.04 2.131 1.4 2.248 1.477.221.13.351.065.507.117l-.442.635s-.273-.156-.273-.104c0 .143.026.752-.403 1.296-.493.635-.857.622-1.13.648-.533.026-2.001-1.27-2.521-1.451a5.024 5.024 0 00-.442-.143zm-2.274 2.32c.169-.013.299-.143.286-.311a.287.287 0 00-.312-.285.286.286 0 00-.286.31.312.312 0 00.312.286zm1.663-1.412a.286.286 0 00.286-.311.287.287 0 00-.312-.285.286.286 0 00-.286.31c0 .169.143.299.312.286z" fill="#fff"/><path d="M217.563 45.391c.013.026.675-.518.883-.687.013-.013-1.221-.712-1.26-.673-.039.026.338 1.257.377 1.36zm-4.653.272c.351-.155 1.482-.842 1.988-.816.728.039.871.596.871.764.039.596-.546.972-.52.998.468.376 2.171.933 2.236.83.065-.104-.728-2.838-.806-3.305-.013-.09-.13-.22-.26-.337-.026-.025.65-.557.663-.557.104 0 3.028 1.672 3.275 1.762.194.078.506.091.506.091 0 .052-.857.7-.883.7-.026.013.013-.169-.065-.26-.078-.077-1.04-.647-1.092-.621-.091.065-1.169.907-1.156.933.012.064.285.997.35 1.101.078.155.247.194.234.22-.078.104-1.26.726-1.273.726-.702.078-2.508-.972-2.508-.972.065-.117 1.026-.622.571-1.322-.389-.609-1.286-.026-1.286-.026.156.324 1.052 2.32 1.169 2.501.13.246.247.376.442.48.065.039-.857.414-.935.427-.039.013.091-.155-.039-.505-.091-.233-1.066-2.54-1.209-2.734-.052-.078-.273-.078-.273-.078z" fill="#fff"/></g><defs><clipPath id="clip0"><path fill="#fff" transform="translate(.877 .857)" d="M0 0h241v90H0z"/></clipPath></defs></svg>