<svg width="245" height="50" fill="none" xmlns="http://www.w3.org/2000/svg"><g clip-path="url(#clip0)"><path d="M242.789 47.303c.032.055.048.087.048.11 0 .071-.04.095-.167.095h-.127c-.127 0-.127 0-.183-.11l-.691-1.194h-.174l-.143 1.146c-.016.15-.024.15-.175.15h-.135c-.127 0-.159-.023-.159-.103 0-.015 0-.055.008-.079l.35-2.837c.015-.142.023-.15.174-.15h.469c.373 0 .572.055.738.19.191.158.302.419.302.71a.932.932 0 01-.278.68c-.127.127-.262.182-.516.246l.659 1.146zm-1.247-1.502h.215c.286 0 .429-.04.54-.158a.626.626 0 00.151-.395c0-.19-.096-.348-.247-.411a.946.946 0 00-.341-.048h-.199l-.119 1.012zm.358-2.505a2.638 2.638 0 00-2.645 2.631 2.638 2.638 0 002.645 2.632 2.637 2.637 0 002.644-2.632 2.642 2.642 0 00-2.644-2.631zm0 4.923a2.285 2.285 0 01-2.295-2.284 2.285 2.285 0 012.295-2.284c1.27 0 2.295 1.02 2.295 2.284a2.301 2.301 0 01-2.295 2.284zm-21.774-25.717l.032-.592 2.429-19.64c.135-1.059.199-1.122 1.295-1.122h10.402c.929 0 1.199.166 1.199.727l-.031.593-.302 2.418c-.135 1.059-.199 1.122-1.294 1.122h-5.901l-.468 3.81h5.717c.961 0 1.231.166 1.231.727 0 .134 0 .134-.063.592l-.302 2.419c-.135 1.059-.199 1.122-1.294 1.122h-5.885l-.468 3.675h5.733c.961 0 1.231.166 1.231.727 0 .135 0 .198-.063.593l-.302 2.418c-.135 1.06-.199 1.123-1.295 1.123h-10.402c-.929.023-1.199-.143-1.199-.712zm-24.077.735h3.55c1.095 0 1.167-.063 1.294-1.122 0 0 1.127-10.108 1.421-12.93l7.83 13.254c.5.798.5.798 1.398.798h4.462c1.096 0 1.168-.063 1.295-1.122l2.43-19.64c.031-.268.031-.466.031-.592 0-.561-.27-.727-1.23-.727h-3.526c-1.096 0-1.167.063-1.294 1.122 0 0-.882 7.437-1.557 12.598-2.057-3.47-7.687-12.93-7.687-12.93-.46-.798-.46-.798-1.397-.798h-4.463c-1.096 0-1.167.063-1.294 1.122l-2.43 19.64-.032.592c0 .57.262.735 1.199.735zm-14.27.245c-7.226 0-11.856-4.536-11.467-11.199.405-6.923 5.885-11.8 13.238-11.8 6.956 0 11.363 4.41 10.982 10.97-.151 2.648-1.223 5.501-2.835 7.556-2.303 2.916-5.725 4.473-9.918 4.473zm.199-5.635c3.589 0 6.217-2.41 6.424-5.92.206-3.477-1.993-5.8-5.424-5.8-3.589 0-6.352 2.505-6.551 5.95-.199 3.455 2.025 5.77 5.551 5.77zm55.507 17.308h-5.718l.469-3.809h5.9c1.096 0 1.167-.063 1.294-1.122l.302-2.419.032-.592c0-.562-.262-.728-1.2-.728h-10.402c-1.096 0-1.167.064-1.294 1.123l-2.43 19.64-.032.592c0 .561.262.727 1.199.727h10.403c1.095 0 1.167-.063 1.294-1.122l.302-2.419c.063-.395.063-.466.063-.592 0-.561-.27-.727-1.231-.727h-5.733l.469-3.675h5.884c1.096 0 1.167-.064 1.294-1.123l.302-2.418c.063-.466.063-.466.063-.593 0-.577-.27-.743-1.23-.743zm-14.683-8.677h-3.526c-1.096 0-1.167.063-1.294 1.122 0 0-.882 7.437-1.557 12.598-2.056-3.47-7.687-12.93-7.687-12.93-.468-.798-.468-.798-1.397-.798h-4.463c-1.096 0-1.167.063-1.294 1.122l-2.43 19.64-.032.592c0 .561.262.727 1.199.727h3.55c1.096 0 1.167-.063 1.294-1.122 0 0 1.128-10.108 1.422-12.93.984 1.668 7.829 13.254 7.829 13.254.501.798.501.798 1.398.798h4.463c1.095 0 1.167-.063 1.294-1.122l2.43-19.64c.032-.268.032-.466.032-.592 0-.553-.27-.72-1.231-.72zM198.804 36.79c-.15 2.648-1.222 5.5-2.834 7.556-2.303 2.916-5.726 4.473-9.919 4.473-7.226 0-11.855-4.536-11.466-11.199.405-6.923 5.884-11.8 13.237-11.8 6.956 0 11.364 4.41 10.982 10.97zm-11.554-5.326c-3.589 0-6.352 2.505-6.551 5.95-.198 3.447 2.025 5.77 5.551 5.77 3.589 0 6.218-2.41 6.424-5.92.199-3.485-1.993-5.8-5.424-5.8zm-82.696-10.148c-.143.102-2.136 1.375-3.367 1.841-1.239.474-2.986.862-4.105 1.06-.604.102-3.113.442-3.137.45-.643.102-1.366.213-2.263.34a279.83 279.83 0 00-4.296.64l-.556.095c-3.82.64-4.622.782-7.64 1.904a24.626 24.626 0 00-2.882 1.249l-.143.071c-.206.119-.532.3-.953.545-.77.45-2.049 1.178-3.152 1.723-.477.237-.755.309-1.406.182-.643-.15-.873-.324-1.207-.735-.786-.948-1.651-2.126-2.176-2.853-.285-.395-.508-.695-.643-.885l-.103-.127c-.405-.49-.993-1.209-2.128-2.307-2.295-2.245-2.97-2.703-6.202-4.837l-.469-.316a241.472 241.472 0 00-3.66-2.324c-.77-.482-1.382-.87-1.93-1.225-.024-.016-2.176-1.343-2.676-1.683-.945-.632-2.382-1.691-3.32-2.632-.936-.925-2.23-2.9-2.326-3.05-.095-.159.08-.396.238-.506.087-.064.278-.143.429-.111a.26.26 0 01.135.079c.04.047.143.166.278.34.453.545 1.39 1.683 2.057 2.363 1.334 1.36 3.335 2.569 4.09 3.019.126.079.222.134.27.166.317.205 1.492.846 1.984 1.099a45.32 45.32 0 004.074 1.81c1.453.56 2.827 1.082 3.9 1.627l.174.087c1.524.727 4.002 2.514 4.574 2.98.953.766 3.74 2.316 4.582 2.758.238.142.754.387 1.477.553.73.142 1.294.127 1.572.087.953-.063 4.13-.355 5.312-.664.715-.19 3.7-.822 5.4-.869l.199-.008c1.199-.063 2.668.016 4.224.087a46.67 46.67 0 004.463-.008c.556-.032 1.89-.142 2.263-.205.056-.008.167-.024.318-.04.881-.103 3.2-.395 4.971-1.098.889-.348 2.207-1.004 2.843-1.32.198-.103.341-.166.397-.198a.34.34 0 01.159-.016c.15.032.293.19.349.277.095.19.159.474.008.585zm68.641 25.464l-8.076-44.337a1.583 1.583 0 00-1.564-1.296h-10.808c-1.937 0-2.12.047-2.747 1.138l-.334.64-19.955 34.766-7.941-12.424 16.922-20.77c.77-.924 1.048-1.596 1.048-2.094 0-.932-.476-1.248-2.565-1.248h-8.902c-1.342 0-1.469.079-2.572 1.422l-15.716 19.197 3.248-17.837c.207-.996.207-.996.223-1.289.071-1.217-.485-1.493-2.565-1.493h-7.195c-2.366 0-2.517.063-2.938 2.347l-2.946 16.312c-1-11.79-9.95-19.457-23.346-19.457C64.349.357 55.9 4.68 50.953 11.714c.294.182.587.372.913.561.143.087.254.159.31.19.008.008.016.008.023.016.207.142 1.287.735 1.827 1.012 1.183.6 2.612 1.24 3.93 1.746l.104.04c1.453.56 2.827 1.082 3.939 1.651l.158.08c.016.007.032.015.056.023 2.589-3.098 6.575-4.995 11.18-4.995 6.44 0 10.88 3.746 11.722 9.627 1.095-.024 2.334.039 3.644.102l.12.008c1.405.063 2.97.063 4.303-.008a36.79 36.79 0 002.081-.181c.008 0 .016 0 .032-.008.063-.008.19-.024.357-.048 1.97-.237 3.51-.577 4.582-1.004.826-.324 2.104-.964 2.716-1.264a2.79 2.79 0 01.278-.134l.087-.04c.048-.024.087-.047.143-.063a1.849 1.849 0 011.072-.103c.699.15 1.183.64 1.421 1.051.54.964.342 2.07-.468 2.632-.024.016-2.231 1.462-3.716 2.023-1.628.625-3.772 1.028-4.392 1.138-.42.071-1.588.237-2.787.403-.19.024-.325.048-.373.056-.643.102-1.374.213-2.295.34-1.072.15-2.422.347-4.256.632l-.564.095c-.945.158-1.7.284-2.335.403-1.572 6.022-6.781 9.974-13.555 9.974-7.703 0-12.562-5.066-12.126-12.606.056-.909.19-1.778.397-2.624-.58-.395-1.262-.854-2.16-1.438l-.468-.309c-1.549-.995-2.7-1.723-3.63-2.3a95.4 95.4 0 01-1.953-1.24 100.625 100.625 0 01-2.7-1.691c-.523-.348-2.318-1.59-3.557-2.822-1.136-1.122-2.549-3.32-2.557-3.343-.516-.846-.246-1.936.643-2.6.381-.285 1.025-.53 1.7-.395.389.087.714.268.968.537.04.04.072.08.112.127l.055.063c.056.063.127.15.207.245.428.521 1.334 1.62 1.953 2.244.421.427.96.885 1.62 1.36l1.263-6.947.174-1.289c.143-1.17-.484-1.493-2.565-1.493h-7.424c-2.367 0-2.518.063-2.938 2.347l-2.669 14.921H18.427l2.636-14.494c.199-.996.199-.996.223-1.288.071-1.21-.485-1.486-2.565-1.486h-7.377c-2.367 0-2.518.063-2.939 2.347L.695 45.833l-.143 1.28c-.072 1.217.476 1.454 2.485 1.454h7.377c2.367 0 2.518-.024 2.939-2.308l3.168-17.347h17.136l-3.065 16.92c-.182.712-.198.996-.222 1.28-.072 1.218.69 1.455 2.771 1.455h7.187c2.366 0 2.517-.024 2.938-2.308l3.05-16.747c1.087 11.966 10.473 19.845 24.37 19.845 8.941 0 16.231-3.319 21.13-9.53 1.335-1.692 2.486-3.636 3.423-5.707l-2.112 11.713-.143 1.28c-.143 1.217.413 1.454 2.422 1.454h7.194c2.367 0 2.518-.024 2.939-2.308l3.454-18.912c.73 1.644 1.39 2.948 3.224 6.133l8.314 13.633c.873 1.39.977 1.454 2.335 1.454h12.618c2.009 0 2.152.047 2.819-1.17l.333-.64 3.597-6.78h16.74l1.024 7.452a1.317 1.317 0 001.31 1.138h10.403c.937 0 1.652-.853 1.485-1.786zm-25.736-16.296l7.599-15.111 2.073 15.103h-9.672v.008z" fill="#0082CA"/></g><defs><clipPath id="clip0"><path fill="#fff" transform="translate(.543 .357)" d="M0 0h244v49H0z"/></clipPath></defs></svg>