<svg width="84" height="42" fill="none" xmlns="http://www.w3.org/2000/svg"><path d="M68.12 23.531l.235 2.423H47.264V23.85L36.88 41.087l6.33-25.245-9.833 16.961v-6.849H1.84v-2.423h34.154L49.631 0 43.07 26.182l6.57-10.905v8.254h18.48z" fill="#9B1915"/><path d="M0 35.169v-19.87h2.899v19.872H0v-.002zm.885 5.753h-.28v-2.295H0v-.265h1.498v.265H.885v2.295zm9.499 0h-.28V38.36h.363c.476 0 .92.128.92.705 0 .394-.243.674-.63.707l.799 1.148h-.343l-.758-1.124h-.071v1.126zm0-1.377h.087c.316 0 .637-.062.637-.46 0-.42-.303-.46-.639-.46h-.083v.92h-.002zm10.132 1.377h-.28V38.36h.28v2.562zm9.207-.727l-.303.725h-.306l1.159-2.684L31.4 40.92h-.31l-.296-.725h-1.072zm.543-1.292l-.43 1.025h.849l-.42-1.025zm10.127 2.019h-.279v-2.295h-.606v-.265h1.499v.265h-.614v2.295zM51.191 39.4v-1.04h.28v2.562h-.28v-1.257h-1.284v1.257h-.28V38.36h.28v1.04h1.284zm9.399 1.256h.693v.264h-.972v-2.562h.28v2.298zm11.781-1.011c0 .737-.593 1.322-1.308 1.322a1.314 1.314 0 01-1.308-1.322c0-.733.594-1.327 1.308-1.327a1.32 1.32 0 011.308 1.327zm-2.338-.004c0 .578.459 1.061 1.028 1.061.57 0 1.03-.483 1.03-1.06 0-.582-.454-1.06-1.03-1.06-.575-.001-1.028.478-1.028 1.06zm11.055-1.39l1.958 2.094V38.36h.279v2.677l-1.958-2.09v1.973h-.279v-2.669zM4.513 35.168v-19.87h3.83c2.324 0 3.637.838 3.637 3.405v2.82c0 1.478-.3 2.706-2.763 2.985v.056c1.287.168 2.763.61 2.763 2.428v8.176H9.19v-7.59c0-1.2-.437-1.676-1.778-1.62v9.209H4.513v.001zm2.9-11.637h.545c1.013 0 1.232-.558 1.232-1.283v-3.6c0-.754-.437-.978-1.094-.978h-.684v5.86zm6.209-4.883c0-2.595 1.998-3.349 3.775-3.349 1.805 0 3.803.754 3.803 3.349V31.82c0 2.596-1.998 3.349-3.803 3.349-1.777 0-3.775-.753-3.775-3.349V18.648zm2.9 12.92c0 1.006.3 1.228.902 1.228.574 0 .875-.224.875-1.227v-12.67c0-1.005-.301-1.227-.875-1.227-.602 0-.903.224-.903 1.228v12.669zM27.161 15.3l2.215 16.968V15.3h2.38v19.872h-4.294l-2.269-17.499v17.499h-2.38V15.299h4.348zm26.942 16.268c0 1.006.3 1.228.903 1.228.573 0 .874-.224.874-1.228v-1.703c0-2.791-4.676-5.525-4.676-8.763v-2.456c0-2.595 1.997-3.349 3.775-3.349 1.805 0 3.802.754 3.802 3.349v3.795h-2.899V18.9c0-1.006-.3-1.228-.874-1.228-.602 0-.904.224-.904 1.228v2.065c0 1.424 4.677 5.722 4.677 7.73v3.125c0 2.595-1.997 3.349-3.802 3.349-1.778 0-3.775-.754-3.775-3.349v-4.185h2.899v3.933zM67.834 15.3v2.37h-2.516v17.5h-2.9v-17.5h-2.543v-2.372h7.959zm6.471 8.231l-1.344 1.002 1.085 3.413-2.836-2.112-2.832 2.112 1.085-3.414-1.344-1.001-1.297 11.638h2.626l.63-5.387h2.048l.55 5.387h2.926L74.305 23.53zm-3.093-4.485l1.074 3.373h1.897l-.794-7.122h-4.352l-.795 7.122h1.894l1.076-3.373zm5.321 16.123v-19.87h3.83c2.325 0 3.637.837 3.637 3.404v2.82c0 1.479-.302 2.706-2.763 2.986v.055c1.286.169 2.763.61 2.763 2.429v8.176h-2.801c0-2.371.01-5.276.01-7.591 0-1.2-.437-1.676-1.777-1.62v9.21h-2.9zm2.9-11.638h.547c1.012 0 1.231-.557 1.231-1.283v-3.6c0-.753-.437-.977-1.094-.977h-.684v5.86z" fill="#000"/></svg>