<svg width="92" height="31" fill="none" xmlns="http://www.w3.org/2000/svg"><path d="M17.097 30.65C30.731 23.558 33.22 15.284 35.804 4.52l-7.031 4.118c-.235 7.367-4.26 13.937-11.684 18.108C6.595 19.402 3.314 10.91 6.445 8.334c1.513-1.246 4.333-1.226 7.8 3.216l1.922-1.723C10.758 1.449 5.212 2.59 3.059 4.366-1.77 8.363.102 19.362 17.097 30.65z" fill="#F9AE00"/><path d="M46.068 8.322c0-1.007-.842-1.606-2.254-1.606-2.423 0-4.118 1.743-4.118 4.235 0 2.286 1.707 4.01 3.973 4.01 1.14 0 2.37-.482 2.37-1.538v-.51c-.47.45-1.339.757-2.156.757-1.67 0-2.67-1.104-2.67-2.957 0-1.594 1.072-2.707 2.61-2.707.744 0 1.71.223 2.24.838v-.522h.005zm26.866 18.363a9.13 9.13 0 002.431-.352c-.084-.927 0-2.553 0-4.972 0-.737-.4-1.085-1.262-1.085h-.21c0 2.108-.101 3.71 0 4.758l-.049.012c-.182.045-.55.122-.995.122-1.04 0-1.545-.255-1.545-1.372v-2.44c0-.736-.4-1.084-1.263-1.084h-.21v3.46c.004 2.018.987 2.953 3.103 2.953zM59.98 14.888h.328v-5.24c0-.735-.4-1.083-1.262-1.083h-.21v2.471H56.23V9.645c0-.737-.4-1.084-1.262-1.084h-.21V13.8c0 .707.396 1.084 1.14 1.084h.328v-2.735h2.605v1.655c.008.712.405 1.084 1.15 1.084zm4.459 2.08c1.905 0 3.135-1.109 3.135-2.828v-2.974c0-1.768-.919-2.743-2.59-2.743-1.569 0-3.256.967-3.256 3.091 0 1.627 1.052 2.634 2.743 2.634 1.258 0 1.63-.882 1.63-.882v.841c0 .992-.63 1.558-1.727 1.558-.983 0-1.639-.198-2.12-.64v.55c.004.822.902 1.393 2.185 1.393zm.153-4.006c-.793 0-1.343-.627-1.343-1.525 0-.999.635-1.727 1.513-1.727.797 0 1.27.582 1.27 1.557 0 1.032-.562 1.695-1.44 1.695zm5.534 3.957h.437v-2.901l.122.206c.34.579.926.805 1.57.805 1.751 0 2.84-1.339 2.84-3.495 0-1.922-1.485-3.115-2.865-3.115-1.44 0-3.16.619-3.16 3.556v3.896c0 .684.543 1.048 1.056 1.048zm1.853-7.205c1.089 0 1.594.711 1.594 2.24 0 1.053-.566 1.789-1.38 1.789-1.019 0-1.654-.797-1.654-2.084 0-1.201.554-1.945 1.44-1.945zm7.327-1.291c-1.897 0-3.123 1.343-3.123 3.423 0 1.582 1.023 3.184 2.981 3.184 1.898 0 3.127-1.34 3.127-3.41-.004-1.586-1.031-3.197-2.985-3.197zm0 5.304c-1.044 0-1.594-.728-1.594-2.108 0-1.169.554-1.893 1.452-1.893 1.044 0 1.594.732 1.594 2.12-.004 1.181-.546 1.881-1.452 1.881zm10.348-5.163h-.433c-.914 1.57-1.804 4.43-1.804 4.43l-.554-1.687c-.376-1.157-.89-2.743-2.217-2.743h-.534c-.3 1.457-.643 3.73-.643 5.446 0 .578.453.878.902.878h.542c.004-1.157.125-3.055.275-4.365l.028-.24s.09.138.154.325c.247.715.797 2.43.841 2.564.482 1.424.862 1.712 1.311 1.712h.328c.376-.797 1.14-3.484 1.691-4.6 0 0 .162 1.197.243 3.722.02.566.32.878.902.878h.627c-.02-1.323-.154-3.006-.392-5.005-.106-.894-.51-1.315-1.267-1.315zM41.925 20.28h-.275c-.74 1.024-1.452 2.614-1.837 3.674-.396 1.084-.546 1.772-.546 1.95 0 .502.194.7.688.7h.627c.23-1.509.768-3.224 1.408-4.495l.056-.113.061.113c.724 1.412 1.032 2.703 1.238 3.783.049.295.36.712.89.712h.789c-.166-1.74-1.23-4.385-2.1-5.708-.32-.474-.554-.615-.999-.615zm5.345 6.32h.327v-2.747h.95l.005.06c.129 1.413 1.096 2.832 2.969 2.832 1.897 0 3.123-1.338 3.123-3.41 0-1.59-1.023-3.196-2.981-3.196-1.615 0-2.751.963-3.043 2.577l-.008.053h-1.015v-1.404c0-.736-.4-1.084-1.263-1.084h-.21v5.239c0 .708.397 1.08 1.145 1.08zm4.25-5.162c1.045 0 1.595.732 1.595 2.12 0 1.177-.542 1.88-1.453 1.88-1.043 0-1.593-.727-1.593-2.107 0-1.165.558-1.893 1.452-1.893zm5.139-2.528c-.923.89-.919 2.665-.914 3.964v.255c0 1.743.809 3.604 3.078 3.604 1.817 0 2.945-1.258 2.945-3.28 0-1.821-1.132-3.091-2.755-3.091-.712 0-1.747.295-2.115 1.132l-.017.04h-.077l.005-.068c.024-.473.097-1.02.667-1.537.554-.518 1.448-.518 2.164-.518h.534c.534 0 .878-.275.878-.7v-.595h-1.254c-.975 0-2.314 0-3.14.793zm1.998 2.698c.729 0 1.594.355 1.594 2.05 0 1.117-.534 1.809-1.391 1.809-1.052 0-1.63-.728-1.63-2.051 0-1.084.57-1.808 1.427-1.808zm7.096 5.137c2.003 0 2.719-1.064 2.719-2.063 0-.453-.328-1.068-.955-1.363l-.121-.057.117-.06c.538-.276.837-.733.837-1.283 0-1.614-1.868-1.788-2.67-1.788a6.862 6.862 0 00-2.528.493v3.973c0 .805.34 2.148 2.601 2.148zM64.6 21.41l.045-.012a3.207 3.207 0 011.072-.158c.57 0 1.153.093 1.153.769 0 .575-.344.817-1.153.817H64.6V21.41zm0 2.407h1.178c.845 0 1.189.251 1.189.866 0 .579-.494.95-1.258.95-.429 0-1.105-.262-1.105-.974v-.842H64.6zm-13.953-8.844a9.13 9.13 0 002.432-.352c-.085-.927 0-2.553 0-4.972 0-.736-.4-1.084-1.263-1.084h-.21c0 2.107-.101 3.71 0 4.757l-.049.012c-.182.045-.55.122-.995.122-1.04 0-1.545-.255-1.545-1.372v-2.44c0-.736-.4-1.083-1.262-1.083h-.21v3.459c.003 2.018.986 2.953 3.102 2.953z" fill="#000"/><path d="M35.804 4.515l-7.031 4.123C14.832.162 13.408 24.876 4.083 18.67c-.85-1.23-1.525-2.42-2.035-3.556 10.58 10.121 9.936-26.88 33.756-10.6z" fill="url(#paint0_linear)"/><defs><linearGradient id="paint0_linear" x1="8.067" y1="4.683" x2="28.798" y2="16.652" gradientUnits="userSpaceOnUse"><stop offset=".228" stop-color="#E6302D"/><stop offset=".453" stop-color="#E95F32"/><stop offset="1" stop-color="#F9AE00"/></linearGradient></defs></svg>