<svg width="285" height="80" fill="none" xmlns="http://www.w3.org/2000/svg"><g clip-path="url(#clip0)"><path d="M73.033 36.802H88.65v14.332l8.65-14.332h17.148l-13.294 18.872 13.69 20.91h-17.99L88.65 61.466v15.118H73.033V36.802zm-3.953 38.53c-2.447 1.3-5.808 2.43-10.503 2.43-12.726 0-21.77-8.345-21.77-21.082 0-14.43 11.614-21.081 21.548-21.081 3.188 0 7.586.785 10.724 3.018v13.916c-2.397-3.02-5.906-4.197-8.648-4.197-5.807 0-8.6 3.927-8.6 8.761 0 5.056 3.633 7.952 8.55 7.952 3.46 0 6.474-1.596 8.698-3.632v13.915zm-53.252-8.295v-5.963h1.902c1.508 0 3.905.294 3.905 2.97 0 2.772-2.471 3.018-3.905 3.018h-1.902v-.025zM.21 36.802v39.782h23.105c10.823 0 13.17-7.044 13.17-11.093 0-5.4-3.632-9.326-8.648-10.16v-.123c3.237-.957 6.82-3.804 6.82-8.295 0-3.068-1.161-10.111-12.405-10.111H.21zm15.618 15.117v-5.57h1.457c2.719 0 3.46 1.423 3.46 2.797 0 1.35-.741 2.773-3.46 2.773h-1.457z" fill="#0067B2"/><path d="M206.174 41.856l-4.448.197-.42-1.105-4.275-.294-.049-.786-4.596-.073.766 1.644 2.051.246-.247-.54 1.853 1.227 3.089.712 2.051.073 5.189-.687-.964-.614zm-11.366-3.852l-2.101-.294s.05-.736-.766-1.129c-.815-.417-.642-.025-.642-.025l-.791-.589-1.483-.245-.123-1.104-1.903-.099.049-.54-1.507-.147-.642-.564.197-.614-.37-.564-1.804-.835-1.508-.589-.988-1.128-1.186-1.007-1.532-1.472-3.781-1.326-3.583-2.625-1.408-.663-1.532-.76-3.262-1.743-4.819-2.675-10.65-5.13-3.04-1.35c-1.729-.736-2.001-1.128-2.051-1.35-1.556-.367-2.075-.637-2.891-1.447-.815.024-2.669-1.031-3.163-1.497 0-.025-3.138-.933-3.336-1.105 0-.196-8.13-3.043-9.118-3.288-.717-.05-2.669-.417-2.94-.54-.322 0-1.582-.393-2.076-.442-1.705-.196-3.311-.466-5.041-.466-1.236 0-1.952 0-3.04-.27-.395.245-2.94-.221-3.83.466-1.013.05-3.36.565-4.003.86-1.384.048-3.756 1.57-4.547 1.962-.395.197-.815.393-1.235.59 2.545.883 5.436 1.938 5.436 2.061.198.172 3.336 1.08 3.336 1.104.494.491 2.348 1.546 3.163 1.522.816.81 1.334 1.08 2.891 1.448.05.22.321.613 2.027 1.35l3.039 1.325 10.65 5.13 4.819 2.674 3.262 1.743 1.532.76 1.458.614 1.186.884 2.347.908 5.288 1.717 6.376 2.48 2.372.81 2.397.735 1.137-.196 1.235.417 1.384 1.227 1.408-.466.964.172.766.981.494.59 1.211.368 1.137.098 1.408-.246 1.656.148.593.981 2.323.368 1.655.123 1.681.123 1.285.589 1.161 1.252 1.68.343 4.325.614 3.904-.467 2.545.123.915-.663z" fill="#62BAEA"/><path d="M159.743 44.313l4.596.049.049.81 4.275.294.42 1.104 4.448-.196.964.589-5.189.687-2.051-.073-3.089-.688-1.853-1.227.247.54-2.051-.245-.766-1.645zm.469-1.891s.049-.736-.766-1.129c-.815-.417-.642-.024-.642-.024l-.816-.59-1.483-.245-.123-1.104-1.903-.099.05-.54-1.508-.171-.642-.565.197-.638-.37-.564-1.779-.86-1.508-.588-.988-1.13-1.186-1.03-1.508-1.472-3.78-1.326-3.583-2.626-1.458-.613-1.557-.76-3.262-1.743-4.769-2.65-10.626-5.13-3.039-1.35c-1.73-.736-2.002-1.129-2.051-1.35-1.557-.368-2.076-.638-2.891-1.448-.816.05-2.669-1.006-3.163-1.497 0-.024-3.138-.932-3.336-1.129 0-.171-8.13-3.043-9.118-3.288-.717-.025-2.67-.393-2.941-.516-.346 0-1.581-.392-2.076-.441-1.68-.197-3.31-.442-5.04-.467-1.26-.024-1.953 0-3.04-.27-.395.246-2.94-.22-3.855.442-1.013.05-3.336.565-3.978.859-1.384.05-3.756 1.57-4.572 1.963-.692.344-1.507.688-2.15 1.08-.296.246-4.744 2.43-5.04 2.7.074.147-4.35 2.773-4.77 3.141-.198.197-1.359.663-1.655.957-.297.295-1.483 1.35-1.879 1.546-.172.369-1.31.761-1.482 1.13-.272.367-1.606 1.006-1.829 1.276-.05.024-.79.638-1.383 1.128-.248.32-.495.663-.742.982-.296.098-1.482.785-1.779 1.006.025.712.074 1.816-1.038 1.596l-1.31.76c.149 0-.691 1.227-1.383 2.11-.42.492-2.323 1.203-2.694 1.719-.766 1.055-1.754 2.037-2.52 3.068v.073h.099c0 .148.74.123.84.393.148.417-.297.785-.42 1.129h.099v.073c.593-.024 1.16-.638 1.63-.883.396-.147.791-.32 1.187-.466.716-.418 1.408-.835 2.125-1.252a4772.658 4772.658 0 0115.79-8.516c2.52-1.35 4.522-2.601 7.314-4.123.667-.368 3.213-2.062 5.115-2.184 2.422-.148 5.313.466 6.104.785.741.27 2.57 1.178 3.509 1.399.272.098.815.49.939.466.099.123 1.828.393 2.743.712.32.196.617.368.939.564 1.507.442 5.263 1.326 6.622 1.743 1.162.343 1.853 1.006 2.422 1.129.79.54.964.27 1.927.736 1.458.147 2.348.663 2.397.712.445.196.766.368 1.21.564.372.05 1.088.614 1.385.737.346.073 2.718.785 2.94.908.396-.05 2.076.687 2.274.858.469.221 1.013.344 1.556.442l4.844 1.89 5.288 1.718 6.375 2.479 2.397.81 2.397.736 1.112-.197 1.26.418 1.384 1.227 1.359-.442.964.172.766.982.494.589 1.211.343 1.186.147 1.409-.245 1.655.147.593.982 2.323.392 1.656.123 1.68.123 1.285.589 1.161 1.252 1.681.343 4.324.638 3.904-.466 2.546.123.914-.688-2.15-.294zm-32.346 33.696c-.741.393-1.754.737-3.089.737-2.199 0-3.509-.761-4.571-1.718-1.434-1.375-2.002-2.92-2.002-4.761 0-2.234.939-3.878 2.002-4.86 1.26-1.178 2.817-1.644 4.596-1.644.865 0 1.927.147 3.089.76v2.823a4.053 4.053 0 00-3.04-1.399c-2.496 0-4.151 2.062-4.151 4.344 0 2.749 2.125 4.246 4.25 4.246 1.162 0 2.199-.49 2.916-1.35v2.822zm7.141.442h-2.446V66.23h-2.817v-2.086h8.08v2.086h-2.817v10.33zm5.288-12.417V76.56h2.447v-4.59h1.581c1.433 0 2.471-.417 3.163-1.104.964-.933 1.038-2.282 1.038-2.773 0-.884-.272-2.11-1.285-2.994-.914-.81-1.903-.957-3.311-.957h-3.633zm2.447 2.086h.84c.593 0 1.211.024 1.73.392.37.27.692.737.692 1.4 0 .54-.223 1.104-.668 1.447-.519.393-1.136.393-1.606.393h-.988v-3.632zm16.21 10.331h2.619l-5.263-12.665h-1.853l-5.412 12.664h2.644l1.112-2.601h5.041l1.112 2.601zm-5.387-4.59l1.804-4.467 1.754 4.467h-3.558zm13.59-1.962l-3.731-5.865h2.916l2.199 3.853 2.298-3.853h2.941l-3.855 5.865 4.275 6.553h-2.916l-2.743-4.54-2.891 4.54h-2.94l4.447-6.553zm15.865-6.136c-3.929 0-6.672 2.724-6.672 6.504 0 3.78 2.743 6.479 6.672 6.479s6.671-2.7 6.671-6.48c0-3.803-2.742-6.503-6.671-6.503zm0 10.774c-2.447 0-4.177-1.767-4.177-4.295 0-2.503 1.73-4.295 4.177-4.295 2.446 0 4.176 1.792 4.176 4.295 0 2.528-1.73 4.295-4.176 4.295zm12.306-3.484h.89c.518 0 1.136 0 1.655.245.791.344.914 1.03.914 1.423 0 .491-.173 1.08-.766 1.424-.543.319-1.21.343-1.68.343h-1.038v-3.435h.025zm-2.422-7.02v12.419h4.201c1.087 0 2.224-.172 3.188-1.007.865-.76 1.062-1.791 1.062-2.503 0-.638-.148-1.62-.914-2.331-.321-.295-.815-.638-1.631-.786.346-.196 1.409-.834 1.409-2.43 0-1.03-.42-2.012-1.162-2.576-1.013-.785-2.372-.785-3.064-.785h-3.089zm2.422 1.989h.717c.988 0 1.878.417 1.878 1.57 0 1.595-1.508 1.62-1.903 1.62h-.692v-3.19zm15.296-2.259c-3.929 0-6.672 2.724-6.672 6.504 0 3.78 2.743 6.479 6.672 6.479 3.954 0 6.672-2.7 6.672-6.48 0-3.803-2.743-6.503-6.672-6.503zm0 10.774c-2.446 0-4.176-1.767-4.176-4.295 0-2.503 1.73-4.295 4.176-4.295s4.176 1.792 4.176 4.295c-.024 2.528-1.754 4.295-4.176 4.295zm13.69-14.456c.395 1.031 1.433 1.08 1.68 1.08.247 0 1.285-.049 1.68-1.08l1.681.663c-.494 1.252-1.656 2.086-3.386 2.086-1.729 0-2.891-.81-3.385-2.086l1.73-.663zm-1.384 3.952v8.344l6.894-8.614h1.705V76.56h-2.446v-8.37l-6.894 8.614h-1.681V64.166h2.422v-.024zm18.903.001v5.399c0 1.718-.197 2.65-.444 3.264-.371.932-1.088 1.718-1.977 1.669v4.884h2.248V76.56h7.685v2.797h2.249v-4.883h-1.31V64.143h-8.451zm2.348 2.086h3.632v8.246h-5.041a4.15 4.15 0 00.989-1.473c.222-.589.42-1.546.42-3.46v-3.313zm16.037-2.357c-3.929 0-6.672 2.724-6.672 6.504 0 3.78 2.743 6.479 6.672 6.479 3.954 0 6.672-2.7 6.672-6.48 0-3.803-2.743-6.503-6.672-6.503zm0 10.774c-2.446 0-4.176-1.767-4.176-4.295 0-2.503 1.73-4.295 4.176-4.295 2.447 0 4.176 1.792 4.176 4.295 0 2.528-1.729 4.295-4.176 4.295zm9.242 1.913l2.323-12.64h1.68l3.41 8.124 3.534-8.123h1.705l2.1 12.639h-2.496l-1.111-7.657-3.435 7.829h-.692l-3.287-7.83-1.26 7.658h-2.471z" fill="#0067B2"/></g><defs><clipPath id="clip0"><path fill="#fff" transform="translate(.21 .357)" d="M0 0h284v79H0z"/></clipPath></defs></svg>