<svg xmlns="http://www.w3.org/2000/svg" viewBox="0 0 13 16"><path d="M12.2 2c-.1-.5-.6-1.2-1.1-1.4l-.2-.1C10.4.2 9.6 0 9 0H4c-.5 0-1.4.2-1.9.4l-.2.2C1.4.8.9 1.4.8 2L0 7v5c0 .6.4 1 1 1v2c0 .6.4 1 1 1s1-.4 1-1v-2h7v2c0 .6.4 1 1 1s1-.4 1-1v-2c.6 0 1-.4 1-1V7l-.8-5zM3.5 1h6c.3 0 .5.2.5.5s-.2.5-.5.5h-6c-.3 0-.5-.2-.5-.5s.2-.5.5-.5zM2 11c-.6 0-1-.4-1-1s.4-1 1-1 1 .4 1 1-.4 1-1 1zm-.5-4c-.2 0-.4-.2-.4-.4v-.1l.4-3c0-.3.2-.5.5-.5h9c.3 0 .5.2.6.5l.4 3c0 .2-.2.5-.4.5H1.5zm9.5 4c-.6 0-1-.4-1-1s.4-1 1-1 1 .4 1 1-.4 1-1 1z"/></svg>