<svg xmlns="http://www.w3.org/2000/svg" viewBox="0 0 23.9 23.9"><path d="M23.2.2h-7.1c-.4 0-1 .3-1.3.6l-2.1 2.8 2.2 3c1.4.5 2.7 1.3 3.8 2.3.5.5.9 1 1.3 1.6l3.4-4.6c.3-.4.5-1 .5-1.4V.9c0-.4-.3-.7-.7-.7zM3.9 10.5c.4-.6.8-1.2 1.3-1.7C7 7 9.5 6 12 6c.4 0 .8 0 1.1.1L9 .6C8.8.3 8.2 0 7.7 0H.8C.4 0 0 .3 0 .8v3.6c0 .4.2 1.1.5 1.4l3.4 4.7z"/><path d="M12 7.2c-4.6 0-8.3 3.7-8.3 8.3 0 4.6 3.7 8.3 8.3 8.3 4.6 0 8.3-3.7 8.3-8.3 0-4.6-3.7-8.3-8.3-8.3zm0 14.9c-3.6 0-6.6-2.9-6.6-6.6S8.4 9 12 9c3.6 0 6.6 2.9 6.6 6.6s-3 6.5-6.6 6.5z"/><path d="M12 10.2c-2.9 0-5.3 2.4-5.3 5.4 0 3 2.4 5.4 5.3 5.4s5.3-2.4 5.3-5.4c0-3-2.4-5.4-5.3-5.4z"/></svg>