<svg xmlns="http://www.w3.org/2000/svg" viewBox="0 0 24 24"><path d="M23.5 3l-2.1-.1c-.4 0-1-.4-1.2-.8L19.3.2c-.2-.4-.6-.4-.8 0l-4 6.2c1.6.4 3 1.3 4.1 2.4.4.4.8.8 1.1 1.3l4.1-6.5c.3-.3.1-.6-.3-.6zM9.4 6.5L5.4.3c-.2-.4-.6-.4-.8 0l-.9 1.9c-.1.4-.7.7-1.1.7L.5 3c-.5 0-.6.3-.4.7l4.1 6.5c.3-.4.7-.9 1.1-1.3 1.1-1.1 2.5-2 4.1-2.4zm2.6.9c-4.6 0-8.2 3.7-8.2 8.3 0 4.6 3.7 8.3 8.2 8.3 4.6 0 8.2-3.7 8.2-8.3 0-4.6-3.7-8.3-8.2-8.3zm0 14.9c-3.6 0-6.6-3-6.6-6.6S8.3 9 12 9s6.6 3 6.6 6.6c-.1 3.7-3 6.7-6.6 6.7z"/><path d="M12 10.3c-3 0-5.4 2.4-5.4 5.4 0 3 2.4 5.4 5.4 5.4 3 0 5.4-2.4 5.4-5.4-.1-3-2.5-5.4-5.4-5.4z"/></svg>