<svg width="25" height="26" fill="none" xmlns="http://www.w3.org/2000/svg"><path d="M23.958 7.88c-.361-.379-1.003-.429-1.438-.114l-2.826 2.095-1.3-2.84a.84.84 0 00-.199-.275 2.594 2.594 0 00-1.364-1.229 3.214 3.214 0 00-.845-.2c-.061-.029-.118-.068-.191-.086l-4.979-1.225a1.147 1.147 0 00-.792.093c-.272.082-.508.258-.621.512L7.53 8.862c-.203.462.057.985.581 1.164.524.18 1.117-.05 1.32-.516l1.584-3.588 2.266.555c-.057.079-.114.154-.158.236l-2.908 5.555c-.04.082-.065.165-.094.247l-3.533 5.222L.68 19.48c-.67.44-.812 1.271-.317 1.862.496.591 1.442.716 2.112.28l6.047-1.838c.187-.118.321-.272.423-.44.077-.072.162-.13.22-.215l2.103-3.112 3.736 2.807-4 3.976c-.553.548-.496 1.393.13 1.876.621.487 1.576.437 2.132-.114l4.991-4.957c.154-.154.248-.33.309-.512.036-.1.036-.204.044-.308 0-.054.025-.1.017-.15a1.236 1.236 0 00-.52-.967l-3.44-2.586c.248-.208.459-.455.61-.745l2.229-4.255.715 1.676c.028.15.085.294.207.42.105.114.243.19.39.24.016.007.032.007.052.01a1.063 1.063 0 00.634.029h.004c.032-.007.06 0 .093-.014.167-.054.293-.15.402-.258l4.058-3.037c.442-.323.26-.888-.102-1.268zm-5.133-2.166c1.57 0 2.843-1.122 2.843-2.507C21.668 1.823 20.395.7 18.825.7s-2.843 1.123-2.843 2.507c0 1.385 1.273 2.507 2.843 2.507z" fill="#030104"/></svg>