<?xml version="1.0" encoding="utf-8"?>
<!-- Generator: Adobe Illustrator 19.2.0, SVG Export Plug-In . SVG Version: 6.00 Build 0)  -->
<svg version="1.1" id="Слой_1" xmlns="http://www.w3.org/2000/svg" xmlns:xlink="http://www.w3.org/1999/xlink" x="0px" y="0px"
	 viewBox="0 0 20 14" style="enable-background:new 0 0 20 14;" xml:space="preserve">
<g>
	<path d="M19.7,3.7h-0.8c-0.1,0-0.1,0-0.2,0.1l-0.9,0.6l-1.4-3c-0.3-0.6-0.8-1-1.5-1L11.3,0c-0.4,0-0.8,0-1.3,0C9.6,0,9.2,0,8.8,0
		L5.1,0.3c-0.6,0-1.2,0.4-1.5,1l-1.4,3L1.3,3.7c-0.1,0-0.1-0.1-0.2-0.1H0.3C0.1,3.7,0,3.8,0,4v0.1c0,0.1,0.1,0.2,0.1,0.3l0.8,0.7
		C1,5.1,1,5.2,1.1,5.2h0.2L1.9,5L1.8,5.4c0,0,0,0.1-0.1,0.1L0.7,6.8C0.6,6.9,0.5,6.9,0.5,7C0.4,7.2,0.3,7.5,0.4,7.8L1,13.8
		C1,13.9,1.1,14,1.1,14h1.7C2.9,14,3,13.9,3,13.8v-1.1c0-0.2,0.2-0.4,0.4-0.3l4.2,0.2c0.4,0,0.8,0,1.2,0.1c0.8,0,1.6,0,2.4,0
		c0.4,0,0.8,0,1.2-0.1l4.2-0.2c0.2,0,0.4,0.1,0.4,0.3v1.1c0,0.1,0.1,0.2,0.2,0.2h1.7c0.1,0,0.2-0.1,0.2-0.2l0.6-6.1
		c0-0.3,0-0.5-0.1-0.8c0-0.1-0.1-0.1-0.1-0.2l-1.1-1.4c0,0,0-0.1-0.1-0.1L18.1,5l0.6,0.2h0.2c0.1,0,0.1,0,0.1-0.1l0.8-0.7
		C20,4.4,20,4.3,20,4.2V4C20,3.8,19.9,3.7,19.7,3.7z M4.5,9C3.7,9,3,8.5,3,8s0.7-1,1.5-1S6,7.5,6,8S5.3,9,4.5,9z M10,5H3.4
		C3.1,5,2.9,4.7,3,4.5l1.5-3c0.1-0.1,0.2-0.2,0.3-0.2L8.5,1c1-0.1,1.9-0.1,2.9,0l3.7,0.2c0.1,0,0.2,0.1,0.3,0.2l1.5,3
		C17.1,4.7,16.9,5,16.6,5H10z M16.5,9C15.7,9,15,8.5,15,8s0.7-1,1.5-1C17.3,7,18,7.5,18,8S17.3,9,16.5,9z"/>
</g>
</svg>
