<?xml version="1.0" encoding="utf-8"?>
<!-- Generator: Adobe Illustrator 19.2.0, SVG Export Plug-In . SVG Version: 6.00 Build 0)  -->
<svg version="1.1" id="Слой_1" xmlns="http://www.w3.org/2000/svg" xmlns:xlink="http://www.w3.org/1999/xlink" x="0px" y="0px"
	 viewBox="0 0 13 16" style="enable-background:new 0 0 13 16;" xml:space="preserve">
<g>
	<path d="M12.2,2c-0.1-0.5-0.6-1.2-1.1-1.4l-0.2-0.1C10.4,0.2,9.6,0,9,0H4C3.5,0,2.6,0.2,2.1,0.4L1.9,0.6C1.4,0.8,0.9,1.4,0.8,2L0,7
		v5c0,0.6,0.4,1,1,1v2c0,0.6,0.4,1,1,1s1-0.4,1-1v-2h7v2c0,0.6,0.4,1,1,1s1-0.4,1-1v-2c0.6,0,1-0.4,1-1V7C13,7,12.2,2,12.2,2z
		 M3.5,1h6C9.8,1,10,1.2,10,1.5S9.8,2,9.5,2h-6C3.2,2,3,1.8,3,1.5S3.2,1,3.5,1z M2,11c-0.6,0-1-0.4-1-1s0.4-1,1-1s1,0.4,1,1
		S2.6,11,2,11z M1.5,7C1.3,7,1.1,6.8,1.1,6.6c0,0,0-0.1,0-0.1l0.4-3C1.5,3.2,1.7,3,2,3h9c0.3,0,0.5,0.2,0.6,0.5l0.4,3
		C12,6.7,11.8,7,11.6,7c0,0-0.1,0-0.1,0H1.5z M11,11c-0.6,0-1-0.4-1-1s0.4-1,1-1s1,0.4,1,1S11.6,11,11,11z"/>
</g>
</svg>
