<?xml version="1.0" encoding="utf-8"?>
<!-- Generator: Adobe Illustrator 19.2.0, SVG Export Plug-In . SVG Version: 6.00 Build 0)  -->
<svg version="1.1" id="Слой_1" xmlns="http://www.w3.org/2000/svg" xmlns:xlink="http://www.w3.org/1999/xlink" x="0px" y="0px"
	 viewBox="0 0 11 19" style="enable-background:new 0 0 11 19;" xml:space="preserve">
<path d="M1,0C0.5,0,0,0.5,0,1.1v5.3c0,1.1,1,1.1,1,2.1v9.5C1,18.5,1.5,19,2,19h1c0.5,0,1-0.5,1-1.1V8.4c0-1.1,1-1.1,1-2.1V1.1
	C5,0.5,4.5,0,4,0C3.8,0,3.8,0.3,3.8,0.5v4.2c0,0.2,0,0.5-0.2,0.5S3.2,5,3.2,4.8V0.5C3.2,0.3,3.2,0,3,0H2C1.8,0,1.8,0.3,1.8,0.5v4.2
	c0,0.2,0,0.5-0.2,0.5S1.2,5,1.2,4.8V0.5C1.2,0.3,1.2,0,1,0z M11,0c-1,0-2.9,0.2-3.5,1.6C7,2.6,7,5.3,7,6.3v4.2c0,0.5,0.5,1.1,1,1.1
	v6.3C8,18.5,8.5,19,9,19h1c0.5,0,1-0.5,1-1.1V0z"/>
</svg>
