<?xml version="1.0" encoding="utf-8"?>
<!-- Generator: Adobe Illustrator 19.2.0, SVG Export Plug-In . SVG Version: 6.00 Build 0)  -->
<svg version="1.1" id="Слой_1" xmlns="http://www.w3.org/2000/svg" xmlns:xlink="http://www.w3.org/1999/xlink" x="0px" y="0px"
	 viewBox="0 0 20 18" style="enable-background:new 0 0 20 18;" xml:space="preserve">
<g transform="translate(-2 -2)">
	<circle cx="12" cy="12" r="3.2"/>
	<path d="M9,2L7.2,4H4C2.9,4,2,4.9,2,6v12c0,1.1,0.9,2,2,2h16c1.1,0,2-0.9,2-2V6c0-1.1-0.9-2-2-2h-3.2L15,2H9z M12,17
		c-2.8,0-5-2.2-5-5s2.2-5,5-5s5,2.2,5,5S14.8,17,12,17z"/>
</g>
</svg>
