<?xml version="1.0" encoding="utf-8"?>
<!-- Generator: Adobe Illustrator 19.2.0, SVG Export Plug-In . SVG Version: 6.00 Build 0)  -->
<svg version="1.1" id="Слой_1" xmlns="http://www.w3.org/2000/svg" xmlns:xlink="http://www.w3.org/1999/xlink" x="0px" y="0px"
	 viewBox="0 0 26 18.9" style="enable-background:new 0 0 26 18.9;" xml:space="preserve">
<g>
	<path d="M25.2,4.6h-2.4C23.2,5.7,23,6.9,22.9,8c-0.1,0.5-0.1,1-0.1,1.4c0,0.4,0.1,0.9,0.1,1.4c0.1,1.1,0.3,2.4-0.2,3.5h2.4
		c0.5,0,0.8-0.4,0.8-0.8c0,0,0,0,0,0V5.4C26,5,25.6,4.6,25.2,4.6C25.2,4.6,25.2,4.6,25.2,4.6z M3.1,10.9c0.1-0.5,0.1-1,0.1-1.4
		C3.2,9,3.1,8.5,3.1,8C2.9,6.9,2.8,5.7,3.2,4.6H0.9C0.4,4.6,0,5,0,5.4v8.1c0,0.5,0.4,0.9,0.9,0.9h2.3C2.8,13.2,2.9,12,3.1,10.9z
		 M17.2,2.3C15.9,1.5,14.6,0,13,0c-1.7,0-2.9,1.5-4.2,2.3C7.4,3.1,5.4,3.4,4.6,4.7C3.8,6,4.5,7.8,4.5,9.4c0,1.6-0.7,3.4,0.1,4.7
		c0.8,1.3,2.8,1.6,4.2,2.4c1.3,0.8,2.6,2.3,4.2,2.3c1.7,0,2.9-1.5,4.2-2.3c1.4-0.8,3.4-1.1,4.2-2.4c0.8-1.3,0.1-3.1,0.1-4.7
		s0.7-3.4-0.1-4.7C20.6,3.4,18.6,3.1,17.2,2.3L17.2,2.3z M20,9.4c0,3.7-3.1,6.8-7,6.8c-3.8,0-7-3-7-6.8c0-3.7,3.1-6.8,7-6.8
		C16.8,2.6,20,5.7,20,9.4z"/>
	<path d="M13,3.9c-3.1,0-5.7,2.5-5.7,5.5s2.5,5.5,5.7,5.5c3.1,0,5.7-2.5,5.7-5.5S16.1,3.9,13,3.9z"/>
</g>
</svg>
