<?xml version="1.0" encoding="utf-8"?>
<!-- Generator: Adobe Illustrator 19.2.0, SVG Export Plug-In . SVG Version: 6.00 Build 0)  -->
<svg version="1.1" id="Слой_1" xmlns="http://www.w3.org/2000/svg" xmlns:xlink="http://www.w3.org/1999/xlink" x="0px" y="0px"
	 viewBox="0 0 16.9 23.9" style="enable-background:new 0 0 16.9 23.9;" xml:space="preserve">
<g>
	<path d="M10.4,5.2L13.1,0H3.8l2.7,5.2H10.4z M14.8,0.7c-0.2-0.4-0.5-0.4-0.8,0L9.6,9.2c1.6,0.2,3.1,0.9,4.2,2l2.9-5.5
		c0.2-0.4,0.2-1,0-1.4L14.8,0.7z M7.3,9.2L2.8,0.7c-0.2-0.4-0.5-0.4-0.7,0L0.2,4.3c-0.2,0.4-0.2,1,0,1.4l2.9,5.5
		C4.2,10.1,5.7,9.4,7.3,9.2z M8.4,10.3c-3.8,0-6.8,3-6.8,6.8c0,0,0,0,0,0c0,3.8,3,6.8,6.8,6.8c0,0,0,0,0,0c3.8,0,6.8-3,6.8-6.8
		c0,0,0,0,0,0C15.2,13.4,12.2,10.3,8.4,10.3C8.4,10.3,8.4,10.3,8.4,10.3z M8.4,22c-2.7,0-4.9-2.2-4.9-4.9c0-2.7,2.2-4.9,4.9-4.9
		c2.7,0,4.9,2.2,4.9,4.9C13.3,19.8,11.1,22,8.4,22z"/>
	<path d="M8.4,12c-2.9,0-5.2,2.3-5.2,5.2c0,2.9,2.3,5.2,5.2,5.2c2.9,0,5.2-2.3,5.2-5.2C13.6,14.3,11.3,12,8.4,12z"/>
</g>
</svg>
