<?xml version="1.0" encoding="utf-8"?>
<!-- Generator: Adobe Illustrator 19.2.0, SVG Export Plug-In . SVG Version: 6.00 Build 0)  -->
<svg version="1.1" id="Слой_1" xmlns="http://www.w3.org/2000/svg" xmlns:xlink="http://www.w3.org/1999/xlink" x="0px" y="0px"
	 viewBox="0 0 17.9 24" style="enable-background:new 0 0 17.9 24;" xml:space="preserve">
<g>
	<path d="M2.1,15L2.1,15l-2,6.7c-0.1,0.4,0.1,0.7,0.6,0.6l2.4-0.5c0,0,0.1,0,0.1,0l1.4-5C3.7,16.3,2.8,15.7,2.1,15z M4.4,22.1
		c0,0,0.1,0.1,0.1,0.1l1.7,1.7C6.5,24.1,6.9,24,7,23.6l1.7-5.9c-1,0-2-0.2-3-0.5C5.8,17.2,4.4,22.1,4.4,22.1z M9.1,17.7l1.7,5.8
		c0.1,0.4,0.5,0.5,0.8,0.2l1.7-1.7c0,0,0.1-0.1,0.1-0.1l-1.4-4.8C11.1,17.6,10.1,17.7,9.1,17.7z M15.9,14.9L15.9,14.9
		c-0.8,0.8-1.7,1.4-2.6,1.8l1.4,5c0,0,0.1,0,0.1,0l2.4,0.5c0.4,0.1,0.7-0.2,0.6-0.6C17.8,21.6,15.9,14.9,15.9,14.9z M17.4,8.3
		c0-4.6-3.8-8.3-8.5-8.3C4.2,0,0.4,3.7,0.4,8.3c0,4.6,3.8,8.3,8.5,8.3S17.4,12.8,17.4,8.3L17.4,8.3z M8.9,14.9c-3.7,0-6.8-3-6.8-6.6
		s3-6.6,6.8-6.6c3.7,0,6.8,3,6.8,6.6C15.7,11.9,12.7,14.9,8.9,14.9z"/>
	<path d="M8.9,13.7c3,0,5.5-2.4,5.5-5.4c0-3-2.5-5.4-5.5-5.4S3.4,5.3,3.4,8.3C3.4,11.2,5.9,13.7,8.9,13.7L8.9,13.7z"/>
</g>
</svg>
