<?xml version="1.0" encoding="utf-8"?>
<!-- Generator: Adobe Illustrator 19.2.0, SVG Export Plug-In . SVG Version: 6.00 Build 0)  -->
<svg version="1.1" id="Слой_1" xmlns="http://www.w3.org/2000/svg" xmlns:xlink="http://www.w3.org/1999/xlink" x="0px" y="0px"
	 viewBox="0 0 7.2 12" style="enable-background:new 0 0 7.2 12;" xml:space="preserve">
<g>
	<path d="M5.8,0H1.4C0.6,0,0,0.6,0,1.4v9.3C0,11.4,0.6,12,1.4,12h4.4c0.8,0,1.4-0.6,1.4-1.4V1.4C7.2,0.6,6.6,0,5.8,0z M3.6,11.5
		c-0.5,0-0.8-0.4-0.8-0.8c0,0,0,0,0,0c0-0.5,0.4-0.8,0.8-0.8s0.8,0.4,0.8,0.8C4.4,11.1,4.1,11.5,3.6,11.5
		C3.6,11.5,3.6,11.5,3.6,11.5z M6.1,9.3h-5V1.6h5V9.3z"/>
</g>
</svg>
