<svg width="18" height="27" viewBox="0 0 18 27" fill="none" xmlns="http://www.w3.org/2000/svg">
<path d="M6.49692 8.1429V7.8549C6.49692 7.2789 6.89292 5.3709 8.90892 5.3709C10.4569 5.3709 11.2849 6.3069 11.2849 7.9269C11.2849 8.5749 11.1769 11.1669 7.46892 11.1669H5.74092V17.6829H11.7889V14.4789C15.2089 14.4069 17.3329 11.3829 17.3329 7.6029C17.3329 3.9309 14.8849 0.0789003 8.90892 0.0789003C3.04092 0.0789003 0.376918 4.1109 0.448918 8.1429H6.49692ZM5.09292 22.9749C5.09292 24.9909 6.74892 26.6469 8.76492 26.6469C10.7809 26.6469 12.4369 24.9909 12.4369 22.9749C12.4369 20.9589 10.7809 19.3029 8.76492 19.3029C6.74892 19.3029 5.09292 20.9589 5.09292 22.9749Z" fill="black"/>
</svg>
