<svg width="25" height="26" viewBox="0 0 25 26" fill="none" xmlns="http://www.w3.org/2000/svg">
<path d="M23.958 7.8809C23.5966 7.50128 22.9549 7.45115 22.5204 7.7663L19.6938 9.86138L18.3942 7.02139C18.3495 6.91395 18.2764 6.82441 18.1952 6.74562C17.9312 6.22275 17.4682 5.77508 16.8306 5.51723C16.5544 5.40621 16.2702 5.3489 15.9859 5.31667C15.925 5.28802 15.8681 5.24863 15.795 5.23072L10.816 4.00591C10.5357 3.93786 10.2555 3.98084 10.024 4.09902C9.75193 4.18139 9.51638 4.35688 9.40267 4.61115L7.53045 8.86219C7.32739 9.32418 7.58731 9.84705 8.1112 10.0261C8.6351 10.2052 9.22803 9.97598 9.43109 9.51041L11.015 5.92192L13.2811 6.47702C13.2243 6.55581 13.1674 6.63102 13.1227 6.71339L10.2149 12.268C10.1743 12.3504 10.1499 12.4328 10.1215 12.5151L6.58825 17.7367L0.679204 19.4808C0.00910598 19.9213 -0.133036 20.7522 0.362431 21.3431C0.857898 21.934 1.80416 22.0594 2.47426 21.6225L8.52139 19.7852C8.7082 19.6671 8.84222 19.5131 8.94375 19.3447C9.02091 19.2731 9.1062 19.2158 9.16306 19.1299L11.2668 16.0177L15.0031 18.8254L11.0028 22.8007C10.4505 23.3487 10.5073 24.1939 11.1327 24.6773C11.7541 25.1644 12.7085 25.1143 13.2649 24.5627L18.2561 19.6062C18.4104 19.4522 18.5038 19.2767 18.5647 19.094C18.6013 18.9938 18.6013 18.8899 18.6094 18.7861C18.6094 18.7323 18.6338 18.6858 18.6257 18.6356C18.6135 18.2739 18.447 17.9194 18.1058 17.6687L14.666 15.083C14.9137 14.8752 15.1249 14.6281 15.2752 14.338L17.5048 10.0834L18.2195 11.7595C18.248 11.9099 18.3048 12.0532 18.4267 12.1785C18.5322 12.2931 18.6703 12.3683 18.8165 12.4185C18.8328 12.4256 18.849 12.4256 18.8693 12.4292C18.9627 12.4578 19.0561 12.4865 19.1536 12.4901C19.2673 12.5008 19.3851 12.4865 19.5029 12.4578C19.5069 12.4578 19.5069 12.4578 19.5069 12.4578C19.5394 12.4507 19.5679 12.4578 19.6003 12.4435C19.7669 12.3898 19.8928 12.2931 20.0024 12.1857L24.0595 9.1487C24.5022 8.82638 24.3195 8.26053 23.958 7.8809Z" fill="#030104"/>
<path d="M18.8248 5.71423C20.3948 5.71423 21.6676 4.5918 21.6676 3.20721C21.6676 1.82263 20.3948 0.700195 18.8248 0.700195C17.2547 0.700195 15.9819 1.82263 15.9819 3.20721C15.9819 4.5918 17.2547 5.71423 18.8248 5.71423Z" fill="#030104"/>
</svg>
