<svg width="24" height="26" fill="none" xmlns="http://www.w3.org/2000/svg"><path d="M5.443 7.113a8.496 8.496 0 011.826.188 9.02 9.02 0 011.722.549c.765.33 1.46.753 2.079 1.269a8.344 8.344 0 011.704 1.93c.287.451.53.919.724 1.405a9.6 9.6 0 01.464 1.616c.162.776.5 1.493.927 2.181.53.854 1.167 1.645 1.826 2.424.419.5.824 1.01 1.214 1.528.29.387.5.812.61 1.27a.607.607 0 01.015.23c-.01.113.056.155.162.168.339.052.681.088 1.016.156.817.169 1.542.474 1.998 1.136.07.1.129.21.184.321.011.023.015.065 0 .088-.31.516-.662 1.006-1.152 1.408a.768.768 0 01-.235.117c-.118.042-.203-.016-.236-.11-.29-.834-.927-1.441-1.648-2-.13-.1-.276-.184-.412-.275-.067-.046-.126-.042-.196.003-.312.195-.677.28-1.048.331-.714.097-1.432.068-2.142-.006-.383-.04-.758-.11-1.133-.185a10.41 10.41 0 01-2.326-.763 10.784 10.784 0 01-2.009-1.2 10.838 10.838 0 01-2.042-2.003 9.18 9.18 0 01-1.108-1.762c-.199-.425-.39-.853-.544-1.288-.144-.4-.365-1.96-.468-2.077-.037-.039-.08-.889-.106-1.252-.037-.474-.258-.867-.736-1.11-.394-.201-.832-.23-1.281-.185-.82.084-1.542.383-2.204.801-.394.247-.663.104-.78-.253-.133-.409-.1-.818-.03-1.226a3.718 3.718 0 01.607-1.503c.354-.512.828-.912 1.406-1.223.42-.227.872-.386 1.343-.497.626-.152 1.259-.21 2.01-.2zm8.766 3.521c-1.329-2.651-3.522-4.351-6.826-4.867.1-.16.191-.312.29-.464a10.69 10.69 0 013.448-3.32c.416-.243.85-.467 1.288-.675.652-.312 1.35-.526 2.068-.685.747-.168 1.505-.272 2.274-.175.644.081 1.211.308 1.513.857.107.191.177.409.202.623.066.584-.092 1.145-.386 1.664-.294.52-.637 1.02-.957 1.529-.548.882-1.111 1.762-1.637 2.657a16.743 16.743 0 00-.795 1.587c-.162.364-.269.743-.401 1.117-.015.045-.033.09-.048.136-.008.006-.022.01-.033.016z" fill="#000"/><path d="M16.549 17.05c-.294-.494-.611-.974-.876-1.477a7.675 7.675 0 01-.467-1.146c-.225-.688-.28-1.395-.232-2.112.022-.34.173-.594.408-.84.394-.406.843-.747 1.406-.951a3.716 3.716 0 011.884-.185c.044.006.092.013.136.016.195.016.82.191.927.23 1.134.416 2.098 1.035 2.849 1.895.154.176.265.383.371.585.214.402-.088.905-.515 1.083-.327.137-.68.17-1.03.17-.666 0-1.332-.027-1.998-.024-.567.007-1.119.091-1.616.357-.434.23-.71.568-.898.974-.198.431-.26.889-.29 1.35 0 .02-.008.039-.008.058a.499.499 0 00-.051.016z" fill="#000"/></svg>