<svg xmlns="http://www.w3.org/2000/svg" viewBox="0 0 20 14"><path d="M19.7 3.7h-.8c-.1 0-.1 0-.2.1l-.9.6-1.4-3c-.3-.6-.8-1-1.5-1L11.3 0H8.8L5.1.3c-.6 0-1.2.4-1.5 1l-1.4 3-.9-.6c-.1 0-.1-.1-.2-.1H.3c-.2.1-.3.2-.3.4v.1c0 .1.1.2.1.3l.8.7c.1 0 .1.1.2.1h.2l.6-.2-.1.4s0 .1-.1.1l-1 1.3c-.1.1-.2.1-.2.2-.1.2-.2.5-.1.8l.6 6c0 .1.1.2.1.2h1.7c.1 0 .2-.1.2-.2v-1.1c0-.2.2-.4.4-.3l4.2.2c.4 0 .8 0 1.2.1h2.4c.4 0 .8 0 1.2-.1l4.2-.2c.2 0 .4.1.4.3v1.1c0 .1.1.2.2.2h1.7c.1 0 .2-.1.2-.2l.6-6.1c0-.3 0-.5-.1-.8 0-.1-.1-.1-.1-.2l-1.1-1.4s0-.1-.1-.1l-.2-.2.6.2h.2c.1 0 .1 0 .1-.1l.8-.7c.2 0 .2-.1.2-.2V4c0-.2-.1-.3-.3-.3zM4.5 9C3.7 9 3 8.5 3 8s.7-1 1.5-1S6 7.5 6 8s-.7 1-1.5 1zM10 5H3.4c-.3 0-.5-.3-.4-.5l1.5-3c.1-.1.2-.2.3-.2L8.5 1c1-.1 1.9-.1 2.9 0l3.7.2c.1 0 .2.1.3.2l1.5 3c.2.3 0 .6-.3.6H10zm6.5 4c-.8 0-1.5-.5-1.5-1s.7-1 1.5-1 1.5.5 1.5 1-.7 1-1.5 1z"/></svg>