<svg version="1.1" id="Слой_1" xmlns="http://www.w3.org/2000/svg" xmlns:xlink="http://www.w3.org/1999/xlink" x="0" y="0" viewBox="0 0 48.9 48" xml:space="preserve"><style>.st0{clip-path:url(#SVGID_2_)}</style><defs><path id="SVGID_1_" d="M0 0h48.9v48H0z"/></defs><clipPath id="SVGID_2_"><use xlink:href="#SVGID_1_" overflow="visible"/></clipPath><path class="st0" d="M24.8 20.8c3.1 0 5.6-2.5 5.6-5.6s-2.5-5.6-5.6-5.6-5.6 2.5-5.6 5.6 2.5 5.6 5.6 5.6m0-9.6c2.2 0 4 1.8 4 4s-1.8 4-4 4-4-1.8-4-4 1.7-4 4-4"/><path class="st0" d="M40.2 29.6h-5.7l2.4-3.5c4.6-6.1 3.9-16.2-1.4-21.6C32.6 1.6 28.7 0 24.6 0c-4.1 0-7.9 1.6-10.8 4.5-5.4 5.4-6 15.4-1.4 21.6l2.5 3.5h-6L0 48h48.9l-8.7-18.4zm-26.6-4.5C9.4 19.6 10 10.4 14.9 5.6c2.6-2.6 6-4 9.7-4 3.7 0 7.1 1.4 9.7 4 4.8 4.8 5.4 13.9 1.3 19.5L24.6 41l-7.9-11.4-3.1-4.5zm-3.8 6.1h6.1l8.7 12.6 8.7-12.6h5.8l7.2 15.2H2.5l7.3-15.2z"/></svg>