<svg xmlns="http://www.w3.org/2000/svg" viewBox="0 0 26 18.9"><path d="M25.2 4.6h-2.4c.4 1.1.2 2.3.1 3.4-.1.5-.1 1-.1 1.4 0 .4.1.9.1 1.4.1 1.1.3 2.4-.2 3.5h2.4c.5 0 .8-.4.8-.8V5.4c.1-.4-.3-.8-.7-.8zM3.1 10.9c.1-.5.1-1 .1-1.4 0-.5-.1-1-.1-1.5-.2-1.1-.3-2.3.1-3.4H.9c-.5 0-.9.4-.9.8v8.1c0 .5.4.9.9.9h2.3c-.4-1.2-.3-2.4-.1-3.5zm14.1-8.6C15.9 1.5 14.6 0 13 0c-1.7 0-2.9 1.5-4.2 2.3-1.4.8-3.4 1.1-4.2 2.4-.8 1.3-.1 3.1-.1 4.7s-.7 3.4.1 4.7c.8 1.3 2.8 1.6 4.2 2.4 1.3.8 2.6 2.3 4.2 2.3 1.7 0 2.9-1.5 4.2-2.3 1.4-.8 3.4-1.1 4.2-2.4.8-1.3.1-3.1.1-4.7s.7-3.4-.1-4.7c-.8-1.3-2.8-1.6-4.2-2.4zM20 9.4c0 3.7-3.1 6.8-7 6.8-3.8 0-7-3-7-6.8 0-3.7 3.1-6.8 7-6.8 3.8 0 7 3.1 7 6.8z"/><path d="M13 3.9c-3.1 0-5.7 2.5-5.7 5.5s2.5 5.5 5.7 5.5c3.1 0 5.7-2.5 5.7-5.5S16.1 3.9 13 3.9z"/></svg>