<svg xmlns="http://www.w3.org/2000/svg" viewBox="0 0 17.9 24"><path d="M2.1 15l-2 6.7c-.1.4.1.7.6.6l2.4-.5h.1l1.4-5c-.9-.5-1.8-1.1-2.5-1.8zm2.3 7.1l.1.1 1.7 1.7c.3.2.7.1.8-.3l1.7-5.9c-1 0-2-.2-3-.5.1 0-1.3 4.9-1.3 4.9zm4.7-4.4l1.7 5.8c.1.4.5.5.8.2l1.7-1.7.1-.1-1.4-4.8c-.9.5-1.9.6-2.9.6zm6.8-2.8c-.8.8-1.7 1.4-2.6 1.8l1.4 5h.1l2.4.5c.4.1.7-.2.6-.6l-1.9-6.7zm1.5-6.6c0-4.6-3.8-8.3-8.5-8.3S.4 3.7.4 8.3c0 4.6 3.8 8.3 8.5 8.3s8.5-3.8 8.5-8.3zm-8.5 6.6c-3.7 0-6.8-3-6.8-6.6s3-6.6 6.8-6.6c3.7 0 6.8 3 6.8 6.6 0 3.6-3 6.6-6.8 6.6z"/><path d="M8.9 13.7c3 0 5.5-2.4 5.5-5.4 0-3-2.5-5.4-5.5-5.4S3.4 5.3 3.4 8.3c0 2.9 2.5 5.4 5.5 5.4z"/></svg>