<svg xmlns="http://www.w3.org/2000/svg" viewBox="0 0 16.9 23.9"><path d="M10.4 5.2L13.1 0H3.8l2.7 5.2h3.9zM14.8.7c-.2-.4-.5-.4-.8 0L9.6 9.2c1.6.2 3.1.9 4.2 2l2.9-5.5c.2-.4.2-1 0-1.4L14.8.7zM7.3 9.2L2.8.7c-.2-.4-.5-.4-.7 0L.2 4.3c-.2.4-.2 1 0 1.4l2.9 5.5c1.1-1.1 2.6-1.8 4.2-2zm1.1 1.1c-3.8 0-6.8 3-6.8 6.8s3 6.8 6.8 6.8 6.8-3 6.8-6.8c0-3.7-3-6.8-6.8-6.8zm0 11.7c-2.7 0-4.9-2.2-4.9-4.9s2.2-4.9 4.9-4.9 4.9 2.2 4.9 4.9S11.1 22 8.4 22z"/><path d="M8.4 12c-2.9 0-5.2 2.3-5.2 5.2 0 2.9 2.3 5.2 5.2 5.2 2.9 0 5.2-2.3 5.2-5.2 0-2.9-2.3-5.2-5.2-5.2z"/></svg>