<svg width="24" height="26" viewBox="0 0 24 26" fill="none" xmlns="http://www.w3.org/2000/svg">
<path d="M5.44337 7.11322C5.9843 7.10673 6.63193 7.16513 7.26853 7.30142C7.86465 7.42798 8.4387 7.6097 8.99066 7.84983C9.75605 8.18081 10.4515 8.60266 11.0697 9.11861C11.7468 9.68648 12.3172 10.329 12.7735 11.0494C13.0605 11.5004 13.3033 11.9677 13.4984 12.4545C13.7081 12.9801 13.848 13.5221 13.962 14.0705C14.1239 14.846 14.4625 15.5631 14.8893 16.2511C15.4192 17.1045 16.0558 17.8963 16.7145 18.6751C17.134 19.1748 17.5388 19.6843 17.9288 20.2035C18.2195 20.5896 18.4293 21.0147 18.5397 21.4723C18.5581 21.5469 18.5654 21.6248 18.5544 21.7027C18.5433 21.8162 18.6096 21.8584 18.7163 21.8714C19.0548 21.9233 19.397 21.959 19.7319 22.0271C20.5488 22.1959 21.2737 22.5009 21.73 23.1629C21.7999 23.2635 21.8588 23.3738 21.914 23.4841C21.925 23.5069 21.9287 23.549 21.914 23.5718C21.6049 24.0877 21.2516 24.5777 20.7622 24.9801C20.6997 25.032 20.6114 25.0677 20.5267 25.0969C20.409 25.1391 20.3243 25.0807 20.2912 24.9866C20.0005 24.1526 19.3639 23.5458 18.6427 22.9877C18.5139 22.8871 18.3667 22.8027 18.2306 22.7118C18.1643 22.6664 18.1054 22.6697 18.0355 22.7151C17.7227 22.9098 17.3584 22.9942 16.9868 23.0461C16.2729 23.1434 15.5554 23.1142 14.8452 23.0396C14.4625 23.0006 14.0871 22.9293 13.7118 22.8546C12.8986 22.6956 12.1258 22.4295 11.3862 22.0921C10.665 21.7611 9.99524 21.3587 9.37704 20.8914C8.59693 20.3041 7.91617 19.6356 7.33477 18.8893C6.90056 18.3344 6.51786 17.7503 6.22716 17.1272C6.02845 16.7021 5.8371 16.2738 5.68255 15.839C5.53904 15.4398 5.31825 13.879 5.21522 13.7622C5.17842 13.7232 5.13427 12.8731 5.10851 12.5096C5.07171 12.0358 4.85093 11.6432 4.37256 11.3998C3.97882 11.1986 3.54093 11.1694 3.092 11.2149C2.27141 11.2992 1.55018 11.5978 0.887819 12.0164C0.494084 12.263 0.225463 12.1202 0.107711 11.7633C-0.0247609 11.3544 0.00835632 10.9455 0.0782719 10.5367C0.170266 10.0012 0.365291 9.49828 0.685431 9.03424C1.03869 8.52154 1.51338 8.1224 2.0911 7.81089C2.5106 7.58374 2.96321 7.42473 3.43422 7.3144C4.05978 7.16189 4.6927 7.10348 5.44337 7.11322Z" fill="black"/>
<path d="M14.2088 10.634C12.8804 7.98289 10.6872 6.28253 7.38281 5.76657C7.48217 5.60757 7.57416 5.45506 7.67352 5.30254C8.32483 4.30309 9.14174 3.41721 10.1279 2.65789C10.4444 2.41452 10.7756 2.18737 11.1214 1.98294C11.5373 1.73956 11.9715 1.51566 12.4094 1.30798C13.0607 0.996465 13.7598 0.782299 14.4774 0.623295C15.2244 0.454557 15.9824 0.350717 16.7515 0.448066C17.3954 0.529191 17.9621 0.756338 18.2639 1.30474C18.3706 1.49619 18.4405 1.7136 18.4662 1.92777C18.5325 2.51187 18.3743 3.07325 18.0799 3.59244C17.7855 4.11164 17.4433 4.61136 17.1231 5.12082C16.5748 6.00346 16.0118 6.88284 15.4856 7.77846C15.1839 8.29116 14.9337 8.82983 14.6908 9.36525C14.5289 9.72868 14.4222 10.1083 14.2897 10.4815C14.275 10.5269 14.2566 10.5724 14.2419 10.6178C14.2345 10.6243 14.2198 10.6275 14.2088 10.634Z" fill="black"/>
<path d="M16.5489 17.0494C16.2545 16.5562 15.938 16.0759 15.6731 15.5729C15.4817 15.2063 15.3345 14.8169 15.2057 14.4275C14.9813 13.7395 14.9261 13.0321 14.9739 12.3149C14.996 11.9742 15.1469 11.7211 15.3824 11.4745C15.7761 11.0688 16.225 10.7281 16.788 10.5237C17.3952 10.303 18.0244 10.2349 18.6721 10.3387C18.7162 10.3452 18.7641 10.3517 18.8082 10.3549C19.0033 10.3712 19.6288 10.5464 19.7355 10.5853C20.8689 11.0007 21.833 11.6205 22.5837 12.4804C22.7382 12.6557 22.8486 12.8633 22.9553 13.0645C23.1688 13.4669 22.867 13.9699 22.4402 14.1484C22.1127 14.2847 21.7594 14.3171 21.4098 14.3171C20.7438 14.3171 20.0778 14.2912 19.4117 14.2944C18.845 14.3009 18.2931 14.3853 17.7963 14.6514C17.3621 14.8818 17.0861 15.2192 16.8984 15.6249C16.6997 16.0565 16.6372 16.514 16.6077 16.9748C16.6077 16.9943 16.6004 17.0137 16.6004 17.0332C16.5857 17.0365 16.5673 17.0429 16.5489 17.0494Z" fill="black"/>
</svg>
