<?xml version="1.0" encoding="utf-8"?>
<!-- Generator: Adobe Illustrator 19.2.0, SVG Export Plug-In . SVG Version: 6.00 Build 0)  -->
<svg version="1.1" id="Слой_1" xmlns="http://www.w3.org/2000/svg" xmlns:xlink="http://www.w3.org/1999/xlink" x="0px" y="0px"
	 viewBox="0 0 20.4 15.8" style="enable-background:new 0 0 20.4 15.8;" xml:space="preserve">
<g>
	<path d="M0,4.5h20.4V0H0L0,4.5L0,4.5z M15.8,1.9c0.6,0,1.1,0.4,1.1,1c0,0.5-0.5,1-1.1,1s-1.1-0.4-1.1-1C14.7,2.3,15.2,1.9,15.8,1.9
		z M4.6,1.9c0.6,0,1.1,0.4,1.1,1c0,0.5-0.5,1-1.1,1c-0.6,0-1.1-0.4-1.1-1C3.5,2.3,4,1.9,4.6,1.9z M0,15.8h20.4V5.7H0L0,15.8L0,15.8z
		 M13.7,7.8h3.1V9h-3.1V7.8z M13.7,10.7h3.1v1.3h-3.1V10.7L13.7,10.7z M8.6,7.8h3.1V9H8.6V7.8z M8.6,10.7h3.1v1.3H8.6V10.7L8.6,10.7
		z M3.6,7.8h3.1V9H3.6V7.8z M3.6,10.7h3.1v1.3H3.6V10.7L3.6,10.7z"/>
</g>
</svg>
