<?xml version="1.0" encoding="utf-8"?>
<!-- Generator: Adobe Illustrator 19.2.0, SVG Export Plug-In . SVG Version: 6.00 Build 0)  -->
<svg version="1.1" id="Слой_1" xmlns="http://www.w3.org/2000/svg" xmlns:xlink="http://www.w3.org/1999/xlink" x="0px" y="0px"
	 viewBox="0 0 15 14" style="enable-background:new 0 0 15 14;" xml:space="preserve">
<g>
	<path d="M14.2,6.6l-1.5-4.4l-3-0.4V0H5.2v1.8l-3,0.4L0.8,6.6C0.3,6.6,0,7,0,7.4v4.4c0,0.4,0.3,0.7,0.8,0.7v0.7
		c0,0.4,0.3,0.7,0.8,0.7h0.8C2.7,14,3,13.7,3,13.3v-0.7h9v0.7c0,0.4,0.3,0.7,0.8,0.7h0.8c0.4,0,0.8-0.3,0.8-0.7v-0.7
		c0.4,0,0.8-0.3,0.8-0.7V7.4C15,7,14.7,6.6,14.2,6.6C14.3,6.6,14.3,6.6,14.2,6.6L14.2,6.6z M2.8,2.9h9.4l1,2.9H1.8L2.8,2.9z M3,11.1
		c-0.8,0-1.5-0.7-1.5-1.5S2.2,8.1,3,8.1c0.8,0,1.5,0.7,1.5,1.5C4.5,10.4,3.8,11.1,3,11.1z M9,11.1H6v-0.7h3C9,10.3,9,11.1,9,11.1z
		 M9,9.6H6V8.8h3V9.6z M12,11.1c-0.8,0-1.5-0.7-1.5-1.5s0.7-1.5,1.5-1.5c0.8,0,1.5,0.7,1.5,1.5C13.5,10.4,12.8,11.1,12,11.1z"/>
</g>
</svg>
