<?xml version="1.0" encoding="utf-8"?>
<!-- Generator: Adobe Illustrator 19.2.0, SVG Export Plug-In . SVG Version: 6.00 Build 0)  -->
<svg version="1.1" id="Слой_1" xmlns="http://www.w3.org/2000/svg" xmlns:xlink="http://www.w3.org/1999/xlink" x="0px" y="0px"
	 viewBox="0 0 15.2 16.1" style="enable-background:new 0 0 15.2 16.1;" xml:space="preserve">
<g>
	<path d="M11.8,12.8c0.8-0.4,1.2-1.2,1.2-2.1V2.4C13.1,1.1,12,0,10.7,0H4.5C3.2,0,2.1,1.1,2.1,2.4v8.3c0,0.9,0.5,1.7,1.2,2.1L0,16.1
		h1.7l1-1h9.9l1,1h1.7C15.2,16.1,11.8,12.8,11.8,12.8z M10.3,9.4C9.8,9.4,9.3,9,9.3,8.5c0-0.5,0.4-0.9,0.9-0.9s0.9,0.4,0.9,0.9
		C11.2,9,10.8,9.4,10.3,9.4z M4.9,9.4C4.4,9.4,4,9,4,8.5C4,8,4.4,7.6,4.9,7.6c0,0,0,0,0.1,0c0.5,0,0.9,0.4,0.9,0.9
		C5.8,9,5.4,9.4,4.9,9.4z M4.5,1.2h6.2c0.7,0,1.2,0.5,1.2,1.2v3.4H3.3V2.4C3.3,1.7,3.8,1.2,4.5,1.2z M3.8,14l0.9-0.9h5.7l0.9,0.9
		H3.8z"/>
</g>
</svg>
