<?xml version="1.0" encoding="utf-8"?>
<!-- Generator: Adobe Illustrator 19.2.0, SVG Export Plug-In . SVG Version: 6.00 Build 0)  -->
<svg version="1.1" id="Capa_1" xmlns="http://www.w3.org/2000/svg" xmlns:xlink="http://www.w3.org/1999/xlink" x="0px" y="0px"
	 viewBox="0 0 548.4 548.4" style="enable-background:new 0 0 548.4 548.4;" xml:space="preserve">
<g>
	<g id="post-instagram">
		<path d="M492.4,0H55.6C25.6,0,1,24.6,1,54.6v436.8c0,30,24.6,54.6,54.6,54.6h436.8c30,0,54.6-24.6,54.6-54.6V54.6
			C547,24.6,522.4,0,492.4,0z M274,163.8c60.1,0,109.2,49.1,109.2,109.2S334.1,382.2,274,382.2S164.8,333.1,164.8,273
			S213.9,163.8,274,163.8z M69.2,491.4c-8.2,0-13.7-5.5-13.7-13.6V245.7h57.3c-2.7,8.2-2.7,19.1-2.7,27.3
			c0,90.1,73.7,163.8,163.8,163.8S437.8,363.1,437.8,273c0-8.2,0-19.1-2.7-27.3h57.3v232.1c0,8.2-5.5,13.6-13.6,13.6H69.2z
			 M492.4,122.8c0,8.2-5.5,13.7-13.6,13.7h-54.6c-8.2,0-13.6-5.5-13.6-13.7V68.2c0-8.2,5.5-13.6,13.6-13.6h54.6
			c8.2,0,13.6,5.5,13.6,13.6V122.8z"/>
	</g>
</g>
</svg>
