<?xml version="1.0" encoding="utf-8"?>
<!-- Generator: Adobe Illustrator 19.2.0, SVG Export Plug-In . SVG Version: 6.00 Build 0)  -->
<svg version="1.1" id="Слой_1" xmlns="http://www.w3.org/2000/svg" xmlns:xlink="http://www.w3.org/1999/xlink" x="0px" y="0px"
	 viewBox="0 0 24 24" style="enable-background:new 0 0 24 24;" xml:space="preserve">
<g>
	<path d="M23.5,3l-2.1-0.1c-0.4,0-1-0.4-1.2-0.8l-0.9-1.9c-0.2-0.4-0.6-0.4-0.8,0l-4,6.2c1.6,0.4,3,1.3,4.1,2.4
		c0.4,0.4,0.8,0.8,1.1,1.3l4.1-6.5C24.1,3.3,23.9,3,23.5,3L23.5,3z M9.4,6.5l-4-6.2c-0.2-0.4-0.6-0.4-0.8,0L3.7,2.2
		C3.6,2.6,3,2.9,2.6,2.9L0.5,3C0,3-0.1,3.3,0.1,3.7l4.1,6.5c0.3-0.4,0.7-0.9,1.1-1.3C6.4,7.8,7.8,6.9,9.4,6.5L9.4,6.5z"/>
	<path d="M12,7.4c-4.6,0-8.2,3.7-8.2,8.3c0,4.6,3.7,8.3,8.2,8.3c4.6,0,8.2-3.7,8.2-8.3C20.2,11.1,16.5,7.4,12,7.4z M12,22.3
		c-3.6,0-6.6-3-6.6-6.6S8.3,9,12,9s6.6,3,6.6,6.6C18.5,19.3,15.6,22.3,12,22.3z"/>
	<path d="M12,10.3c-3,0-5.4,2.4-5.4,5.4c0,3,2.4,5.4,5.4,5.4c3,0,5.4-2.4,5.4-5.4C17.3,12.7,14.9,10.3,12,10.3z"/>
</g>
</svg>
