<?xml version="1.0" encoding="utf-8"?>
<!-- Generator: Adobe Illustrator 19.2.0, SVG Export Plug-In . SVG Version: 6.00 Build 0)  -->
<svg version="1.1" id="Слой_1" xmlns="http://www.w3.org/2000/svg" xmlns:xlink="http://www.w3.org/1999/xlink" x="0px" y="0px"
	 viewBox="0 0 23.9 23.9" style="enable-background:new 0 0 23.9 23.9;" xml:space="preserve">
<g>
	<path d="M23.2,0.2h-7.1c-0.4,0-1,0.3-1.3,0.6l-2.1,2.8l2.2,3c1.4,0.5,2.7,1.3,3.8,2.3c0.5,0.5,0.9,1,1.3,1.6l3.4-4.6
		c0.3-0.4,0.5-1,0.5-1.4V0.9C23.9,0.5,23.6,0.2,23.2,0.2L23.2,0.2z M3.9,10.5c0.4-0.6,0.8-1.2,1.3-1.7C7,7,9.5,6,12,6
		c0.4,0,0.8,0,1.1,0.1L9,0.6C8.8,0.3,8.2,0,7.7,0H0.8C0.4,0,0,0.3,0,0.8v3.6c0,0.4,0.2,1.1,0.5,1.4L3.9,10.5L3.9,10.5z"/>
	<path d="M12,7.2c-4.6,0-8.3,3.7-8.3,8.3c0,4.6,3.7,8.3,8.3,8.3c4.6,0,8.3-3.7,8.3-8.3C20.3,10.9,16.6,7.2,12,7.2z M12,22.1
		c-3.6,0-6.6-2.9-6.6-6.6S8.4,9,12,9c3.6,0,6.6,2.9,6.6,6.6S15.6,22.1,12,22.1L12,22.1z"/>
	<path d="M12,10.2c-2.9,0-5.3,2.4-5.3,5.4c0,3,2.4,5.4,5.3,5.4c2.9,0,5.3-2.4,5.3-5.4C17.3,12.6,14.9,10.2,12,10.2z"/>
</g>
</svg>
