<?xml version="1.0" encoding="utf-8"?>
<!-- Generator: Adobe Illustrator 19.2.0, SVG Export Plug-In . SVG Version: 6.00 Build 0)  -->
<svg version="1.1" id="Слой_1" xmlns="http://www.w3.org/2000/svg" xmlns:xlink="http://www.w3.org/1999/xlink" x="0px" y="0px"
	 viewBox="0 0 16 22" style="enable-background:new 0 0 16 22;" xml:space="preserve">
<g>
	<path d="M10.5,4.1c1.1,0,2-0.9,2-2s-0.9-2-2-2s-2,0.9-2,2C8.5,3.2,9.4,4.1,10.5,4.1z M7,18.3l1-4.5l2.1,2V22h2v-7.7l-2.1-2l0.6-3.1
		c1.3,1.5,3.3,2.6,5.5,2.6v-2c-1.9,0-3.5-1-4.3-2.5l-1-1.6c-0.4-0.6-1-1-1.7-1c-0.3,0-0.5,0.1-0.8,0.1L3.1,7v4.8h2V8.3l1.8-0.7
		l-1.6,8.3l-4.9-1l-0.4,2L7,18.3z"/>
</g>
</svg>
