<?xml version="1.0" encoding="utf-8"?>
<!-- Generator: Adobe Illustrator 19.2.0, SVG Export Plug-In . SVG Version: 6.00 Build 0)  -->
<svg version="1.1" id="Слой_1" xmlns="http://www.w3.org/2000/svg" xmlns:xlink="http://www.w3.org/1999/xlink" x="0px" y="0px"
	 viewBox="0 0 22 12" style="enable-background:new 0 0 22 12;" xml:space="preserve">
<path d="M22,2c0,1.1-0.9,2-2,2c-0.2,0-0.3,0-0.5-0.1l-3.6,3.6C15.9,7.7,16,7.8,16,8c0,1.1-0.9,2-2,2s-2-0.9-2-2c0-0.2,0-0.4,0.1-0.5
	L9.6,4.9C9.4,5,9.2,5,9,5S8.6,5,8.5,4.9L4,9.5C4,9.6,4,9.8,4,10c0,1.1-0.9,2-2,2s-2-0.9-2-2s0.9-2,2-2c0.2,0,0.3,0,0.5,0.1l4.6-4.6
	C7,3.4,7,3.2,7,3c0-1.1,0.9-2,2-2s2,0.9,2,2c0,0.2,0,0.4-0.1,0.5l2.6,2.6C13.6,6,13.8,6,14,6s0.4,0,0.5,0.1L18,2.5
	c0-0.2,0-0.3,0-0.5c0-1.1,0.9-2,2-2S22,0.9,22,2z"/>
</svg>
