<?xml version="1.0" encoding="utf-8"?>
<!-- Generator: Adobe Illustrator 19.2.0, SVG Export Plug-In . SVG Version: 6.00 Build 0)  -->
<svg version="1.1" id="Слой_1" xmlns="http://www.w3.org/2000/svg" xmlns:xlink="http://www.w3.org/1999/xlink" x="0px" y="0px"
	 viewBox="0 0 25 24" style="enable-background:new 0 0 25 24;" xml:space="preserve">
<path d="M24.6,3.3l-5.5-3.2C19,0,18.9,0,18.7,0H6.2C6.1,0,6,0,5.9,0.1L0.4,3.3C0.1,3.5-0.1,3.9,0,4.2l1.6,5.6
	c0.1,0.4,0.5,0.7,0.9,0.6l2.2-0.6v13.3C4.7,23.6,5,24,5.5,24h14c0.4,0,0.8-0.4,0.8-0.8V9.8l2.1,0.6c0.4,0.1,0.8-0.1,0.9-0.6l1.6-5.6
	C25,3.9,24.9,3.5,24.6,3.3z M12.5,4.8c-1.7,0-3.1-1.4-3.1-3.2h6.2C15.6,3.4,14.2,4.8,12.5,4.8L12.5,4.8z"/>
</svg>
