<svg width="17" height="17" viewBox="0 0 17 17" fill="none" xmlns="http://www.w3.org/2000/svg">
<path d="M9.68532 7.49216H8.18878V5.97481C8.18878 5.77798 8.02767 5.61694 7.83076 5.61694C7.63384 5.61694 7.47273 5.77798 7.47273 5.97481V7.49216H5.9547C5.75779 7.49216 5.59668 7.6532 5.59668 7.85002C5.59668 8.04685 5.75779 8.20789 5.9547 8.20789H7.47273V9.70734C7.47273 9.90417 7.63384 10.0652 7.83076 10.0652C8.02767 10.0652 8.18878 9.90417 8.18878 9.70734V8.20789H9.68532C9.88224 8.20789 10.0433 8.04685 10.0433 7.85002C10.0433 7.6532 9.88582 7.49216 9.68532 7.49216Z" fill="#979797"/>
<path d="M11.651 3.98516C9.53152 1.87018 6.08374 1.87018 3.96781 3.98516C1.85188 6.10015 1.85188 9.54639 3.96781 11.665C6.0909 13.7799 9.52794 13.7799 11.651 11.665C13.767 9.54997 13.767 6.10373 11.651 3.98516ZM11.1426 11.1604C9.30239 12.9962 6.30929 12.9998 4.47262 11.1604C2.63237 9.32094 2.63237 6.32918 4.47262 4.49333C6.31645 2.65748 9.29881 2.65748 11.1426 4.49333C12.9829 6.32918 12.9829 9.32094 11.1426 11.1604Z" fill="#979797"/>
<path d="M16.5635 14.7103C16.5599 14.7067 16.5563 14.7031 16.5527 14.6996L13.5095 11.6506C15.6219 8.50492 14.7841 4.23916 11.637 2.12776C8.48998 0.0163516 4.22232 0.853757 2.10997 3.99939C-0.00238234 7.14503 0.835397 11.4108 3.98244 13.5222C4.97775 14.1914 6.13059 14.5851 7.3264 14.6709C7.48751 14.6817 7.64862 14.6888 7.80615 14.6888C9.17023 14.6888 10.5021 14.2844 11.6334 13.5258L14.6767 16.5676C15.1922 17.0901 16.03 17.0937 16.5491 16.5819C17.0719 16.0666 17.0754 15.2292 16.5635 14.7103ZM11.4616 12.7707C8.72628 14.7926 4.87392 14.2129 2.85466 11.4824C0.835397 8.75184 1.41182 4.89763 4.14713 2.87927C6.88245 0.860914 10.7348 1.43708 12.7541 4.17117C14.3616 6.34699 14.3616 9.31727 12.7469 11.4931C12.3853 11.9762 11.9521 12.4092 11.4616 12.7707ZM16.0479 16.063C15.9333 16.1776 15.7794 16.242 15.6147 16.242C15.4536 16.242 15.2996 16.1776 15.1851 16.063L12.2134 13.0928C12.3674 12.9639 12.5178 12.8279 12.6646 12.6812C12.8114 12.5345 12.9474 12.3842 13.0763 12.2303L16.0479 15.2006C16.2842 15.4368 16.2842 15.8233 16.0479 16.063Z" fill="#979797"/>
</svg>
