<svg width="60" height="60" viewBox="0 0 60 60" fill="none" xmlns="http://www.w3.org/2000/svg">
<circle cx="30" cy="30" r="30" fill="#353535" fill-opacity="0.5"/>
<g clip-path="url(#clip0)">
<path d="M31.938 27.2729H28.7826V24.0723C28.7826 23.6571 28.443 23.3174 28.0278 23.3174C27.6126 23.3174 27.2729 23.6571 27.2729 24.0723V27.2729H24.0723C23.6571 27.2729 23.3174 27.6126 23.3174 28.0278C23.3174 28.443 23.6571 28.7827 24.0723 28.7827H27.2729V31.9456C27.2729 32.3607 27.6126 32.7004 28.0278 32.7004C28.443 32.7004 28.7826 32.3607 28.7826 31.9456V28.7827H31.938C32.3532 28.7827 32.6929 28.443 32.6929 28.0278C32.6929 27.6126 32.3607 27.2729 31.938 27.2729Z" fill="#FFCC07"/>
<path d="M36.0826 19.8753C31.6138 15.414 24.3444 15.414 19.8831 19.8753C15.4218 24.3366 15.4218 31.606 19.8831 36.0748C24.3595 40.5361 31.6062 40.5361 36.0826 36.0748C40.5439 31.6135 40.5439 24.3441 36.0826 19.8753ZM35.0107 35.0104C31.1307 38.8829 24.8199 38.8905 20.9474 35.0104C17.0674 31.1304 17.0674 24.8197 20.9474 20.9472C24.835 17.0747 31.1231 17.0747 35.0107 20.9472C38.8907 24.8197 38.8907 31.1304 35.0107 35.0104Z" fill="#FFCC07"/>
<path d="M46.4391 42.4989C46.4316 42.4914 46.424 42.4838 46.4165 42.4763L40.0001 36.0448C44.4538 29.4095 42.6874 20.4114 36.0521 15.9577C29.4168 11.5039 20.4187 13.2703 15.965 19.9056C11.5112 26.541 13.2776 35.539 19.913 39.9928C22.0115 41.4044 24.4422 42.2347 26.9635 42.4159C27.3031 42.4385 27.6428 42.4536 27.975 42.4536C30.851 42.4536 33.6592 41.6006 36.0446 40.0003L42.461 46.4167C43.548 47.5188 45.3144 47.5264 46.4089 46.4469C47.5111 45.3599 47.5186 43.5935 46.4391 42.4989ZM35.6822 38.4075C29.915 42.6726 21.7926 41.4497 17.5351 35.69C13.2776 29.9303 14.493 21.8004 20.2602 17.5429C26.0274 13.2854 34.1498 14.5008 38.4073 20.268C41.7967 24.8576 41.7967 31.123 38.3922 35.7126C37.6298 36.7317 36.7164 37.6451 35.6822 38.4075ZM45.3521 45.3523C45.1106 45.5939 44.786 45.7298 44.4387 45.7298C44.099 45.7298 43.7744 45.5939 43.5329 45.3523L37.2674 39.0869C37.592 38.8152 37.9091 38.5283 38.2186 38.2188C38.5281 37.9093 38.8149 37.5923 39.0867 37.2677L45.3521 43.5331C45.8503 44.0313 45.8503 44.8466 45.3521 45.3523Z" fill="#FFCC07"/>
</g>
<defs>
<clipPath id="clip0">
<rect width="33.75" height="33.75" fill="white" transform="translate(13.5 13.5)"/>
</clipPath>
</defs>
</svg>
