<svg width="101" height="25" fill="none" xmlns="http://www.w3.org/2000/svg"><path d="M21.509 3.705a3.605 3.605 0 00-1.068-2.562 3.644 3.644 0 00-5.135.004l-.374.374-.371-.367.002-.002a3.642 3.642 0 00-5.137.009 3.623 3.623 0 00.009 5.126l.002-.002 3.778 3.752 5.494-5.5a1.171 1.171 0 00-.003-1.66 1.18 1.18 0 00-1.663.003l-.371.371-.559-.556.372-.371a1.97 1.97 0 012.777-.004 1.96 1.96 0 01.005 2.773l.004.002-5.495 5.5.307.305 5.493-5.5c.451-.454.7-1.054.7-1.695 0-.64-.25-1.24-.704-1.692a2.41 2.41 0 00-3.394.006l-.372.372-.567-.563.372-.371a3.205 3.205 0 014.521-.007 3.19 3.19 0 01.007 4.512l-5.494 5.5.307.305 5.494-5.5.002.002a3.585 3.585 0 001.06-2.564zm-4.157-.516a.74.74 0 011.05 1.043l-3.459 3.46-3.469-3.45a.74.74 0 011.045-1.048l2.413 2.4.307-.308-2.415-2.402a1.173 1.173 0 00-1.655 1.666l3.47 3.452-.556.558-3.47-3.452a1.96 1.96 0 01-.004-2.773 1.97 1.97 0 012.778-.004l.002-.003 2.415 2.402.307-.307-2.418-2.404-.002.003a2.407 2.407 0 00-3.391.006 2.386 2.386 0 00-.7 1.695c0 .64.25 1.24.704 1.692l3.47 3.452-.563.563-3.467-3.452-.003.002a3.19 3.19 0 01-.006-4.512 3.205 3.205 0 014.521-.007l-.002.002 2.42 2.404.307-.306v-.003l.371-.369zM4.432.936L1.144.94l.016 9.946 3.287-.005L4.432.936zm.377 12.979c1.294-.002 2.675.294 3.658.819l.005 2.842c-.968-.61-2.193-.963-3.305-.947-.67 0-.883.171-.88.442.001 1.037 4.84.56 4.845 4.012.005 2.545-1.888 3.228-4.18 3.232-1.509.002-2.863-.323-3.96-.932L.99 20.414c1.239.807 2.564 1.161 3.632 1.159.87-.002 1.123-.158 1.123-.485-.002-1.023-4.842-.616-4.846-4.083-.002-2.089 1.746-3.087 3.91-3.09zm14.771.205l.01 6.08c.004 3.07-2.258 4.095-4.62 4.1-2.364.004-4.628-1.017-4.632-4.084l-.01-6.083 3.29-.004.009 5.925c.002.923.485 1.305 1.341 1.305.867-.002 1.352-.385 1.35-1.31l-.009-5.924 3.272-.005zm6.105-.01c2.534-.005 4.47.873 4.475 3.671.005 2.785-1.93 3.668-4.463 3.672l-1.068.002.005 2.6-3.29.005-.015-9.946 4.356-.005zm-.024 2.7l-1.039.002.003 1.946 1.038-.003c.754-.002 1.239-.287 1.237-.967 0-.696-.485-.979-1.239-.979zm13.182-2.72l.004 2.586-4.257.007.003 1.15 3.743-.007.004 2.415-3.743.007v1.178l4.344-.006.004 2.613-7.63.013-.016-9.945 7.544-.012zm1.703 9.94l-.015-9.945 4.626-.007c2.122-.002 4.243.79 4.248 3.503.002 1.548-.708 2.473-1.704 2.971l2.566 3.463-3.616.007-2.055-2.938-.77.002.005 2.94-3.285.005zm3.279-5.402l1.267-.002c.64 0 1.01-.385 1.01-.938 0-.554-.371-.937-1.012-.937l-1.268.003.003 1.874zm10.884-4.793c1.297-.002 2.678.294 3.66.819l.005 2.842c-.97-.61-2.193-.963-3.305-.947-.67 0-.883.171-.88.442.002 1.037 4.841.56 4.846 4.012.004 2.545-1.888 3.227-4.181 3.232-1.508.002-2.863-.323-3.96-.932l-.004-2.969c1.241.807 2.565 1.16 3.632 1.159.868-.002 1.126-.158 1.123-.485-.002-1.023-4.841-.618-4.846-4.083-.002-2.089 1.748-3.085 3.91-3.09zm10.052.214c2.536-.005 4.47.874 4.475 3.672.005 2.784-1.93 3.667-4.463 3.671l-1.068.003.005 2.6-3.288.004-.015-9.946 4.355-.004zm-.024 2.698l-1.039.002.003 1.946 1.038-.002c.754-.003 1.239-.287 1.237-.968 0-.696-.485-.978-1.239-.978zm10.708-2.943c3.588-.007 5.398 2.335 5.403 5.191.004 2.856-1.8 5.202-5.387 5.209-3.587.006-5.4-2.335-5.404-5.191-.003-2.856 1.801-5.204 5.388-5.209zm.005 2.97c-1.281.002-2.02.869-2.017 2.232.002 1.363.742 2.229 2.026 2.226 1.28-.002 2.02-.87 2.017-2.232-.005-1.364-.745-2.229-2.026-2.227zm6.772 7.192l-.016-9.946 4.626-.007c2.122-.004 4.244.79 4.248 3.503.002 1.548-.707 2.473-1.704 2.971l2.567 3.463-3.616.007-2.055-2.938-.77.002.005 2.94-3.285.005zm3.28-5.405l1.268-.002c.64 0 1.01-.385 1.01-.939 0-.553-.372-.936-1.012-.936l-1.268.002.002 1.875zm15.193-4.57l.004 2.87-2.678.004.011 7.076-3.273.005-.011-7.075-2.676.003-.004-2.87 8.627-.013z" fill="#000"/></svg>