<svg width="220" height="110" fill="none" xmlns="http://www.w3.org/2000/svg"><g clip-path="url(#clip0)"><path d="M110.827 105.274h.82c.624-1.672.943-3.281.943-6.748v-.236h7.067v6.984h1.049l-.293 4.087h-2.175v-1.845h-4.931l-.174 1.845h-2.306v-4.087zm6.256 0v-4.746h-2.013v.093c0 2.044-.306 3.386-.731 4.653h2.744zm4.773-6.988h7.462v2.175H124.4v1.397h4.455v2.019H124.4v1.461h4.986v2.174h-7.53v-9.226zm8.975 0h4.76c1.168 0 1.988.291 2.532.832.369.367.598.857.598 1.516 0 1.068-.611 1.702-1.431 2.056 1.126.368 1.843 1.001 1.843 2.28 0 1.584-1.299 2.542-3.512 2.542h-4.786v-9.226h-.004zm4.123 3.678c.782 0 1.219-.266 1.219-.832 0-.502-.399-.79-1.168-.79h-1.669v1.622h1.618zm.37 3.492c.781 0 1.232-.304 1.232-.87 0-.502-.4-.832-1.258-.832h-1.962v1.702h1.988zm5.117-7.17h7.462v2.175h-4.918v1.397h4.455v2.019h-4.455v1.461h4.986v2.174h-7.53v-9.226zm8.647 9.146l.175-1.963c.118.025.475.055.598.055.731 0 1.419-.368 1.419-5.958v-1.28h7.131v9.226h-2.574v-6.984h-2.162v.355c0 5.629-1.244 6.76-3.049 6.76-.675 0-1.338-.143-1.538-.211zm10.779-4.531c0-2.647 2.149-4.796 5.012-4.796 2.862 0 4.986 2.119 4.986 4.796 0 2.648-2.149 4.797-5.012 4.797-2.867 0-4.986-2.124-4.986-4.797zm7.369 0c0-1.33-.969-2.491-2.387-2.491-1.406 0-2.349 1.132-2.349 2.491 0 1.33.969 2.492 2.374 2.492 1.423 0 2.362-1.136 2.362-2.492zm4.098-4.615h8.311v9.226h-2.573v-6.984h-3.169v6.984h-2.573v-9.226h.004zm10.087 0h2.718l2.212 3.572 2.213-3.572h2.718v9.226h-2.556v-5.299l-2.375 3.61h-.055l-2.361-3.585v5.274h-2.518v-9.226h.004zm11.641 0h7.461v2.175h-4.918v1.397h4.456v2.019h-4.456v1.461h4.986v2.174h-7.529v-9.226zm8.974 0h2.573v3.454h3.3v-3.454h2.57v9.226h-2.57v-3.504h-3.3v3.504h-2.573v-9.226zm12.485 2.242h-2.786V98.29h8.138v2.238h-2.782v6.984h-2.574v-6.984h.004zm-27.18-46.84c.089-.042.123-.076.157-.076 6.447.05 12.945-.747 19.311.562 6.472 1.33 11.089 5.7 12.511 12.608.952 4.594.731 9.078-1.074 13.44-1.822 4.396-5.062 7.31-9.496 8.66-2.379.727-4.935 1.077-7.424 1.183-4.37.186-8.762.059-13.144.059-.255 0-.514-.034-.846-.063V53.688h.005zm7.704 18.093c0 3.454.004 6.9 0 10.35-.005.6-.022 1.11.836 1.085 2.374-.068 4.765.072 7.123-.152 3.491-.334 6.336-1.909 7.801-5.312 1.317-3.049 1.402-6.253.748-9.48-.909-4.51-3.98-7.313-8.515-7.668-2.29-.177-4.6-.1-6.893-.21-.922-.047-1.122.308-1.109 1.16.03 3.408.009 6.82.009 10.227zM143.75 90.124c-3.062 0-5.827.012-8.596-.026-.264-.004-.595-.278-.778-.52-2.938-3.812-5.835-7.659-8.804-11.446-.331-.418-1.006-.73-1.545-.782-1.215-.113-4.698-.054-4.698-.054s-.046.295-.034 1.106c.039 3.412.013 6.823.013 10.235v1.41h-7.7V53.629c.306-.033.557-.084.812-.084 5.313.008 10.621-.021 15.93.063 2.663.043 5.19.76 7.513 2.137 3.147 1.87 4.659 4.767 4.909 8.323a16.646 16.646 0 01-.365 4.788c-.756 3.395-2.994 5.595-6.094 6.954-.395.178-.794.36-1.313.591 3.572 4.552 7.072 9.024 10.75 13.724zm-24.438-19.377c2.506 0 4.867.008 7.237-.009.625 0 1.266.004 1.882-.118 3.087-.613 4.646-2.466 4.518-5.312-.123-2.724-1.864-4.518-4.956-4.755-2.629-.198-5.266-.101-7.908-.152-.586-.017-.785.228-.777.79.017 1.427.004 2.854.004 4.277v5.278zm64.427 19.376c-2.586 0-5.037.026-7.483-.03-.272-.008-.65-.438-.781-.76a116.552 116.552 0 01-1.967-5.125c-.233-.647-.556-.92-1.287-.92-4.901.033-9.806.033-14.711.008-.752-.009-1.113.236-1.372.966-.624 1.757-1.351 3.484-2.081 5.198-.119.27-.467.63-.714.63-2.446.05-4.892.03-7.512.03.84-2.116 1.601-4.084 2.399-6.047 3.997-9.869 8.014-19.732 11.994-29.609.28-.7.628-.962 1.376-.946 2.191.047 4.387.021 6.578.009.561-.004.935.088 1.189.726a18171.67 18171.67 0 0014.168 35.136c.06.177.098.359.204.734zM164.81 61.5l-5.793 15.243h11.629A19238.98 19238.98 0 01164.81 61.5zM44.162 90.14h-7.725V53.647c2.378 0 4.706-.017 7.029.03.242.003.53.358.709.616 4.816 6.79 9.624 13.596 14.431 20.394.578.815 1.168 1.618 1.89 2.614V53.692h7.653v36.504c-2.34 0-4.667.02-6.99-.034-.268-.004-.578-.414-.782-.701-5.16-7.288-10.307-14.58-15.463-21.868-.178-.254-.395-.486-.752-.908V90.14zM25.994 53.688h-7.65v36.415h7.65V53.688zm77.664 16.455c-.004-.257-.059-.718-.539-.718-.2-.008-.395-.004-.59-.008v-.009h-.965c-1.72-.02-3.456-.017-5.266-.017v.017h-6.243v7.069h6.23c0 1.837.009 3.67.047 5.35-.034 1.972-.751 1.976-1.983 2.208-.909.165-1.941.173-3.432.05-3.155-.26-6.052-1.274-8.2-3.787-1.899-2.208-2.46-4.885-2.642-7.727-.336-5.43 2.629-9.974 7.746-11.587 4.893-1.54 9.577-.827 14.092 1.462.246.122.501.223.921.41 0-2.159-.038-4.156.022-6.145.025-.831-.221-1.254-1.007-1.55-4.965-1.878-10.027-2.524-15.25-1.359-3.853.861-7.297 2.534-9.943 5.565-4.396 5.042-5.194 11.05-3.98 17.334 1.38 7.178 5.942 11.54 12.869 13.419 5.933 1.609 13.178.937 17.383-1.318.323-.122.718-.603.718-.916.046-5.531.046-12.211.012-17.743z" fill="#000"/><path d="M8.526 99.865V40.78l51.97-27.713V43.93h7.653V.357L.877 36.224v71.25h67.272v-7.609H8.526z" fill="#FFC42C"/></g><defs><clipPath id="clip0"><path fill="#fff" transform="translate(.877 .357)" d="M0 0h219v109H0z"/></clipPath></defs></svg>