<svg width="97" height="34" fill="none" xmlns="http://www.w3.org/2000/svg"><path d="M46.474 15.46c0-.29-.026-.579-.08-.864a1.776 1.776 0 00-.343-.766c-.174-.228-.42-.416-.748-.567-.323-.15-.758-.242-1.298-.273-.304 0-.662.011-1.079.03a7.747 7.747 0 00-1.37.213v4.349h2.237c.359 0 .694-.05 1.006-.146.312-.097.593-.24.836-.428.242-.189.439-.412.585-.67.15-.262.231-.555.255-.879zm-2.369-3.884c1.233.077 2.15.458 2.75 1.152.602.693.902 1.63.902 2.808 0 .486-.104.936-.316 1.356a3.569 3.569 0 01-.859 1.094 4.097 4.097 0 01-1.267.74 4.355 4.355 0 01-1.518.266H41.56v2.874h-1.43v-8.587a6.61 6.61 0 01-.52-.05 2.07 2.07 0 01-.485-.131v-1.364c.216.054.44.092.674.112a6.503 6.503 0 001.46-.016c.266-.03.532-.065.806-.096.28-.054.558-.096.828-.123a8.84 8.84 0 01.874-.039h.34v.004zm9.461 3.324c-.335 0-.659.043-.967.131a2.69 2.69 0 00-.828.39 2.144 2.144 0 00-.601.658c-.158.266-.25.582-.285.952l.874-.035c.185.023.409.035.675.043.265.003.52.007.77.007.216 0 .431-.011.647-.042.216-.027.409-.081.578-.162.17-.08.304-.192.404-.335.105-.139.155-.32.155-.536 0-.389-.147-.666-.44-.828a1.966 1.966 0 00-.982-.242zm2.627 6.118c-.377.27-.82.512-1.329.724-.508.212-1.086.316-1.737.316-.528 0-1.02-.077-1.468-.235a3.426 3.426 0 01-1.167-.674 3.228 3.228 0 01-.794-1.09 3.79 3.79 0 01-.33-1.476v-.08a4.896 4.896 0 01-.529.038 1.804 1.804 0 00-.527.104V17.17a2.51 2.51 0 01.535-.097c.173-.011.35-.027.535-.05.031-.52.15-.994.359-1.429.204-.431.481-.805.828-1.121a3.755 3.755 0 011.233-.732 4.584 4.584 0 011.575-.258 3.45 3.45 0 011.672.404c.378.216.694.513.94.894.25.378.374.805.374 1.283 0 .497-.17.963-.505 1.395-.346.454-.759.747-1.24.886a5.784 5.784 0 01-1.568.204c-.247 0-.54-.012-.867-.035-.331-.02-.632-.03-.901-.03-.077 0-.147.003-.212.007a7.082 7.082 0 00-.177.023v.08c0 .64.212 1.122.64 1.453.427.331.958.493 1.598.493a4.352 4.352 0 001.68-.308c.242-.096.477-.212.704-.339.228-.13.455-.27.682-.424v1.549h-.004zm9.023-7.27v8.117h-1.46v-5.682l-4.334 5.698h-1.364v-8.133h1.464v5.683l4.33-5.683h1.364zm9.411-.03v8.163h-1.49v-3.46h-4.173v3.46h-1.475v-8.163h1.475v3.197h4.172v-3.197h1.49zm9.114 6.996c.335 0 .655-.07.97-.212a2.61 2.61 0 00.818-.566c.23-.24.416-.517.558-.836a2.51 2.51 0 00.212-1.014 2.62 2.62 0 00-.177-.94 2.828 2.828 0 00-.501-.843 2.455 2.455 0 00-.782-.601 2.3 2.3 0 00-1.025-.227c-.238 0-.45.03-.64.096-.188.065-.38.135-.573.212v4.673c.327.17.709.258 1.14.258zm-6.225-2.631c0 .346.065.678.192.99a2.613 2.613 0 001.344 1.402c.313.146.648.22 1.002.22.397 0 .77-.074 1.114-.228v-4.703a2.481 2.481 0 00-1.164-.293c-.335 0-.65.07-.951.212a2.607 2.607 0 00-.794.57 2.747 2.747 0 00-.543.836c-.13.316-.2.647-.2.994zm7.492-3.845a3.806 3.806 0 011.954 1.452c.239.34.423.713.558 1.118.135.404.204.82.204 1.24 0 .54-.1 1.06-.3 1.549a4.22 4.22 0 01-.836 1.313 4.02 4.02 0 01-1.267.917 3.675 3.675 0 01-1.576.339 3.3 3.3 0 01-.593-.05 4.53 4.53 0 01-.559-.131v2.693h-1.43V22a3.99 3.99 0 01-.542.124 3.963 3.963 0 01-.559.038 3.667 3.667 0 01-1.518-.323 4.164 4.164 0 01-1.267-.883 4.33 4.33 0 01-.867-1.313 4.067 4.067 0 01.404-3.91 4.53 4.53 0 01.852-.91 3.623 3.623 0 011.129-.608c.358-.12.724-.177 1.102-.177.204 0 .412.015.616.05.204.034.42.077.647.13v-2.091h1.43l-.008 2.111c.389-.12.785-.177 1.186-.177.374 0 .786.058 1.24.177zm7.455.744c-.39 0-.76.073-1.102.22a2.844 2.844 0 00-1.51 1.467c-.15.335-.227.697-.227 1.086 0 .39.077.751.227 1.087.15.335.354.631.609.886.254.254.554.454.901.6.347.147.713.22 1.102.22a2.808 2.808 0 002.589-1.707c.146-.335.22-.697.22-1.086a2.724 2.724 0 00-.82-1.96 2.92 2.92 0 00-.895-.594 2.735 2.735 0 00-1.094-.22zm0 0c-.39 0-.76.073-1.102.22a2.844 2.844 0 00-1.51 1.467c-.15.335-.227.697-.227 1.086 0 .39.077.751.227 1.087.15.335.354.631.609.886.254.254.554.454.901.6.347.147.713.22 1.102.22a2.808 2.808 0 002.589-1.707c.146-.335.22-.697.22-1.086a2.724 2.724 0 00-.82-1.96 2.92 2.92 0 00-.895-.594 2.735 2.735 0 00-1.094-.22zm0 7.06a4.173 4.173 0 01-1.68-.342 4.47 4.47 0 01-1.379-.925 4.293 4.293 0 01-.932-1.363 4.085 4.085 0 01-.34-1.657c0-.593.112-1.152.34-1.672a4.364 4.364 0 012.312-2.288 4.168 4.168 0 011.679-.339c.585 0 1.136.112 1.664.34a4.39 4.39 0 011.371.924c.39.389.698.843.925 1.363.227.52.343 1.075.343 1.672 0 .586-.112 1.137-.343 1.657a4.368 4.368 0 01-2.296 2.288 4.167 4.167 0 01-1.664.343zm0 0a4.173 4.173 0 01-1.68-.342 4.47 4.47 0 01-1.379-.925 4.293 4.293 0 01-.932-1.363 4.085 4.085 0 01-.34-1.657c0-.593.112-1.152.34-1.672a4.364 4.364 0 012.312-2.288 4.168 4.168 0 011.679-.339c.585 0 1.136.112 1.664.34a4.39 4.39 0 011.371.924c.39.389.698.843.925 1.363.227.52.343 1.075.343 1.672 0 .586-.112 1.137-.343 1.657a4.368 4.368 0 01-2.296 2.288 4.167 4.167 0 01-1.664.343z" fill="#000"/><path d="M17.293 15.49c.023 0 .05-.004.073-.004.316-.015.628-.058.928-.123.081-.02.166-.038.247-.062a5.42 5.42 0 00.828-.312 5.02 5.02 0 002.416-2.469c-.016.008-.031.012-.047.02-.188.08-.37.173-.539.277-.015.011-.03.019-.046.03a4.369 4.369 0 00-.5.363 4.15 4.15 0 01-.606.643 3.96 3.96 0 01-1.22.713l-.101.038.004-.004c-.058.02-.112.039-.174.058l-.023.008a4.59 4.59 0 01-1.001.173l-.062.004c-.13.008-.277.02-.416.008h-.004l.012.054a6.475 6.475 0 01.142.593c.031-.004.062-.004.089-.008z" fill="#95BC4F"/><path d="M16.076 14.67c.092.258.17.527.22.793l.022.15.012.077c.05.328.077.632.08.933v.077c.293-.043.56-.062.814-.066 0-.08-.008-.162-.012-.246-.004-.054-.004-.108-.008-.162a6.947 6.947 0 00-.054-.455l-.007-.061-.004-.02c-.008-.05-.012-.1-.023-.146a6.242 6.242 0 00-4.407-4.88c.011.11.023.226.042.338l.012.092c.027.155.061.305.1.455 1.556.582 2.693 1.684 3.213 3.12z" fill="#F56763"/><path d="M19.108 16.596c0-.05.003-.096.007-.147v-.023c-.092.031-.185.054-.273.077a.387.387 0 00-.062.02c-.108.026-.216.053-.32.073 0 .03.004.061.004.092 0 .027.004.054.004.077.012.32.05.632.12.929.019.08.038.165.061.246.077.278.181.559.308.828a5.019 5.019 0 002.47 2.439l-.02-.042a3.832 3.832 0 00-.27-.532c-.01-.02-.023-.035-.03-.05a4.144 4.144 0 00-.355-.497 4.114 4.114 0 01-.69-.655 4.077 4.077 0 01-.685-1.202l-.035-.1h.004l-.054-.173-.007-.023a4.938 4.938 0 01-.17-1.006l-.004-.07c0-.076-.003-.169-.003-.261z" fill="#24BBEB"/><path d="M13.54 13.155a4.528 4.528 0 01-.623-1.148l-.035-.1.004.004c-.03-.092-.066-.189-.092-.285l-.008-.023a4.925 4.925 0 01-.174-.998l-.003-.065a4.699 4.699 0 011.148-3.39c.704-.817 1.63-1.341 2.538-1.433a17.069 17.069 0 011.722-.09c.605 0 1.06.036 1.283.055-.262-.2-.986-.647-2.18-.647-.15 0-.305.007-.459.019-1.914.173-4.607 1.888-4.607 5.162 0 .05.004.096.008.143 0 .03.003.061.003.092.012.343.043.64.093.91.023.118.05.238.08.35l.008.027c.074.292.17.566.282.824a4.812 4.812 0 002.55 2.527c-.004-.015-.012-.027-.015-.042a4.494 4.494 0 00-.209-.459c-.007-.015-.019-.03-.026-.046a3.991 3.991 0 00-.282-.435c-.004-.004-.004-.008-.007-.008a4.08 4.08 0 01-.998-.944z" fill="#95BC4F"/><path d="M20.595 13.136a4.43 4.43 0 011.267-.751l.104-.043-.004.008c.096-.034.189-.07.29-.1l.018-.008h.004c.34-.1.678-.162 1.01-.192l.065-.008a4.692 4.692 0 013.46 1.144c.816.705 1.34 1.63 1.433 2.539.15 1.444.073 2.604.034 3.005.224-.297.759-1.168.628-2.64-.173-1.91-1.888-4.607-5.162-4.607-.07 0-.135.004-.2.008-.035 0-.07.004-.1.004-.34.015-.64.05-.913.104a6.19 6.19 0 00-.382.092 5.46 5.46 0 00-.84.3 4.75 4.75 0 00-2.407 2.44c.042-.02.084-.035.127-.054.042-.02.084-.035.127-.058.061-.031.123-.066.185-.097.035-.019.073-.038.112-.061.065-.039.127-.081.192-.123a.975.975 0 01.089-.058c.088-.066.177-.131.262-.205.165-.223.37-.443.6-.639z" fill="#24BBEB"/><path d="M13.865 20.274a4.514 4.514 0 01-1.225.698l-.1.038.003-.008a3.614 3.614 0 01-.288.093l-.024.008c-.331.092-.67.154-1.005.18l-.066.005v-.004a5.34 5.34 0 01-.346.015 4.699 4.699 0 01-3.059-1.16c-.817-.704-1.34-1.629-1.433-2.538a15.911 15.911 0 01-.035-3.005c-.223.297-.759 1.167-.628 2.639.174 1.915 1.888 4.607 5.162 4.607l.15-.003c.031-.004.066-.004.097-.004.343-.012.64-.043.913-.093.127-.023.25-.058.374-.088.3-.078.581-.174.843-.29a4.798 4.798 0 002.466-2.465c-.016.004-.027.012-.043.016a3.91 3.91 0 00-.485.227c-.015.008-.03.02-.046.027a4.058 4.058 0 00-.455.304c-.004 0-.004.004-.008.004a4.135 4.135 0 01-.762.797zm-3.059-9.884c-.039-.004-.073-.004-.112-.004-2.369 0-4.141.377-5.312.628-.582.123-.956.212-1.699.242-.74.027-2.01-.115-3.078-.235 1.136.902 1.795.894 2.962.936.185 0 .359-.003.513-.015.485-.03 1.078-.146 1.764-.281 1.268-.247 2.862-.563 4.727-.528.112 0 .223.008.335.016 0-.016 0-.027-.004-.043a7.983 7.983 0 01-.054-.682c0-.011-.004-.023-.004-.034h-.038z" fill="#F56763"/><path d="M12.073 12.485c-.112-.28-.2-.539-.266-.797-.034-.131-.057-.266-.08-.378a6.143 6.143 0 01-.1-.901l-.005-.089c-.003-.069-.007-.138-.007-.204 0-1.36.508-2.693 1.425-3.76.867-1.001 2.003-1.645 3.117-1.76a20.42 20.42 0 012.118-.112c.779 0 1.356.046 1.615.07-.3-.236-1.198-.821-2.72-.821-.185 0-.374.008-.567.027-2.357.212-5.678 2.327-5.678 6.364 0 .042.004.08.004.123 0 .02 0 .035.004.054v.042c.008.282.03.567.07.848l.007.058.008.054c.011.092.023.192.042.28.042.228.1.467.173.702.605 2.026 2.1 3.513 4.107 4.091a4.921 4.921 0 00-.035-.343 7.619 7.619 0 01-.011-.1 4.056 4.056 0 00-.093-.439c-1.433-.493-2.542-1.56-3.128-3.009z" fill="#95BC4F"/><path d="M10.917 11.634c-.042-.004-.084-.004-.127-.004-1.953 0-3.428.239-4.407.397-1.406.223-2.388.37-3.656.254 1.067.528 1.526.485 2.72.408.366-.023.798-.085 1.294-.158 1.044-.15 2.366-.335 3.945-.308.131 0 .274.008.432.023l-.012-.038a6.94 6.94 0 01-.135-.567c-.015-.007-.034-.007-.054-.007z" fill="#F56763"/><path d="M18.5 18.706a4.808 4.808 0 01-.232-.805.865.865 0 01-.023-.15 6.087 6.087 0 01-.096-1.01c0-.01 0-.026-.004-.038 0-.015-.004-.03-.004-.05v-.008c-.123.02-.243.031-.358.043a.223.223 0 00-.05.008 7.85 7.85 0 01-.405.023c0 .084.008.173.012.258.003.05.003.1.007.154.012.146.031.296.054.454l.008.054c0 .012.004.02.004.031.008.046.011.089.019.135.046.243.108.493.189.744.628 1.995 2.142 3.486 4.156 4.098-.011-.107-.027-.211-.042-.32-.008-.038-.011-.076-.015-.115a5.448 5.448 0 00-.112-.466c-1.487-.574-2.593-1.653-3.109-3.04z" fill="#24BBEB"/><path d="M16.095 16.669c0-.027-.004-.05-.004-.077a5.457 5.457 0 00-.112-.925l-.058-.243a5.034 5.034 0 00-2.866-3.344c.047.112.097.22.147.324.03.058.054.123.085.177.096.178.207.35.327.509.381.262.716.578.994.94.254.339.458.716.597 1.125l.035.096-.004-.004c.015.05.03.1.042.146l.012.043c.084.308.135.643.154.99l.004.089c.003.069.007.138.007.211 0 .054-.004.1-.007.155v.019l.053-.012a5.9 5.9 0 01.56-.135.477.477 0 00.038-.011c0-.02-.004-.046-.004-.073z" fill="#F56763"/><path d="M23.51 10.22a1.09 1.09 0 00.009-.13c0-2.37-.378-4.142-.628-5.313-.124-.582-.224-1.044-.24-1.387-.042-.952.186-3.032.228-3.39-.91 1.468-.928 2.385-.92 3.475.03.485.146 1.078.28 1.764.251 1.271.56 2.859.528 4.727 0 .127-.011.25-.019.377.015-.004.035-.004.05-.004.216-.026.436-.046.663-.057.015 0 .03-.004.046-.004.004-.02.004-.039.004-.058z" fill="#95BC4F"/><path d="M13.106 21.82a5.767 5.767 0 01-.81.269c-.122.03-.253.054-.373.077a6.774 6.774 0 01-.905.104l-.07.004a4.458 4.458 0 01-.235.008c-1.36 0-2.692-.509-3.76-1.426-1-.867-1.644-2.003-1.76-3.116a19.482 19.482 0 01-.038-3.733c-.262.335-.963 1.421-.798 3.282.212 2.358 2.327 5.678 6.364 5.678.043 0 .085-.004.127-.004.02 0 .035 0 .054-.003h.043a7.48 7.48 0 00.847-.07l.058-.008.038-.003c.1-.012.2-.027.297-.043.231-.042.462-.1.705-.173 2.003-.601 3.482-2.073 4.068-4.045-.108.008-.212.02-.316.035-.042.007-.088.007-.13.015a4.002 4.002 0 00-.444.096c-.497 1.395-1.548 2.477-2.962 3.055z" fill="#F56763"/><path d="M21.392 11.534c.273-.116.547-.208.809-.277.127-.035.254-.058.373-.081.297-.058.605-.097.906-.112l.058-.004c.1-.008.2-.011.3-.011 1.36 0 2.693.504 3.76 1.425 1.001.867 1.645 2.003 1.76 3.116.19 1.826.081 3.279.039 3.733.262-.335.963-1.421.797-3.282-.212-2.357-2.326-5.678-6.364-5.678-.057 0-.111.004-.165.008l-.073.003h-.043a8.353 8.353 0 00-.847.073l-.058.008h-.004c-.108.016-.224.031-.328.054a7.861 7.861 0 00-.704.177c-1.98.617-3.44 2.088-4.018 4.05.111-.009.223-.024.33-.04a.875.875 0 00.116-.015c.155-.027.3-.061.444-.104.496-1.379 1.529-2.458 2.912-3.043z" fill="#24BBEB"/><path d="M15.251 17.887c.27-.1.532-.174.802-.228.05-.011.104-.019.157-.027l.07-.011a6.66 6.66 0 01.932-.081h.023a.19.19 0 01.066 0 4.638 4.638 0 01-.043-.381l-.003-.04a4.616 4.616 0 01-.02-.396c-.1 0-.2.008-.304.016-.035.003-.066.003-.096.003-.147.012-.3.031-.463.054l-.054.008-.019.004c-.05.008-.096.012-.146.023a6.247 6.247 0 00-4.865 4.35c.115-.012.227-.028.342-.043l.093-.012a4 4 0 00.462-.108c.578-1.506 1.664-2.615 3.066-3.131z" fill="#FB9950"/><path d="M17.266 17.863c-.027 0-.05.004-.077.004-.32.011-.632.05-.925.111-.084.02-.165.039-.246.062a5.048 5.048 0 00-3.301 2.8c.015-.007.03-.011.046-.019.177-.073.346-.158.508-.25a.317.317 0 00.046-.03c.166-.101.328-.209.478-.328.004-.004.008-.004.012-.008a3.919 3.919 0 011.61-1.306c.1-.046.208-.089.316-.127l.1-.035-.004.008c.058-.02.116-.035.17-.05l.023-.008a4.865 4.865 0 011.001-.162l.085-.003c.127-.008.262-.012.393-.004h.02c-.005-.02-.009-.035-.012-.054a6.547 6.547 0 01-.15-.601.364.364 0 00-.093 0z" fill="#FB9950"/><path d="M22.266 10.362c.004-.057.008-.111.008-.173 0-1.953-.239-3.429-.397-4.403-.073-.463-.135-.828-.146-1.098-.174-.867-.097-2.277-.108-2.554-.543 1.001-.44 2.053-.408 2.72.023.365.084.797.157 1.294.15 1.052.336 2.361.309 3.945a6.014 6.014 0 01-.031.485 6.948 6.948 0 01.578-.146.112.112 0 01.03-.008c.004-.023.004-.042.008-.062zm-2.962 5.085a5.341 5.341 0 01-.805.24l-.142.023-.085.011c-.316.054-.62.08-.936.089-.02 0-.035 0-.05.003h-.031a8.853 8.853 0 01.05.436c.011.127.015.25.02.373.091-.003.18-.007.273-.015.046-.004.092-.004.138-.008a6.54 6.54 0 00.451-.054l.054-.007c.012 0 .027-.004.038-.004.043-.004.085-.012.128-.02.23-.046.473-.107.743-.192 1.988-.64 3.467-2.153 4.072-4.168a4.995 4.995 0 00-.32.046c-.038.008-.077.012-.12.02a6.72 6.72 0 00-.462.111c-.57 1.483-1.637 2.593-3.016 3.117z" fill="#95BC4F"/><path d="M23.719 22.944c.05.004.096.008.146.008 2.37 0 4.141-.378 5.312-.628a13.71 13.71 0 011.387-.239c1.06-.046 2.327-.03 3.39.228-.882-.713-1.791-.936-2.962-.936a6.81 6.81 0 00-.513.015c-.485.03-1.078.146-1.764.281-1.21.235-2.716.532-4.476.532-.085 0-.166 0-.25-.004-.12-.004-.247-.008-.398-.02a7.807 7.807 0 01.058.72c0 .012.004.028.004.04.023 0 .043 0 .066.003z" fill="#24BBEB"/><path d="M23.433 21.746a7.535 7.535 0 00-.177-.705c-.605-1.988-2.076-3.46-4.033-4.045.008.116.023.227.039.34l.011.107c.027.154.062.304.1.447 1.38.497 2.458 1.533 3.036 2.928.12.288.212.554.277.812a3.8 3.8 0 01.073.351l.004.023c.058.297.093.601.108.905l.004.077c.004.085.008.166.008.25 0 1.36-.509 2.694-1.426 3.76-.867 1.002-2.003 1.646-3.116 1.761a20.44 20.44 0 01-2.119.108 18.07 18.07 0 01-1.614-.07c.3.236 1.198.821 2.72.821.185 0 .373-.008.566-.027 2.358-.212 5.678-2.327 5.678-6.364 0-.05-.004-.096-.004-.142 0-.02-.004-.043-.004-.062v-.042a7.7 7.7 0 00-.069-.848l-.008-.058-.003-.03c-.016-.097-.031-.2-.05-.297zM10.99 23.113c-.003.05-.007.1-.007.15 0 2.37.378 4.142.628 5.313.123.582.223 1.044.239 1.387.162 1.306-.185 3.032-.227 3.386.994-1.487.99-2.442.92-3.475-.03-.485-.146-1.078-.28-1.764-.251-1.275-.56-2.858-.529-4.727.004-.135.012-.273.02-.393-.016.004-.035.004-.05.004-.22.027-.444.046-.67.054-.012 0-.024.004-.035.004-.004.023-.008.042-.008.061z" fill="#FB9950"/><path d="M23.576 21.696c.062.004.123.007.189.007 1.953 0 3.428-.238 4.407-.396.462-.073.828-.135 1.098-.147.924-.15 2.276-.096 2.554-.108-.74-.273-.725-.323-1.503-.439-.474 0-.886.012-1.217.035a16.64 16.64 0 00-1.294.158c-1.044.146-2.366.335-3.945.308a6.069 6.069 0 01-.497-.03l.012.05c.05.18.096.358.13.531.004.008.004.02.008.027.02 0 .039.004.058.004z" fill="#24BBEB"/><path d="M20.826 20.028c.304.366.55.79.732 1.256l.038.104-.008-.004c.035.096.07.193.097.29l.007.022c.097.34.162.678.19 1.01l.003.065h-.004c.008.127.015.25.015.374a4.699 4.699 0 01-1.16 3.058c-.704.817-1.629 1.34-2.538 1.433a16.143 16.143 0 01-3.005.035c.262.2.987.647 2.18.647.151 0 .305-.007.46-.019 1.914-.173 4.607-1.888 4.607-5.162 0-.062-.004-.12-.008-.177-.004-.031-.004-.062-.004-.093a6.517 6.517 0 00-.096-.913c-.023-.127-.058-.254-.089-.373a5.321 5.321 0 00-.296-.844 4.75 4.75 0 00-2.439-2.43c.015.038.03.076.05.119.02.042.035.084.058.127.027.057.058.115.088.173.02.039.039.077.062.116l.116.184c.019.031.034.062.057.09.062.088.128.176.197.257.243.177.478.4.69.655zm-8.591 2.958c-.004.058-.008.116-.008.177 0 1.954.239 3.429.397 4.407.073.463.135.829.146 1.098.232.886.097 2.277.108 2.555.543-1.233.443-1.996.409-2.72a16.639 16.639 0 00-.158-1.295c-.15-1.051-.335-2.361-.309-3.944.004-.15.012-.308.031-.49l-.042.012c-.181.05-.358.096-.532.13a.086.086 0 01-.034.009c-.004.019-.004.042-.008.061z" fill="#FB9950"/></svg>