<svg width="54" height="39" fill="none" xmlns="http://www.w3.org/2000/svg"><path d="M54 34.687A4.311 4.311 0 0149.69 39H5.083a4.312 4.312 0 01-4.308-4.313V4.752A4.311 4.311 0 015.083.44h44.608A4.311 4.311 0 0154 4.752v29.935z" fill="#000"/><path fill-rule="evenodd" clip-rule="evenodd" d="M30.403 12.635c-.017.058.08.033.07.086-.042.027-.014.075-.004.103a.278.278 0 00-.066.103 1.21 1.21 0 01-.163.128c-.155-.033-.31.088-.436.186-.088.062-.201.138-.286.216-.14.083-.306.1-.452.135-.118-.08-.078-.22-.17-.306.002-.01.002-.013 0 0-.093-.11-.114-.261-.134-.36a.96.96 0 01-.466.131c-.078 0-.158-.012-.224.05-.087.023-.138-.005-.235.023 0 .053-.113.158.012.186.033.063.148.02.136.113.2.15.389.357.461.588.045.138.16.246.096.394-.03.178-.214.189-.347.241a.94.94 0 01-.479-.007c-.228-.053-.419-.05-.622.035-.035.058-.05.133-.083.186-.11.09-.04.256-.178.319-.048.01-.065-.028-.083-.058a.581.581 0 01-.03-.143c-.015-.058.02-.103.013-.158-.088.007-.179.04-.256.055-.01.008-.028.027-.038.018-.228.09-.49.173-.705.336a.702.702 0 00.088.392c.035.04.08.04.108.095a.17.17 0 01.002.106c-.03.015-.043.025-.085.03-.08.003-.098.008-.168-.008a.257.257 0 01-.118-.052c-.048-.048-.088-.226-.088-.249-.058-.103-.248-.178-.243-.319.025-.083.11-.088.168-.143.163-.03.288-.136.394-.249.105-.115.2-.279.343-.339.11-.048.321-.053.329-.249.005-.216.126-.406.156-.623a1.433 1.433 0 000-.253c-.043-.02-.12-.073-.078-.123-.005-.033.04-.058.01-.08.025-.063.005-.154.03-.21l.015-.047a.547.547 0 01.098-.216c.12-.153.293-.198.429-.291.03-.066.03-.166.115-.199.133-.05.296-.085.444-.135.176-.06.34-.096.517-.169-.055-.063-.082-.123-.13-.186a.14.14 0 00-.038-.025c-.113.03-.23.053-.354.076 0 .005.005 0 0 0-.105.01-.17-.013-.278.005-.166.027-.346.017-.504-.146-.036-.073-.06-.14-.11-.219-.02-.08.01-.125.072-.17.023.01.035.025.06.01.03.012.035.037.045.065.02.015.033.078.068.045.04-.015.063.05.07.076.056.09.178.03.229.148a.97.97 0 00.206-.096c.188-.12.388-.183.584-.236.075-.015.133.083.193.113.066.028.118.103.163.138.05.08.103.186.196.241.055.03.073.164.148.114 0-.046 0-.09.013-.136.06-.118.17-.231.293-.249.108-.045.246.005.336.038.053.063.156.11.166.208 0 .043.055.141-.02.181.01.058.028.12-.038.164.01.07.05.123.02.18-.107-.027.006.106-.1.106.083.073-.07.055-.07.128-.073.048-.136.02-.208-.023-.02.018.005.033.01.05a.587.587 0 01-.02.28c.022.04.067.082.095.133.04.057.023.095.05.148.168-.106.366-.113.527-.206.1-.03.126-.148.17-.216.046-.015.09-.02.131-.048.043.01.063-.045.105-.02.013.08.093.03.123.06zm-3.043 1.19c-.075.197-.113.365-.264.53.206.026.37-.06.57-.16.045-.017.153 0 .198 0-.095-.068-.158-.163-.253-.236-.083-.053-.173-.075-.251-.133zm.366 3.231a3.374 3.374 0 01-3.365-3.366 3.373 3.373 0 013.365-3.368 3.372 3.372 0 013.36 3.368 3.372 3.372 0 01-3.36 3.366zm16.839.742h-9.962v3.114h9.442c1.38 0 2.422.27 2.858.704.522.424.783 1.381.783 2.595v2.17c0 1.391-.263 2.349-.7 2.785-.52.52-1.56.774-2.94.774h-9.362c-1.388 0-2.434-.256-2.956-.774-.432-.436-.69-1.394-.69-2.785v-.425l3.126-.786v2.082h10.398v-3.647h-9.271c-1.478 0-2.52-.256-3.041-.688-.522-.437-.773-1.299-.773-2.61v-1.56c0-1.381.25-2.426.773-2.946.522-.523 1.563-.777 3.04-.777h8.582c1.468 0 2.424.254 3.029.777.522.52.783 1.391.783 2.692v.35l-3.12.688v-1.733zM26.258 29.942V17.797h2.938v12.145h-2.938zm-5.124-12.144H11.16v3.114h9.45c1.385 0 2.421.27 2.858.704.522.424.775 1.381.775 2.595v2.17c0 1.391-.25 2.349-.69 2.785-.522.52-1.558.774-2.943.774h-9.37c-1.38 0-2.423-.256-2.94-.774-.434-.436-.69-1.394-.69-2.785v-.425l3.109-.786v2.082h10.413v-3.647h-9.274c-1.476 0-2.522-.256-3.041-.688-.517-.437-.783-1.299-.783-2.61v-1.56c0-1.381.266-2.426.783-2.946.517-.523 1.565-.777 3.04-.777h8.572c1.478 0 2.431.254 3.039.777.522.52.775 1.391.775 2.692v.35l-3.109.688v-1.733zM6.365 31.934h42.548c.181 0 .332.148.332.33v.012a.33.33 0 01-.332.326H6.365a.33.33 0 01-.33-.326v-.013c0-.18.15-.329.33-.329zm6.397 2.592h-1.28v1.218h1.28v-.414l.479.095v.232c0 .178-.038.298-.108.364-.07.065-.203.095-.406.095h-1.215c-.196 0-.329-.032-.399-.095-.075-.063-.108-.186-.108-.364v-1.03c0-.174.033-.297.103-.362.073-.065.206-.096.404-.096h1.214c.204 0 .342.03.41.096.07.065.102.188.102.362v.19l-.479.068v-.359h.003zm.993 1.593v-1.95h.472v1.95h-.472zm1.072 0v-1.95h2.09v.345h-1.61v.424h.935v.334h-.936v.483h1.636v.364h-2.115zm2.534 0v-1.95h.324l1.65 1.294V34.17h.44v1.95h-.336l-1.646-1.317v1.317h-.432zm4.719-1.593h-1.279v1.218h1.28v-.414l.479.095v.232c0 .178-.035.298-.105.364-.076.065-.209.095-.41.095h-1.214c-.198 0-.331-.032-.399-.095-.073-.063-.105-.186-.105-.364v-1.03c0-.174.03-.297.103-.362.07-.065.203-.096.404-.096h1.214c.206 0 .339.03.409.096.073.065.105.188.105.362v.19l-.479.068v-.359h-.002zm.995 1.593v-1.95h2.09v.345H23.55v.424h.939v.334h-.939v.483h1.636v.364h-2.112zm4.581 0v-1.95h.475v1.95h-.475zm1.077 0v-1.95h.321l1.656 1.294V34.17h.43v1.95h-.33l-1.65-1.317v1.317h-.427zm10.074-1.613H37.72v.517h1.087c.08 0 .135-.012.168-.037.033-.025.048-.066.048-.12v-.204c0-.058-.013-.1-.048-.12-.033-.026-.09-.036-.168-.036zm-1.553 1.613v-1.95h1.754c.16 0 .276.03.348.088.076.06.11.159.11.292v.43c0 .132-.034.23-.11.29-.07.058-.185.091-.348.091H37.72v.759h-.466zm2.576-1.492c0-.174.033-.297.103-.362.07-.065.206-.096.402-.096h1.508c.2 0 .333.03.401.096.07.065.106.188.106.362v1.03c0 .18-.033.3-.106.364-.072.065-.203.095-.401.095h-1.508c-.199 0-.331-.032-.402-.095-.07-.063-.103-.186-.103-.364v-1.03zm.477 1.117h1.57v-1.218h-1.57v1.218zm2.597.375v-1.95h1.756c.161 0 .279.03.35.088.072.06.11.159.11.292v.457c0 .13-.035.228-.11.286-.071.058-.186.088-.35.088h-.268l.928.739h-.68l-.818-.739h-.449v.739h-.469zm1.556-1.613h-1.087v.538h1.087c.083 0 .135-.01.168-.038.032-.023.05-.065.05-.12v-.224c0-.058-.017-.1-.05-.12-.033-.026-.085-.036-.168-.036zm2.17.01v1.603h-.476v-1.603h-.939v-.347h2.356v.347h-.94z" fill="#fff"/><path d="M10.04 34.534H8.703v.405h1.263c.198 0 .326.032.399.095.07.063.105.183.105.367v.266c0 .18-.035.301-.105.364-.07.066-.201.093-.4.093h-1.26c-.193 0-.328-.027-.398-.093-.076-.063-.11-.18-.11-.364v-.055l.42-.076v.229h1.423v-.447H8.782c-.193 0-.32-.03-.394-.093-.075-.065-.11-.186-.11-.367v-.21c0-.184.035-.305.11-.368.073-.062.201-.093.394-.093h1.152c.186 0 .314.028.394.086.075.06.118.173.118.339v.043l-.41.09v-.21h.003zm26.183 0H34.89v.405h1.26c.196 0 .329.032.399.095.073.063.105.183.105.367v.266c0 .18-.032.301-.105.362-.07.065-.203.093-.4.093H34.89c-.195 0-.328-.028-.401-.093-.07-.063-.108-.181-.108-.362v-.055l.422-.076v.229h1.425v-.447H34.97c-.191 0-.324-.03-.394-.093-.073-.065-.11-.186-.11-.367v-.21c0-.184.037-.305.11-.368.07-.062.203-.093.394-.093h1.151c.186 0 .322.028.392.086.078.06.118.173.118.339v.043l-.412.09v-.21h.003z" fill="#fff"/></svg>