<svg xmlns="http://www.w3.org/2000/svg" viewBox="0 0 403.9 276.1"><path d="M44.4 252.4l-1.2 7.4h-8.4l-2.4 14.7h-9.1l2.4-14.7h-8.3L15 274.6H6.1l2.3-14.7H0l1.2-7.4h8.4l1.3-8.8H2.5l1.2-7.4h8.4l2.2-13.7h8.9L21 236.3h8.3l2.2-13.7h9.1l-2.2 13.7h8.4l-1.2 7.4h-8.4l-1.3 8.8h8.5zm-16.2-8.8h-8.3l-1.3 8.8h8.3l1.3-8.8zm24.5-21.1h21.6c17.4 0 18 13.2 18 15.6 0 9.8-6 13.9-10.9 15.6L96 274.5H78.3l-11-17.2v17.2H52.7v-52zm18.1 23.4c5.2 0 6.8-3 6.8-6 0-2.9-1.6-6-6.8-6h-3.6v12h3.6zm26.2 2.6c0-13.9 8.9-27.5 28-27.5s28 13.6 28 27.5-8.9 27.5-28 27.5-28-13.5-28-27.5zm41 0c0-10-6.2-15-13-15s-13 5-13 15 6.2 15 13 15c6.8.1 13-4.9 13-15zm48.8-11.4c-2.5-2.2-5.7-4.6-9.5-4.6-4.4 0-5.4 2.6-5.4 4.5 0 3.1 3.6 4 6.2 4.6 7.7 1.8 16.2 5.1 16.2 17.4 0 10.3-7.4 17.1-19.6 17.1-6.7 0-12-2.2-19.5-8.3l6.9-11.1c4.1 3.9 8.6 6.9 13 6.9 2.7 0 5.1-1.3 5.1-4.4 0-4.8-4.5-5.4-10-7.1-4.2-1.3-12.4-4.2-12.4-15.4 0-8.4 6.1-15.7 18.3-15.7 8.2 0 13.8 3.6 15.9 5.1l-5.2 11zm26.7-14.6h17.7l18.5 52.1h-15.6l-2.9-9h-17.7l-2.9 9H195l18.5-52.1zm2.9 31.6h11.9l-6-19.2-5.9 19.2zm37.4-31.6h21.6c17.4 0 18 13.2 18 15.6 0 9.8-6 13.9-10.9 15.6l14.6 20.8h-17.6l-11-17.2v17.2h-14.6v-52zm18.2 23.4c5.2 0 6.8-3 6.8-6 0-2.9-1.6-6-6.8-6h-3.6v12h3.6zm28.4 7.6v-31H315v30.7c0 3.2.6 10.3 8.3 10.3 7.7 0 8.3-7.1 8.3-10.3v-30.7h14.6v31c0 5.6-1.2 22.6-22.9 22.6s-22.9-17-22.9-22.6zm55-31h15.3l19.1 30.7v-30.7h14.1v52.1h-15.1l-19.3-31.3v31.3h-14.1v-52.1zM279.5 85.7l19.7-39.2 19 38 8.9-18.3 70.4 145.5h3.4l-88-204L287 67.6l-18.9-33.3-17.7 31.1 12.9 22 8.5-16zm-147.3-4.5l15.7-26.6L166 85.2l9.2-19 12.1 24.9 9-15.5-23.6-52.7-12.3 27.5-21-50.4-18.3 44-5.5-9.7L14.7 211.7h15.6l82.9-144.8 9.9 17.3 5.2-11.3z"/><path d="M120.5 89.7l-7.3-12.8-77.1 134.8h8.8L95.8 110l7.8 15.8zM295.6 116l13.1-23.5 10.9 19.7 7.5-13.3 63.5 112.8h1.3L327.1 77.6l-8.8 18.2-19.1-38.2-16.9 33.5zM167.5 93.7l-1.1 2.1-18.5-31.4-13.2 22.3 18.8 40.1zm7.8 13.6l6.9 16.3 13.9-24.7 4.9 8.7 19.4-48.1 17.3 43.1 9.8-19.3 8.8 17.2 4.2-7.9-8.8-15-25.4-43.4-39.4 67.5-11.7-24.1-6.6 13.8zm85.2-14.7l-8.8-15 8.8 15zm-125.8-5.9l13.2-22.3zm32.8 7l-1.1 2.1 1.1-2.1z"/><path d="M218.2 138.1l8.1-10.9 13.2 17.6 8-15.4 7.1 13.5 17.2-25.6 24.5 36.5 20.4-36.4-8-14.6-13.2 23.7-13.9-26.1-2-3.8-7.8-14.6-5.6 10.5v.1l-2.7 5.1-7.3 13.6-8.7-17-10.4 20.3-16.7-41.7-16.2 40.3zm45.3-40.4l2.7-5.1-2.7 5.1zm8.3-15.7l-5.6 10.5z"/><path d="M279.6 96.6l-2.9-5.4-4.9-9.2 7.8 14.6zm2 3.8l-2-3.8zm-2-3.8l-2.9-5.4zm-13.4-4.1v.1zm-2.7 5.2l-7.3 13.6 7.3-13.6zm-43.1-24.8l16.7 41.7zm45.8 19.7v-.1l-2.7 5.2zm-149.8 58.7l2.9-4.3 3.4 5.1 10.9-16.4 13.8 20.7 16.6-23.8 7.3 10.5 7.8-14-10.6-25-14.8 35-25.4-54.3-1.9 4-2.9 6.2-17 36.5zm10-62.5l-2.9 6.2zm52.7 40.3l-10.6-25 10.6 25zm56.3 23.6l1.5-3-10.6-14.2-8.7 11.7-15.8-28.1-5.7-10-14.5 25.9-7.2 12.6 20.4 29.3 11.2-16.8 14.3 21.4z"/><path d="M181.6 135l14.5-25.9-14.1 25.1-.4.8zm20.2-15.9l-5.7-10 5.7 10zm-27.4 28.5l7.2-12.6zm7.2-12.6l.4-.8-.4.8zm-55.9 21.7l10.5 15.8 8.1-11.7-10.7-16.1zm196.8-39.3l-25.9 45.9-24.8-37-14.5 21.7 3.6 6.9 11.9-21.9 20.7 37.8 3.8-5.8 2.1 3.1 14-21.1 42.9 64.7h28.5l-57.7-102.6-4.6 8.3zm62.3 94.3l-57.7-102.6 57.7 102.6zm-57.7-102.6l-4.6 8.3z"/><path d="M322.5 117.4l-2.9 5.1-23 40.8zM257.3 148l14.5-21.7-14.5 21.7zm62.3-25.5l2.9-5.1-2.9 5.1zm-215.7 47.7l9.3-14.1-9.4-18.8-8-16.1-45.3 90.5h13.3l34.7-42.8 3.5 4.2z"/><path d="M103.8 137.3l-2.9-5.8-5.1-10.3 8 16.1zm-53.3 74.4l45.3-90.5zm53.3-74.4l9.4 18.8zm0 0l-2.9-5.8zm150.3 15.4l-6.6-12.5-4.7 9-13 24.9 7-10.5 16.9 25.4 9.4-14 13.7 20.7 11.2-16.8 2.3-3.4-17.5-32.1-12 22.1-6.7-12.8z"/><path d="M254.1 152.7l-2.6-5-4-7.5zm-11.3-3.5l-13 24.9zm18 16.3l-6.7-12.8zm29.5 10l-17.5-32.1 17.5 32.1zm-36.2-22.8l-2.6-5zm-119.4 26.7L119.3 156l-14 21.2 18.3 22.6 12.4-18.5zm33.8-31.5l-4.5-6.6-13.6 19.6-10.1 14.4 4.8 7.2 9.1 13.5 10-15.1 13.9 20.9 13.7-20.5zm-18.1 13l13.6-19.6-13.6 19.6zm13.6-19.6l4.5 6.6z"/><path d="M171.7 152.5l-3.2-4.6 23.3 33.4-20.1-28.8zm0 0l-3.2-4.6 3.2 4.6zm-24.4 12.8l-7 10 10.1-14.4-3.1 4.4zm-11.3 16l-1.3-1.9zm11.3-16l3.1-4.4zm181.2 46.4h21.8L313.4 156l-11 16.6z"/><path d="M350.3 211.7L313.4 156l36.9 55.7zM313.4 156l-11 16.6zM293 180.4l-16.2 24.3-13.7-20.7-9.4 14-16.9-25.3-14.2 21.2-1.8-2.6-3.1-4.7v-.1L206 169.1l-8.1 12.2-19.8 29.6-13.9-21-10 15.1-14.1-21-16.1 24.3-21.6-26.7-3-3.7-.3-.4-.6-.7-28.2 34.9h252.2L297.3 174l-4.3 6.4zm-72.2 10.9l-3.1-4.7zM206 169.1l11.7 17.4zm-8.1 12.2l8.1-12.2-8.1 12.2z"/><path d="M293 180.4l4.3-6.4-3 4.6zm-193.9-2.9l-.6-.7.6.7zm3.3 4.1l-3-3.7zm115.3 4.9v.1-.1zm59.1 18.2L263.1 184l13.7 20.7 16.2-24.3zm-56-13.4l1.8 2.6-1.8-2.6zm-3.1-4.8v.1l3.1 4.7zm75.3-6.1l1.3-1.8-1.3 1.8zm-190.6 1.2l21.6 26.7-21.6-26.7zm-3.3-4.1l.3.4-.3-.4zm95.8 8.2l-16.8 25.2 19.8-29.6-3 4.4zm0 0l3-4.4zm-95.5-7.8l3 3.7-3.3-4.1z"/></svg>