<svg xmlns="http://www.w3.org/2000/svg" viewBox="0 0 102 19"><path d="M41.6 1.1h-6c-1 0-1.8.8-1.8 1.8v14.3c0 .3.3.6.6.6s.6-.3.6-.6V2.9c0-.3.3-.6.6-.6h6c1.9 0 3.5 1.6 3.5 3.5s-1.6 3.5-3.5 3.5h-3.7c-.3 0-.6.3-.6.6s.3.6.6.6h3.7c2.6 0 4.7-2.1 4.7-4.7s-2.1-4.7-4.7-4.7zm20.6 16.7h-7.3c-1 0-1.8-.8-1.8-1.8V1.7c0-.3.3-.6.6-.6s.6.3.6.6V16c0 .3.3.6.6.6h7.3c.3 0 .6.3.6.6 0 .4-.3.6-.6.6zm32-13.2c-.3 0-.6.3-.6.6v12c0 .3.3.6.6.6s.6-.3.6-.6v-12c0-.3-.3-.6-.6-.6zm-6.9-2.9c0 .3.3.6.6.6h12.5c.3 0 .6-.3.6-.6s-.3-.6-.6-.6H87.9c-.4 0-.6.3-.6.6zM1.6 1.1c-.3 0-.6.3-.6.6v15.5c0 .3.3.6.6.6s.6-.3.6-.6V1.7c0-.3-.3-.6-.6-.6zM84 17L77.8 2.1c-.3-.6-.9-1-1.6-1s-1.3.4-1.6 1L72 8.4c-.1.3 0 .7.3.8h.2c.2 0 .5-.1.6-.4l2.6-6.2c.1-.2.3-.3.5-.3s.4.1.5.3l6.1 14.9c.1.2.3.4.6.4h.2c.4-.2.5-.6.4-.9zM24.4 1.2c-.3 0-.6.3-.6.6v14.7c0 .1-.1.2-.2 0-.1-.1-10-14.5-10.1-14.7-.4-.5-1-.8-1.5-.6-.5.2-.8.7-.8 1.3v14.7c0 .3.3.6.6.6s.6-.3.6-.6V2.5c0-.1.1-.2.2 0 0 0 9.9 14.4 10.1 14.7.4.5 1 .8 1.5.6.5-.2.8-.7.8-1.3V1.8c0-.4-.3-.6-.6-.6zm44.7 16.7h-.2c-.3-.1-.5-.5-.3-.8l1.9-4.6c.3-.7.9-1.1 1.6-1.1h5.5c.3 0 .6.3.6.6s-.3.6-.6.6h-5.5c-.2 0-.4.1-.5.3l-1.9 4.6c-.1.2-.4.4-.6.4z"/></svg>