<svg xmlns="http://www.w3.org/2000/svg" viewBox="0 0 903 223.9"><path d="M375.5 127.1l1.3 13.1H260.5v-11.4L203.3 222l34.9-136.4-54.2 91.6v-37H10.1v-13.1h188.3L273.6 0l-36.2 141.4 36.2-58.9v44.6h101.9z" fill="#9a1915"/><path d="M0 190V82.6h16V190H0zm4.9 31.1H3.3v-12.4H0v-1.4h8.3v1.4H4.9v12.4zm52.3 0h-1.5v-13.8h2c2.6 0 5.1.7 5.1 3.8 0 2.1-1.3 3.6-3.5 3.8l4.4 6.2h-1.9l-4.2-6.1h-.4v6.1zm0-7.5h.5c1.7 0 3.5-.3 3.5-2.5 0-2.3-1.7-2.5-3.5-2.5h-.5v5zm55.9 7.5h-1.5v-13.8h1.5v13.8zm50.7-4l-1.7 3.9h-1.7l6.4-14.5L173 221h-1.7l-1.6-3.9h-5.9zm3-6.9l-2.4 5.5h4.7l-2.3-5.5zm55.9 10.9h-1.5v-12.4h-3.3v-1.4h8.3v1.4h-3.4v12.4h-.1zm59.5-8.3v-5.6h1.5V221h-1.5v-6.8h-7.1v6.8h-1.5v-13.8h1.5v5.6h7.1zm51.8 6.8h3.8v1.4h-5.4v-13.8h1.5v12.4h.1zm64.9-5.4c0 4-3.3 7.1-7.2 7.1-3.9 0-7.2-3.2-7.2-7.1 0-4 3.3-7.2 7.2-7.2 4 0 7.2 3.2 7.2 7.2zm-12.9-.1c0 3.1 2.5 5.7 5.7 5.7 3.1 0 5.7-2.6 5.7-5.7s-2.5-5.7-5.7-5.7-5.7 2.6-5.7 5.7zm61-7.5l10.8 11.3v-10.7h1.5v14.5l-10.8-11.3v10.7H447v-14.5zM24.9 190V82.6H46c12.8 0 20 4.6 20 18.4v15.2c0 8-1.7 14.6-15.2 16.1v.3c7.1.9 15.2 3.3 15.2 13.1v44.2H50.7v-41c0-6.5-2.4-9-9.8-8.7V190h-16zm16-62.9h3c5.6 0 6.8-3 6.8-6.9v-19.4c0-4.1-2.4-5.3-6-5.3h-3.8v31.6zm34.2-26.4c0-14 11-18.1 20.8-18.1 9.9 0 21 4.1 21 18.1v71.2c0 14-11 18.1-21 18.1-9.8 0-20.8-4.1-20.8-18.1v-71.2zm16 69.8c0 5.4 1.7 6.6 5 6.6 3.2 0 4.8-1.2 4.8-6.6v-68.4c0-5.4-1.7-6.6-4.8-6.6-3.3 0-5 1.2-5 6.6v68.4zm58.6-87.9l12.2 91.7V82.6H175V190h-23.7l-12.5-94.5V190h-13.1V82.6h24zm148.5 87.9c0 5.4 1.7 6.6 5 6.6 3.2 0 4.8-1.2 4.8-6.6v-9.2c0-15.1-25.8-29.9-25.8-47.3v-13.3c0-14 11-18.1 20.8-18.1 10 0 21 4.1 21 18.1v20.5h-16v-19.1c0-5.4-1.7-6.6-4.8-6.6-3.3 0-5 1.2-5 6.6v11.2c0 7.7 25.8 30.9 25.8 41.8V172c0 14-11 18.1-21 18.1-9.8 0-20.8-4.1-20.8-18.1v-22.6h16v21.1zm75.7-87.9v12.8H360V190h-16V95.5h-14V82.6h43.9zm35.7 44.5l-7.4 5.4 6 18.4-15.6-11.4-15.7 11.5 6-18.4-7.4-5.4-7.2 62.9h14.5l3.5-29.1h11.3l3 29.1h16.1l-7.1-63zm-17.1-24.2l5.9 18.2h10.5l-4.4-38.5h-24l-4.4 38.5h10.4l6-18.2zm29.4 87.1V82.6H443c12.8 0 20.1 4.5 20.1 18.4v15.2c0 8-1.7 14.6-15.2 16.1v.3c7.1.9 15.2 3.3 15.2 13.1v44.2h-15.4c0-12.8.1-28.5.1-41 0-6.5-2.4-9-9.8-8.7V190h-16.1zm16-62.9h3c5.6 0 6.8-3 6.8-6.9v-19.4c0-4.1-2.4-5.3-6-5.3h-3.8v31.6z" fill="#131313"/></svg>