<svg id="Слой_1" xmlns="http://www.w3.org/2000/svg" viewBox="0 0 46 49" enable-background="new 0 0 46 49"><style>.st2{fill:#fff}</style><path d="M16.8 16.9c.6-1.7.4-2.7-1-2.7H14l-4 11.1h1.8c1.4 0 2.4-1 3-2.7l2-5.7zm-6.4 19.3l.6-9.7H9.5L6 36.2H4.7l8.5-23.3h3.2c2.3 0 2.8 1.4 1.9 4l-2 5.6c-.8 2.2-2 3.5-3.7 3.9l-.6 9.8h-1.6zm15.7-20c.6-1.5.3-2.4-1.1-2.4-1.4 0-2.3.8-2.9 2.4L16 32.9c-.6 1.5-.3 2.4 1.1 2.4 1.4 0 2.3-.9 2.9-2.4l6.1-16.7zm-5.4 0c.9-2.4 2.3-3.6 4.6-3.6s2.9 1.3 2 3.6l-6.1 16.7c-.9 2.4-2.3 3.7-4.7 3.7s-2.9-1.3-2-3.7c.2 0 6.2-16.7 6.2-16.7zm9.2 12.7c.9-2.4.5-2.8-.6-3.6-1.7-1.1-2.8-1.4-1.4-5.1l1.5-4c.9-2.4 2.3-3.6 4.6-3.6s2.8 1.3 1.9 3.6l-1.2 3.4h-1.3l1.2-3.4c.6-1.5.3-2.4-1.1-2.4-1.4 0-2.2.8-2.8 2.4l-1.5 4c-.9 2.4-.5 2.8.6 3.6 1.7 1.1 2.8 1.4 1.4 5.1l-1.5 4c-.9 2.4-2.3 3.7-4.6 3.7s-2.8-1.3-1.9-3.7l1.2-3.3h1.3l-1.2 3.3c-.6 1.5-.3 2.4 1.1 2.4s2.2-.9 2.8-2.4l1.5-4zm9.3-5l1.9-7.8-3.8 7.8-3.4 6.8h3.9c-.1-.1 1.4-6.8 1.4-6.8zm-2.7 12.4l1-4.4h-4.3L31 36.3h-1.4l12-23.4h1.3l-5 23.4h-1.4zM7.4 40h-.6l-1 2.8h.5c.5 0 2.4 0 2.9-1.4.5-1.3-1-1.4-1.8-1.4" fill="#010202"/><defs><filter id="Adobe_OpacityMaskFilter" filterUnits="userSpaceOnUse" x="0" y="37.5" width="37.8" height="11.3"><feColorMatrix values="1 0 0 0 0 0 1 0 0 0 0 0 1 0 0 0 0 0 1 0"/></filter></defs><mask maskUnits="userSpaceOnUse" x="0" y="37.5" width="37.8" height="11.3" id="b"><g filter="url(#Adobe_OpacityMaskFilter)"><path id="a" class="st2" d="M0 37.5h37.8v11.3H0V37.5z"/></g></mask><path d="M33.8 48.2l-7.2-6.7-2.3 6.2h-1.8l3.5-9.5 6.8 6.7 1.3-6.2h1.8l-2.1 9.5zm-14.6-1c-.8.5-1.8.7-4 .7-1.6 0-2.4-.5-2.8-1-.6-.8-.5-1.6-.2-2.3l2.1-5.7H16l-2 5.4c-.2.5-.4 1.1-.2 1.5.2.5.7.7 1.8.7.9 0 2.2 0 2.8-.6.5-.5.8-1.1 1-1.6l2-5.4h1.8l-2.1 5.7c-.3.6-.8 1.9-1.9 2.6zM11 41.4c-.5 1.3-1.9 2.2-3.5 2.5l2.2 3.8H7.6l-2-3.6h-.2L4 47.7H2.2l3.2-8.9h2.1c.9 0 2.1 0 2.9.5.9.6.8 1.5.6 2.1zm-6.9-3.9L0 48.8h35.2l2.5-11.3H4.1z" mask="url(#b)" fill="#010202"/><defs><filter id="Adobe_OpacityMaskFilter_1_" filterUnits="userSpaceOnUse" x="13.6" y=".2" width="31.9" height="11.5"><feColorMatrix values="1 0 0 0 0 0 1 0 0 0 0 0 1 0 0 0 0 0 1 0"/></filter></defs><mask maskUnits="userSpaceOnUse" x="13.6" y=".2" width="31.9" height="11.5" id="d"><g filter="url(#Adobe_OpacityMaskFilter_1_)"><path id="c" class="st2" d="M13.6.2h31.9v11.5H13.6V.2z"/></g></mask><path d="M13.6 11.6L17.8.2l6.3 8.1 2.2-3.4 3.3 5.3 7.6-5.1L39.8 8 45.6.2l-2.4 11.4H13.6z" mask="url(#d)" fill="#010202"/></svg>