<svg id="Layer_1" xmlns="http://www.w3.org/2000/svg" viewBox="0 0 1169.2 134.7"><style>.st1{fill:#fff}</style><path opacity=".56" fill="#fff" d="M122.2.4L0 134.7H1169.2L1066.6 0l-42.1 95.8-47.9-40.3-16.6 61.8L871.3 39l-31 53-66.7-90.3-.9-1.3L701 95.8l-25.8-40.6-38.7 62.1-88.7-59.7-31 34.4-68.9-92L374 95.8l-25.9-40.6-38.6 62.1-88.7-59.7-31 34.4z"/><path class="st1" d="M296.7 71.3l-68.1 63.3h736l-53.3-63.5-34.9 45.2-12.2-19.1-18.2 29.2-41.9-28.1-14.6 16.2-31.8-43.2.2 1-.5-1.2-34.8 45.2-12.2-19.1-18.2 29.2-41.9-28.1-14.6 16.2-31.9-59-35.5 60.8-12.2-19.1-18.2 29.2L496 98.3l-14.6 16.2-30.3-41.1-.8-2.3-.5.6-.2-.4.1.6-34.3 44.4-12.2-19.1-18.2 29.2-41.8-28.1-14.7 16.2z"/><path opacity=".73" fill="#fff" d="M179.5 24.2L58.3 134.6h1040.3L983.4 23.8 886.6 127l-90.1-55.8L771 99.5l-56.8-75.7-60.8 78.8-21.3-33.3-31.8 51-73-49.1-25.5 28.3-55.5-75.3-59.6 78.4-14.9-23.4-38.2 41.1-73-49.1-25.5 28.3z"/><path class="st1" d="M638.6 129.5c3.3 0 3.3-5 0-5-3.2 0-3.2 5 0 5z"/></svg>