<svg xmlns="http://www.w3.org/2000/svg" viewBox="0 0 1169.2 134.7"><style>.mountain1{fill:#fff}</style><path fill="#fff" opacity=".56" d="M979.4 92l-31-34.4-88.7 59.7-38.6-62.1-25.9 40.6L721.3 0l-68.9 92-31-34.4-88.7 59.7L494 55.2l-25.8 40.6L396.5.4l-.9 1.3L328.9 92l-31-53-88.7 78.3-16.6-61.8-47.9 40.3L102.6 0 0 134.7h1169.2L1047 .4z"/><path class="mountain1" d="M840.7 114.5L826 98.3l-41.8 28.1L766 97.2l-12.2 19.1-34.3-44.4.1-.6-.2.4-.5-.6-.8 2.3-30.3 41.1-14.6-16.2-41.9 28.1-18.2-29.2-12.2 19.1-35.5-60.8-31.9 59-14.6-16.2-41.9 28.1-18.2-29.2-12.2 19.1-34.8-45.2-.5 1.2.2-1-31.8 43.2-14.6-16.2-41.9 28.1L305 97.2l-12.2 19.1-34.9-45.2-53.3 63.5h736l-68.1-63.3z"/><path fill="#fff" opacity=".73" d="M934.1 99.5l-25.5-28.3-73 49.1-38.2-41.1-14.9 23.4-59.6-78.4-55.5 75.3-25.5-28.3-73 49.1-31.8-51-21.3 33.3L455 23.8l-56.8 75.7-25.5-28.3-90.1 55.8-96.8-103.2L70.6 134.6h1040.3L989.7 24.2z"/><path class="mountain1" d="M530.6 129.5c3.2 0 3.2-5 0-5-3.3 0-3.3 5 0 5z"/></svg>