<svg id="Слой_1" xmlns="http://www.w3.org/2000/svg" viewBox="0 0 134.7 1169.2"><style>.st1{fill:#fff}</style><path d="M92 189.8l-34.4 31 59.7 88.7-62.1 38.6L95.8 374 0 447.9l92 68.9-34.4 31 59.7 88.7-62.1 38.7L95.8 701 .4 772.7l1.3.9L92 840.3l-53 31 78.3 88.7-61.8 16.6 40.3 47.9L0 1066.6l134.7 102.6V0L.4 122.2 92 189.8z" opacity=".56" fill="#fff"/><path class="st1" d="M114.5 328.5l-16.2 14.7 28.1 41.8-29.2 18.2 19.1 12.2-44.4 34.3-.6-.1.4.2-.6.5 2.3.8 41.1 30.3L98.3 496l28.1 41.9-29.2 18.2 19.1 12.2-60.8 35.5 59 31.9-16.2 14.6 28.1 41.9-29.2 18.2 19.1 12.2-45.2 34.8 1.2.5-1-.2 43.2 31.8-16.2 14.6 28.1 41.9-29.2 18.2 19.1 12.2-45.2 34.9 63.5 53.3v-736l-63.3 68.1 43.2 31.8z"/><path d="M99.5 235.1l-28.3 25.5 49.1 73-41.1 38.2 23.4 14.9-78.4 59.6 75.3 55.5-28.3 25.5 49.1 73-51 31.8 33.3 21.3-78.8 60.8L99.5 771l-28.3 25.5 55.8 90.1-103.2 96.8 110.8 115.2V58.3L24.2 179.5l75.3 55.6z" opacity=".73" fill="#fff"/><path class="st1" d="M129.5 638.6c0-3.2-5-3.2-5 0 0 3.3 5 3.3 5 0z"/></svg>