<svg width="227" viewBox="0 0 227 3956" fill="none" xmlns="http://www.w3.org/2000/svg">
<path d="M77.9998 4C92.2935 4.59557 138 3.57757 138 26C138 34.0222 128.928 33.8919 125.111 40C119.327 49.2547 102.189 64 126 64C133.478 64 143.885 68.5173 141.778 78C139.728 87.2242 117.605 88.2391 110.889 92.8889C97.7263 102.001 72.3089 95.9856 62.8886 112C53.8837 127.308 57.9998 132.873 57.9998 148C57.9998 164.456 44.8601 174.346 45.9998 196C47.1247 217.374 91.7139 223.069 105.111 232C132.086 249.984 164.057 257.664 190.222 278.222C210.364 294.048 214.12 324.684 184.222 335.556C155.596 345.965 138.996 375.004 118 396C99.3119 414.688 88.9606 450.038 100.222 475.778C104.617 485.824 123.626 494.97 117.111 508C111.555 519.111 89.4053 520.994 78.8886 524.889C69.5169 528.36 56.33 543.86 64.4442 553.778C69.0815 559.446 76.5556 561.868 81.1109 568C86.9109 575.808 86.4709 586.289 89.9998 595.111C96.1625 610.518 110.603 632.158 122.444 644C138.596 660.152 180.737 665.744 182 692.889C183.559 726.41 137.36 746.58 114 764.889C79.6451 791.816 77.9998 823.939 77.9998 863.778C77.9998 878.979 72.4575 905.985 81.5553 918.667C101.264 946.14 106.591 982.661 114 1016C117.392 1031.27 124.958 1034.83 126 1048.89C127.415 1067.99 152.868 1072.2 157.555 1089.78C166.801 1124.45 132.604 1130.09 106 1136C86.6943 1140.29 41.821 1161.13 60.222 1186.22C72.0889 1202.4 76.6427 1213.65 94.8886 1220.89C110.23 1226.98 142.235 1227.95 135.555 1252C124.586 1291.49 29.3706 1257.28 73.5553 1307.78C86.4015 1322.46 70.7503 1346.5 72.6664 1363.11C75.849 1390.69 99.1067 1403.11 117.778 1418.67C135.917 1433.78 154.111 1462.95 137.111 1484C119.124 1506.27 109.349 1517.81 110 1547.11C110.517 1570.38 115.643 1587.51 108 1610.44C104.024 1622.37 98.4941 1634.89 95.7775 1647.11C92.4243 1662.2 105.759 1670.53 114 1680.89C134.977 1707.26 138.225 1775.13 137.111 1808C135.678 1850.26 57.146 1839.41 85.9998 1884C93.097 1894.97 149.82 1956.42 133.778 1965.78C115.335 1976.54 159.564 1996.53 168.222 2007.11C180.345 2021.93 145.612 2048.3 136.222 2058.44C122.213 2073.57 104.126 2095.78 113.111 2116C122.656 2137.48 124.439 2154.05 122.222 2176.22C120.268 2195.76 110.368 2215.65 123.778 2232.89C133.054 2244.82 144.083 2256.8 147.333 2270.89C152.286 2292.35 104.725 2321.99 98.8886 2345.33C92.7771 2369.78 91.3182 2392.07 85.9998 2416 M86 2415.5C80.5 2443.5 75.2587 2460.08 74 2484C73.5308 2492.91 73.0314 2501.29 78 2508.89C88.8377 2525.46 103.718 2541.46 80 2552C51.8925 2564.49 78.2804 2587.28 94 2596.89C108.669 2605.85 110.926 2621.84 118 2634.22C127.594 2651.01 126.075 2669.56 143.778 2676C152.81 2679.28 204.456 2700.99 176.222 2715.11C152.597 2726.92 125.712 2724 100.222 2724C90.3232 2724 49.9594 2730.14 58.8889 2748C65.2504 2760.72 87.4574 2756 98.8889 2756C119.388 2756 136.404 2757.64 156.222 2764C161.888 2765.82 187.329 2768.81 181.111 2780C173.623 2793.48 146.303 2786.87 133.778 2790C107.119 2796.66 72.8434 2802.51 46 2804C19.8128 2805.45 -0.578953 2833.19 5.99994 2850C15.0002 2873 47.7778 2890.22 58.8889 2900C70 2909.78 88.7778 2930 107 2934.22C119 2937 137.818 2928.26 143.778 2934.22C151.718 2942.16 215 2934.22 223 2957C223 2977 190.667 2985.42 181.111 2994C165.394 3008.11 159.128 3006.4 153.111 3023.11C149.887 3032.07 130.887 3039.56 124.222 3046.22C116.856 3053.59 142.418 3057.91 146.444 3062.44C152.453 3069.2 187.439 3091.4 161.111 3092C154.525 3092.15 69.1788 3082.04 70 3096C70.9226 3111.68 104.023 3104.26 112.222 3112C120.115 3119.45 89.546 3126.82 98.8889 3142C104.148 3150.55 142.378 3157.07 119.556 3166C99.6713 3173.78 82.9881 3180.51 65.1111 3192C44.0847 3205.52 64.3883 3210.72 80.2222 3216C106.739 3224.84 135.092 3231.08 160 3244C172.861 3250.67 209.071 3267.58 183.556 3282C155.756 3297.71 123.689 3306.96 98 3326.22C84.9947 3335.98 44.9836 3363.35 51.1111 3383.78C57.1409 3403.88 112.947 3425.81 130.889 3439.11C160.515 3461.08 135.007 3474.4 126 3500C120.256 3516.32 50.177 3541.93 65.1111 3555C80.0452 3568.07 36.5618 3593.57 51.1111 3605C76.0804 3624.62 141 3602.11 173 3615C214.556 3631.74 137.54 3651.3 133.111 3675.11C130.359 3689.9 117.823 3702.51 110 3715.11C97.1641 3735.79 106 3753.68 106 3775.78C106 3793.34 105.294 3808.05 112 3824.44C118.971 3841.48 129.283 3866.26 130 3884.89C131.34 3919.73 108.479 3929.52 86 3952" stroke="#FFCC07" stroke-width="8" stroke-linecap="round" stroke-linejoin="round"/>
</svg>
