<svg width="242" height="91" viewBox="0 0 242 91" fill="none" xmlns="http://www.w3.org/2000/svg">
<g clip-path="url(#clip0)">
<path d="M241.877 5.54785H1.5918V84.2752H241.877V5.54785Z" fill="#0072BB"/>
<path d="M18.6287 61.0692L29.3889 72.7824C29.5578 72.9508 29.7008 73.1452 29.8177 73.1452H29.8567C29.9217 73.1452 29.9607 72.9897 29.9607 72.8342V63.2848C29.9607 61.8855 30.1686 60.4213 31.1693 59.9289C31.3772 59.8253 31.5201 59.7216 31.5201 59.6568C31.5201 59.5921 31.4162 59.5791 31.3122 59.5791H27.9594C27.7905 59.5791 27.6995 59.605 27.6995 59.6828C27.6995 59.7475 27.7385 59.7994 27.8554 59.8512C29.2459 60.4472 29.4539 62.0669 29.4539 63.9456V68.8175L20.474 59.6698H17.0822C16.8613 59.6698 16.7703 59.7087 16.7703 59.7735C16.7703 59.8382 16.9133 59.8901 17.1342 59.9937C17.732 60.2529 18.1089 60.7452 18.1089 63.3755V69.0767C18.1089 70.4242 17.849 71.9272 16.4974 72.5751C16.4195 72.5751 16.3545 72.6139 16.3545 72.6528C16.3545 72.6787 16.4195 72.6917 16.5364 72.6917H19.9672C20.3181 72.6917 20.4221 72.6658 20.4221 72.6139C20.4221 72.5751 20.3051 72.5492 20.1751 72.4973C18.8496 71.8883 18.6287 70.476 18.6287 69.0767V61.0692Z" fill="white"/>
<path d="M50.2857 66.174C50.2857 61.9759 46.569 59.2549 42.5664 59.2549C38.5639 59.2549 34.8472 61.9888 34.8472 66.174C34.8472 70.3721 38.5639 73.0931 42.5664 73.0931C46.569 73.0931 50.2857 70.3721 50.2857 66.174ZM47.5437 66.174C47.5437 69.2059 46.2831 72.5877 42.5664 72.5877C38.8498 72.5877 37.5892 69.2059 37.5892 66.174C37.5892 63.142 38.8498 59.7602 42.5664 59.7602C46.2831 59.7602 47.5437 63.142 47.5437 66.174Z" fill="white"/>
<path d="M55.8347 61.0692L66.5949 72.7824C66.7639 72.9508 66.9068 73.1452 67.0238 73.1452H67.0628C67.1278 73.1452 67.1667 72.9897 67.1667 72.8342V63.2848C67.1667 61.8855 67.3747 60.4213 68.3753 59.9289C68.5832 59.8253 68.7262 59.7216 68.7262 59.6568C68.7262 59.5921 68.6222 59.5791 68.5183 59.5791H65.1655C64.9965 59.5791 64.9055 59.605 64.9055 59.6828C64.9055 59.7475 64.9445 59.7994 65.0615 59.8512C66.452 60.4472 66.6599 62.0669 66.6599 63.9456V68.8175L57.6801 59.6698H54.2883C54.0674 59.6698 53.9764 59.7087 53.9764 59.7735C53.9764 59.8382 54.1193 59.8901 54.3403 59.9937C54.9381 60.2529 55.3149 60.7452 55.3149 63.3755V69.0767C55.3149 70.4242 55.055 71.9272 53.7035 72.5751C53.6255 72.5751 53.5605 72.6139 53.5605 72.6528C53.5605 72.6787 53.6255 72.6917 53.7425 72.6917H57.1733C57.5241 72.6917 57.6281 72.6658 57.6281 72.6139C57.6281 72.5751 57.5112 72.5492 57.3812 72.4973C56.0557 71.8883 55.8347 70.476 55.8347 69.0767V61.0692Z" fill="white"/>
<path d="M71.312 68.2085H76.1463L76.5102 66.5889H71.6889L71.312 68.2085Z" fill="white"/>
<path d="M88.0632 66.2388H83.7358L85.88 62.0018L88.0632 66.2388ZM88.3361 66.7441L89.5057 69.1411C89.9995 70.1 90.4284 71.0977 90.4284 71.4605C90.4284 71.9658 90.3244 72.3545 89.8566 72.5229C89.6877 72.5618 89.5837 72.6007 89.5837 72.6914C89.5837 72.7303 89.6877 72.7562 89.7916 72.7562C89.9086 72.7562 90.5843 72.6914 92.2608 72.6914C93.4433 72.6914 94.405 72.7562 94.5479 72.7562C94.7299 72.7562 94.8338 72.7173 94.8338 72.6525C94.8338 72.5489 94.5869 72.4711 94.366 72.3027C93.7552 71.8362 93.3394 71.2402 93.0015 70.6183L86.9976 59.4233C86.9586 59.3456 86.8937 59.2549 86.8287 59.2549H86.7767C86.7377 59.2549 86.6987 59.3197 86.6337 59.4233L81.6305 69.1152C81.1757 69.9963 80.0841 71.6807 79.2653 72.3286C79.1224 72.4322 78.8755 72.51 78.8755 72.6525C78.8755 72.7173 78.9405 72.7562 79.1484 72.7562C79.3953 72.7562 79.9281 72.6914 80.7468 72.6914C81.8644 72.6914 82.6052 72.7562 82.7481 72.7562C82.8911 72.7562 82.995 72.7303 82.995 72.6525C82.995 72.5877 82.9301 72.5489 82.7741 72.51C82.2283 72.3027 81.6695 72.0824 81.6695 71.2143C81.6695 70.385 82.0204 69.6076 82.3842 68.895L83.4889 66.757H88.3361V66.7441Z" fill="white"/>
<path d="M101.422 61.4449C101.422 60.6157 101.643 60.0585 102.254 59.7994C102.332 59.7605 102.436 59.7346 102.436 59.6828C102.436 59.605 102.371 59.5791 102.189 59.5791C101.864 59.5791 100.877 59.6568 100.227 59.6568C99.5771 59.6568 98.5894 59.5791 98.2646 59.5791C98.0826 59.5791 97.9527 59.605 97.9527 59.6568C97.9527 59.7216 98.0176 59.7605 98.1606 59.8253C98.7064 60.0067 99.0443 60.6157 99.0443 61.4579V69.5042C99.0443 71.3182 98.8363 72.0697 98.0436 72.4196C97.6928 72.5362 97.5498 72.5621 97.5498 72.601C97.5498 72.6658 97.6538 72.7046 98.0046 72.7046H110.012L110.844 69.7763C110.87 69.6727 110.922 69.569 110.922 69.4913C110.922 69.3876 110.857 69.3488 110.805 69.3488C110.701 69.3488 110.597 69.569 110.376 69.8411C109.129 71.2923 106.725 72.1993 105.009 72.1993H103.931C102.189 72.1993 101.422 72.0309 101.422 69.9966V61.4449Z" fill="white"/>
<path d="M127.673 69.3876C127.595 69.0766 127.569 69.0248 127.491 69.0248C127.387 69.0248 127.361 69.2062 127.27 69.4524C126.373 71.5126 124.866 72.588 122.865 72.588C118.498 72.588 117.069 69.2062 117.069 66.1742C117.069 63.1423 118.342 59.7605 122.046 59.7605C125.074 59.8253 126.334 61.108 126.763 62.8702C126.828 63.0904 126.932 63.4014 126.984 63.4014C127.049 63.4014 127.192 62.9479 127.27 62.7017L127.907 60.7841C126.23 59.7216 123.93 59.2422 122.046 59.2422C118.043 59.2422 114.327 61.9761 114.327 66.1613C114.327 70.8517 118.043 73.0804 122.046 73.0804C124.229 73.0804 126.503 72.6139 128.219 71.2275L127.673 69.3876Z" fill="white"/>
<path d="M147.517 66.174C147.517 61.9759 143.8 59.2549 139.798 59.2549C135.795 59.2549 132.079 61.9888 132.079 66.174C132.079 70.3721 135.795 73.0931 139.798 73.0931C143.8 73.0931 147.517 70.3721 147.517 66.174ZM144.788 66.174C144.788 69.2059 143.528 72.5877 139.811 72.5877C136.094 72.5877 134.834 69.2059 134.834 66.174C134.834 63.142 136.094 59.7602 139.811 59.7602C143.515 59.7602 144.788 63.142 144.788 66.174Z" fill="white"/>
<path d="M154.886 65.5653V61.4579C154.886 60.6286 155.107 59.9549 155.769 59.7864C155.873 59.7475 155.977 59.6828 155.977 59.6568C155.977 59.5921 155.86 59.5791 155.666 59.5791C155.341 59.5791 154.353 59.6568 153.703 59.6568C153.053 59.6568 152.066 59.5791 151.741 59.5791C151.559 59.5791 151.442 59.605 151.442 59.6568C151.442 59.6828 151.546 59.7346 151.65 59.7864C152.3 59.9419 152.534 60.6157 152.534 61.4579V70.5019C152.534 71.4996 152.352 72.0827 151.429 72.5362C151.312 72.601 151.247 72.6399 151.247 72.7046C151.247 72.7694 151.364 72.7694 151.572 72.7694C152.313 72.7694 152.547 72.7046 153.716 72.7046C154.886 72.7046 155.12 72.7694 155.86 72.7694C156.068 72.7694 156.185 72.7694 156.185 72.7046C156.185 72.6399 156.12 72.601 156.003 72.5362C155.081 72.0827 154.899 71.4996 154.899 70.5019V66.0836H162.683V70.5019C162.683 71.4996 162.501 72.0827 161.578 72.5362C161.461 72.601 161.396 72.6399 161.396 72.7046C161.396 72.7694 161.513 72.7694 161.721 72.7694C162.449 72.7694 162.696 72.7046 163.866 72.7046C165.035 72.7046 165.269 72.7694 166.01 72.7694C166.218 72.7694 166.335 72.7694 166.335 72.7046C166.335 72.6399 166.27 72.601 166.153 72.5362C165.23 72.0827 165.048 71.4996 165.048 70.5019V61.4579C165.048 60.6286 165.269 59.9549 165.919 59.7864C166.023 59.7475 166.127 59.6828 166.127 59.6568C166.127 59.5921 166.01 59.5791 165.815 59.5791C165.49 59.5791 164.502 59.6568 163.853 59.6568C163.203 59.6568 162.215 59.5791 161.89 59.5791C161.708 59.5791 161.578 59.605 161.578 59.6568C161.578 59.6828 161.682 59.7346 161.786 59.7864C162.436 59.9419 162.67 60.6157 162.67 61.4579V65.5653H154.886Z" fill="white"/>
<path d="M185.477 66.174C185.477 61.9759 181.76 59.2549 177.757 59.2549C173.755 59.2549 170.038 61.9888 170.038 66.174C170.038 70.3721 173.755 73.0931 177.757 73.0931C181.76 73.0931 185.477 70.3721 185.477 66.174ZM182.748 66.174C182.748 69.2059 181.487 72.5877 177.77 72.5877C174.054 72.5877 172.793 69.2059 172.793 66.174C172.793 63.142 174.054 59.7602 177.77 59.7602C181.474 59.7602 182.748 63.142 182.748 66.174Z" fill="white"/>
<path d="M192.91 61.4449C192.91 60.6157 193.131 60.0585 193.742 59.7994C193.82 59.7605 193.924 59.7346 193.924 59.6828C193.924 59.605 193.859 59.5791 193.677 59.5791C193.352 59.5791 192.364 59.6568 191.715 59.6568C191.065 59.6568 190.077 59.5791 189.752 59.5791C189.57 59.5791 189.44 59.605 189.44 59.6568C189.44 59.7216 189.505 59.7605 189.648 59.8253C190.207 60.0067 190.532 60.6157 190.532 61.4579V69.5042C190.532 71.3182 190.324 72.0697 189.531 72.4196C189.181 72.5362 189.038 72.5621 189.038 72.601C189.038 72.6658 189.142 72.7046 189.492 72.7046H201.5L202.332 69.7763C202.358 69.6727 202.41 69.569 202.41 69.4913C202.41 69.3876 202.345 69.3488 202.293 69.3488C202.189 69.3488 202.085 69.569 201.864 69.8411C200.617 71.2923 198.212 72.1993 196.497 72.1993H195.418C193.69 72.1993 192.91 72.0309 192.91 69.9966V61.4449Z" fill="white"/>
<path d="M206.789 70.489C206.789 71.4867 206.608 72.0697 205.828 72.4844C205.646 72.5621 205.503 72.601 205.503 72.6399C205.503 72.6787 205.568 72.6787 205.672 72.6787H210.22C210.402 72.6787 210.441 72.6528 210.441 72.6399C210.441 72.601 210.363 72.5751 210.155 72.4844C209.415 72.1604 209.155 71.4867 209.155 70.489V61.0821C209.155 60.4084 209.441 60.1233 209.687 59.9678C209.804 59.8901 210.012 59.8253 210.012 59.7475C210.012 59.605 209.83 59.5791 209.726 59.5791C209.609 59.5791 208.622 59.6568 207.972 59.6568C207.322 59.6568 206.14 59.5791 206.01 59.5791C205.828 59.5791 205.763 59.6828 205.763 59.7475C205.763 59.8123 205.906 59.8512 205.984 59.8642C206.491 59.9808 206.763 60.4731 206.776 61.4579V70.489" fill="white"/>
<path d="M227.556 69.3876C227.478 69.0766 227.452 69.0248 227.374 69.0248C227.27 69.0248 227.244 69.2062 227.153 69.4524C226.257 71.5126 224.749 72.588 222.748 72.588C218.381 72.588 216.952 69.2062 216.952 66.1742C216.952 63.1423 218.213 59.7605 221.929 59.7605C224.957 59.8253 226.218 61.108 226.647 62.8702C226.712 63.0904 226.816 63.4014 226.867 63.4014C226.932 63.4014 227.075 62.9479 227.153 62.7017L227.79 60.7841C226.114 59.7216 223.814 59.2422 221.929 59.2422C217.927 59.2422 214.21 61.9761 214.21 66.1613C214.21 70.8517 217.927 73.0804 221.929 73.0804C224.112 73.0804 226.387 72.6139 228.102 71.2275L227.556 69.3876Z" fill="white"/>
<path d="M51.7673 51.8438H17.6543V52.8414H52.7029L51.7673 51.8438Z" fill="white"/>
<path d="M67.6344 51.8438L66.8027 52.8414H174.86V51.8438H67.6344Z" fill="white"/>
<path d="M25.8671 33.1077V41.0763C25.8671 41.8926 25.8931 42.5923 26.231 42.9422C26.3999 43.1236 26.6728 43.2013 27.0497 43.2013H28.1413H30.5454C35.6007 43.2013 37.1601 40.8949 37.1601 40.8949L35.5227 47.5419H35.3667L16.0815 47.529C16.0815 47.529 18.1868 46.5054 18.1868 43.5382V20.7466C18.1868 17.7795 16.0945 16.7559 16.0945 16.7559H34.9639V23.0401C34.9639 23.0401 33.9762 21.0706 31.702 21.0706H25.8931V28.7023H32.8456V34.8181L32.4688 34.1832C32.4688 34.1702 31.754 33.0948 29.1159 33.0948H25.8671" fill="white"/>
<path d="M50.792 47.1015C52.5464 49.9391 54.4567 51.8438 58.0434 51.8438C61.6821 51.8438 62.137 50.7813 62.176 50.6647L62.241 50.4703L62.046 50.4055C62.033 50.4055 60.2267 49.8225 58.0564 46.4407C56.0291 43.2921 52.3514 36.1527 51.6757 34.8441C52.7023 34.4942 56.6919 32.8098 56.6919 27.8083C56.6919 25.7223 56.0551 24.0378 54.8206 22.8069C52.7153 20.7208 49.2195 20.2803 46.6594 20.2803H37.3027C37.3027 20.2803 38.9532 21.0577 38.9532 23.8305V43.9918C38.9532 46.7775 37.3027 47.555 37.3027 47.555H47.2312C47.2312 47.555 45.5808 46.7775 45.5808 43.9918L45.5938 36.6451C46.5945 38.8608 49.4405 44.9247 50.792 47.1015ZM45.5678 24.1804C45.7368 24.1804 45.9837 24.1804 46.2956 24.1804C47.5951 24.1544 48.5308 24.4525 49.1935 25.0874C49.8953 25.7741 50.2592 26.8754 50.2592 28.3525C50.2592 30.0629 49.8563 31.3197 49.0506 32.1101C48.2189 32.9264 47.0883 33.0819 46.2956 33.0689C45.9837 33.0689 45.7368 33.0689 45.5678 33.0689V24.1804Z" fill="white"/>
<path d="M174.808 47.1015C176.562 49.9391 178.472 51.8438 182.059 51.8438C185.698 51.8438 186.153 50.7813 186.192 50.6647L186.257 50.4703L186.062 50.4055C186.049 50.4055 184.242 49.8225 182.072 46.4407C180.045 43.2921 176.367 36.1527 175.691 34.8441C176.718 34.4942 180.708 32.8098 180.708 27.8083C180.708 25.7223 180.071 24.0378 178.836 22.8069C176.731 20.7208 173.248 20.2803 170.675 20.2803H161.318C161.318 20.2803 162.969 21.0577 162.969 23.8305V43.9918C162.969 46.7775 161.318 47.555 161.318 47.555H171.247C171.247 47.555 169.583 46.7775 169.583 43.9918L169.596 36.6451C170.623 38.8608 173.469 44.9247 174.808 47.1015ZM169.596 24.1804C169.765 24.1804 170.012 24.1804 170.324 24.1804C171.611 24.1544 172.559 24.4525 173.222 25.0874C173.924 25.7741 174.288 26.8754 174.288 28.3525C174.288 30.0629 173.885 31.3197 173.079 32.1101C172.248 32.9264 171.117 33.0819 170.324 33.0689C170.012 33.0689 169.765 33.0689 169.596 33.0689V24.1804Z" fill="white"/>
<path fill-rule="evenodd" clip-rule="evenodd" d="M59.1484 47.5286C59.1484 47.5286 60.7989 46.7512 60.7989 43.9654V23.8042C60.7989 21.0184 59.1484 20.2539 59.1484 20.2539H69.7787C71.9359 20.2539 75.9905 20.6944 78.9924 23.6875C81.3056 25.9939 82.4752 29.3239 82.4752 33.5868C82.4752 45.7146 73.6773 47.5286 68.4272 47.5286H59.1484ZM67.4265 43.5119C67.5695 43.5119 68.778 43.486 69.2719 43.486C70.3505 43.486 71.9359 43.3435 73.2095 42.0737C74.7429 40.5447 75.5227 37.6942 75.5227 33.5868C75.5227 25.1776 71.8839 24.1929 69.1549 24.1799H67.4265V43.5119Z" fill="white"/>
<path d="M93.3395 20.2676C93.3395 20.2676 91.689 21.045 91.689 23.8178V43.9791C91.689 46.7648 93.3395 47.5423 93.3395 47.5423H83.3979C83.3979 47.5423 85.0484 46.7648 85.0484 43.9791V23.8178C85.0484 21.032 83.3979 20.2676 83.3979 20.2676H93.3395Z" fill="white"/>
<path d="M112.897 34.9864V23.8174C112.897 21.0316 111.234 20.2671 111.234 20.2671H118.693C118.693 20.2671 117.043 21.0445 117.043 23.8174L117.03 48.0471H116.822H115.548C114.145 48.0471 111.949 47.0235 109.96 44.1341C108.752 42.3849 102.67 33.1853 101.097 30.8012V43.9657C101.097 46.7514 102.748 47.5289 102.748 47.5289H95.2885C95.2885 47.5289 96.9389 46.7514 96.9389 43.9657V25.1908C96.9389 22.4569 94.7947 20.6299 94.7687 20.604L94.3398 20.2412H103.021L112.897 34.9864Z" fill="white"/>
<path d="M141.383 33.2368V45.7275L141.37 45.7664C141.331 45.8571 140.474 48.0209 133.547 48.0209C132.235 48.0209 127.673 47.7358 124.074 44.1338C121.474 41.5423 120.149 37.9662 120.149 33.5089C120.149 29.2201 121.37 25.8254 123.801 23.4024C127.088 20.1243 131.403 19.7744 133.105 19.7744C137.576 19.7744 140.253 21.1867 140.253 21.1867V27.8337C140.253 27.8337 138.42 23.8429 133.547 23.8429C131.052 23.8429 126.868 25.1257 126.868 33.6903C126.868 37.9532 127.894 40.9074 129.934 42.4623C132.3 44.2763 135.237 43.5248 135.263 43.5118L135.12 43.7062V36.5798C135.12 33.9754 133.651 33.0166 133.651 33.0166H141.383V33.2368Z" fill="white"/>
<path d="M151.871 34.7145H154.028C156.107 34.7145 157.173 35.9584 157.173 35.9713L157.524 36.4119L157.55 30.5682H151.858V24.1156C152.559 24.1156 154.873 24.1156 154.873 24.1156C157.381 24.1285 158.381 25.4372 158.394 25.4502L158.758 25.9555V20.2803H143.177C143.177 20.2803 144.827 21.0577 144.827 23.8305V43.9918C144.827 46.7775 143.177 47.555 143.177 47.555H159.369L160.708 41.504C160.708 41.504 159.629 43.5901 155.34 43.5901C154.925 43.5901 154.457 43.5901 154.119 43.6031C153.001 43.629 152.261 43.6419 151.988 43.3698C151.923 43.305 151.832 43.1884 151.832 42.8775V34.7145" fill="white"/>
<path d="M188.453 34.7665C188.453 43.3052 194.742 53.0231 208.18 52.8287C221.604 53.0231 227.907 43.2923 227.907 34.7665V34.7535C227.907 26.2148 221.617 16.497 208.18 16.6913C194.742 16.5099 188.453 26.2407 188.453 34.7665Z" fill="#C39109"/>
<path d="M188.453 34.7665C188.453 43.3052 194.742 53.0231 208.18 52.8287C221.604 53.0231 227.907 43.2923 227.907 34.7665V34.7535C227.907 26.2148 221.617 16.497 208.18 16.6913C194.742 16.5099 188.453 26.2407 188.453 34.7665Z" stroke="#002850" stroke-width="0.176"/>
<path d="M197.965 34.7656C197.965 39.1581 201.266 43.5246 208.18 43.4209C215.093 43.5246 218.394 39.1581 218.394 34.7656V34.7526C218.394 30.3602 215.093 25.9548 208.18 26.0584C201.266 25.9677 197.965 30.3731 197.965 34.7656Z" fill="white"/>
<path d="M197.965 34.7656C197.965 39.1581 201.266 43.5246 208.18 43.4209C215.093 43.5246 218.394 39.1581 218.394 34.7656V34.7526C218.394 30.3602 215.093 25.9548 208.18 26.0584C201.266 25.9677 197.965 30.3731 197.965 34.7656Z" stroke="#002850" stroke-width="0.176"/>
<path d="M203.905 27.2505L205.204 26.8877V29.9197C205.204 29.9197 205.048 29.9197 204.476 29.4273C204.216 29.207 203.944 28.8183 203.918 28.4166C203.892 28.1186 203.905 27.2505 203.905 27.2505Z" fill="#002850"/>
<path d="M204.424 27.3544L204.931 27.2119V29.1814C204.931 29.1814 204.788 29.1425 204.541 28.8704C204.424 28.7409 204.424 28.4428 204.424 28.2614C204.424 28.08 204.424 27.3544 204.424 27.3544Z" fill="#C39109"/>
<path d="M204.424 27.3544L204.931 27.2119V29.1814C204.931 29.1814 204.788 29.1425 204.541 28.8704C204.424 28.7409 204.424 28.4428 204.424 28.2614C204.424 28.08 204.424 27.3544 204.424 27.3544Z" stroke="#002850" stroke-width="0.039" stroke-miterlimit="3.864"/>
<path d="M205.802 26.7464L206.997 26.5391V31.1777C206.997 31.1777 205.906 30.5298 205.841 30.1282C205.802 29.8561 205.802 26.7464 205.802 26.7464Z" fill="#002850"/>
<path d="M206.088 26.9269L206.75 26.8232V30.4124C206.75 30.4124 206.127 30.1143 206.101 29.8422C206.075 29.4924 206.088 26.9269 206.088 26.9269Z" fill="#C39109"/>
<path d="M206.088 26.9269L206.75 26.8232V30.4124C206.75 30.4124 206.127 30.1143 206.101 29.8422C206.075 29.4924 206.088 26.9269 206.088 26.9269Z" stroke="#002850" stroke-width="0.039" stroke-miterlimit="3.864"/>
<path d="M212.481 27.2505L211.182 26.8877V29.9197C211.182 29.9197 211.338 29.9197 211.909 29.4273C212.169 29.207 212.442 28.8183 212.468 28.4166C212.494 28.1186 212.481 27.2505 212.481 27.2505Z" fill="#002850"/>
<path d="M211.961 27.3544L211.455 27.2119V29.1814C211.455 29.1814 211.598 29.1425 211.844 28.8704C211.961 28.7409 211.961 28.4428 211.961 28.2614C211.961 28.08 211.961 27.3544 211.961 27.3544Z" fill="#C39109"/>
<path d="M211.961 27.3544L211.455 27.2119V29.1814C211.455 29.1814 211.598 29.1425 211.844 28.8704C211.961 28.7409 211.961 28.4428 211.961 28.2614C211.961 28.08 211.961 27.3544 211.961 27.3544Z" stroke="#002850" stroke-width="0.039" stroke-miterlimit="3.864"/>
<path d="M210.584 26.7464L209.389 26.5391V31.1777C209.389 31.1777 210.48 30.5298 210.545 30.1282C210.584 29.8561 210.584 26.7464 210.584 26.7464Z" fill="#002850"/>
<path d="M210.298 26.9269L209.635 26.8232V30.4124C209.635 30.4124 210.272 30.1143 210.285 29.8422C210.311 29.4924 210.298 26.9269 210.298 26.9269Z" fill="#C39109"/>
<path d="M210.298 26.9269L209.635 26.8232V30.4124C209.635 30.4124 210.272 30.1143 210.285 29.8422C210.311 29.4924 210.298 26.9269 210.298 26.9269Z" stroke="#002850" stroke-width="0.039" stroke-miterlimit="3.864"/>
<path d="M208.843 31.501C208.869 31.2937 208.856 26.4736 208.856 26.4736H207.608C207.608 26.4736 207.582 31.2937 207.608 31.501C207.66 31.8897 208.219 32.395 208.219 32.395C208.219 32.395 208.804 31.8897 208.843 31.501Z" fill="#002850"/>
<path d="M208.583 31.1896C208.596 31.073 208.583 26.7842 208.583 26.7842H207.855C207.855 26.7842 207.842 31.073 207.855 31.1896C207.881 31.4099 208.206 31.7079 208.206 31.7079C208.206 31.7079 208.557 31.4228 208.583 31.1896Z" fill="#C39109"/>
<path d="M208.583 31.1896C208.596 31.073 208.583 26.7842 208.583 26.7842H207.855C207.855 26.7842 207.842 31.073 207.855 31.1896C207.881 31.4099 208.206 31.7079 208.206 31.7079C208.206 31.7079 208.557 31.4228 208.583 31.1896Z" stroke="#002850" stroke-width="0.039" stroke-miterlimit="3.864"/>
<path d="M208.232 36.3987C208.232 36.3987 208.479 35.9192 208.895 35.6083C209.337 35.2714 209.986 34.7013 211.416 33.7295C212.17 33.2242 212.416 32.6022 212.468 32.3949C212.598 31.9803 212.546 29.4277 212.546 29.4277C212.546 29.4277 211.949 30.1663 210.35 31.3454C209.882 31.6823 209.531 31.9155 209.038 32.4467C208.414 33.1335 208.648 34.3126 208.596 34.6365C208.544 34.9604 208.635 35.4528 208.219 35.401H208.206C207.79 35.4528 207.868 34.9475 207.829 34.6365C207.777 34.3126 208.011 33.1464 207.387 32.4597C206.906 31.9155 206.542 31.6952 206.075 31.3583C204.476 30.1792 203.878 29.4407 203.878 29.4407C203.878 29.4407 203.826 31.9932 203.956 32.4079C204.021 32.6022 204.268 33.2242 205.022 33.7424C206.452 34.7142 207.088 35.2973 207.543 35.6342C207.972 35.9192 208.232 36.4116 208.232 36.3987Z" fill="#002850"/>
<path d="M208.959 34.8826C209.284 34.6883 210.207 33.9627 211.208 33.2759C211.728 32.9261 211.87 32.4726 211.948 32.343C212.117 32.045 212.013 30.542 212.013 30.542C212.013 30.542 211.455 30.9566 210.337 31.7859C210.012 32.0321 209.479 32.356 209.206 32.8095C208.894 33.3148 208.998 34.6494 208.959 34.8826Z" fill="#C39109"/>
<path d="M208.959 34.8826C209.284 34.6883 210.207 33.9627 211.208 33.2759C211.728 32.9261 211.87 32.4726 211.948 32.343C212.117 32.045 212.013 30.542 212.013 30.542C212.013 30.542 211.455 30.9566 210.337 31.7859C210.012 32.0321 209.479 32.356 209.206 32.8095C208.894 33.3148 208.998 34.6494 208.959 34.8826Z" stroke="#002850" stroke-width="0.039" stroke-miterlimit="3.864"/>
<path d="M207.517 34.8826C207.179 34.6883 206.27 33.9627 205.269 33.2759C204.749 32.9261 204.606 32.4726 204.528 32.343C204.359 32.045 204.463 30.542 204.463 30.542C204.463 30.542 205.022 30.9566 206.14 31.7859C206.465 32.0321 206.997 32.356 207.27 32.8095C207.569 33.3148 207.478 34.6494 207.517 34.8826Z" fill="#C39109"/>
<path d="M207.517 34.8826C207.179 34.6883 206.27 33.9627 205.269 33.2759C204.749 32.9261 204.606 32.4726 204.528 32.343C204.359 32.045 204.463 30.542 204.463 30.542C204.463 30.542 205.022 30.9566 206.14 31.7859C206.465 32.0321 206.997 32.356 207.27 32.8095C207.569 33.3148 207.478 34.6494 207.517 34.8826Z" stroke="#002850" stroke-width="0.039" stroke-miterlimit="3.864"/>
<path d="M208.232 40.2212C208.232 40.2212 208.479 39.7418 208.895 39.4308C209.337 39.0939 209.986 38.5238 211.416 37.5391C212.17 37.0337 212.416 36.4118 212.468 36.2045C212.598 35.7899 212.546 33.2373 212.546 33.2373C212.546 33.2373 211.949 33.9759 210.35 35.155C209.882 35.4918 209.531 35.7251 209.038 36.2563C208.414 36.943 208.648 38.1221 208.596 38.4331C208.544 38.757 208.635 39.2494 208.219 39.1976H208.206C207.79 39.2494 207.868 38.7441 207.829 38.4331C207.777 38.1092 208.011 36.943 207.387 36.2563C206.906 35.7251 206.542 35.4918 206.075 35.155C204.476 33.9759 203.878 33.2373 203.878 33.2373C203.878 33.2373 203.826 35.7899 203.956 36.2045C204.021 36.3988 204.268 37.0208 205.022 37.5391C206.452 38.5108 207.088 39.0939 207.543 39.4308C207.972 39.7418 208.232 40.2341 208.232 40.2212Z" fill="#002850"/>
<path d="M208.959 38.7049C209.284 38.5105 210.207 37.7849 211.208 37.0982C211.728 36.7484 211.87 36.2949 211.948 36.1653C212.117 35.8673 212.013 34.3643 212.013 34.3643C212.013 34.3643 211.455 34.7789 210.337 35.6081C210.012 35.8543 209.479 36.1783 209.206 36.6318C208.894 37.1371 208.998 38.4846 208.959 38.7049Z" fill="#C39109"/>
<path d="M208.959 38.7049C209.284 38.5105 210.207 37.7849 211.208 37.0982C211.728 36.7484 211.87 36.2949 211.948 36.1653C212.117 35.8673 212.013 34.3643 212.013 34.3643C212.013 34.3643 211.455 34.7789 210.337 35.6081C210.012 35.8543 209.479 36.1783 209.206 36.6318C208.894 37.1371 208.998 38.4846 208.959 38.7049Z" stroke="#002850" stroke-width="0.039" stroke-miterlimit="3.864"/>
<path d="M207.517 38.7049C207.179 38.4976 206.27 37.7849 205.269 37.0982C204.749 36.7484 204.606 36.2949 204.528 36.1653C204.359 35.8673 204.463 34.3643 204.463 34.3643C204.463 34.3643 205.022 34.7789 206.14 35.6081C206.465 35.8543 206.997 36.1783 207.27 36.6318C207.569 37.1371 207.478 38.4846 207.517 38.7049Z" fill="#C39109"/>
<path d="M207.517 38.7049C207.179 38.4976 206.27 37.7849 205.269 37.0982C204.749 36.7484 204.606 36.2949 204.528 36.1653C204.359 35.8673 204.463 34.3643 204.463 34.3643C204.463 34.3643 205.022 34.7789 206.14 35.6081C206.465 35.8543 206.997 36.1783 207.27 36.6318C207.569 37.1371 207.478 38.4846 207.517 38.7049Z" stroke="#002850" stroke-width="0.039" stroke-miterlimit="3.864"/>
<path d="M208.245 43.0588C212.338 42.8385 212.494 39.4696 212.559 39.2235C212.663 38.8088 212.598 37.2021 212.598 37.2021C212.598 37.2021 211.909 37.9148 211 38.6533C210.584 38.9902 209.297 39.9879 209.05 40.3248C208.596 40.9468 208.933 42.6312 208.245 42.5016C207.556 42.6312 207.894 40.9597 207.439 40.3248C207.192 39.975 205.905 38.9643 205.49 38.6533C204.528 37.9277 203.891 37.2021 203.891 37.2021C203.891 37.2021 203.813 38.7959 203.93 39.2235C203.995 39.4696 204.151 42.8385 208.245 43.0588Z" fill="#002850"/>
<path d="M208.946 42.4236C212.611 41.6332 212.091 38.2773 212.091 38.2773C212.091 38.2773 211.259 38.8993 210.259 39.6378C209.934 39.884 209.492 40.182 209.245 40.6485C208.985 41.102 209.037 42.2163 208.946 42.4236Z" fill="#C39109"/>
<path d="M208.946 42.4236C212.611 41.6332 212.091 38.2773 212.091 38.2773C212.091 38.2773 211.259 38.8993 210.259 39.6378C209.934 39.884 209.492 40.182 209.245 40.6485C208.985 41.102 209.037 42.2163 208.946 42.4236Z" stroke="#002850" stroke-width="0.039" stroke-miterlimit="3.864"/>
<path d="M207.556 42.4236C203.891 41.6332 204.411 38.2773 204.411 38.2773C204.411 38.2773 205.217 38.9122 206.243 39.6378C206.568 39.8711 207.01 40.182 207.257 40.6485C207.517 41.102 207.452 42.2163 207.556 42.4236Z" fill="#C39109"/>
<path d="M207.556 42.4236C203.891 41.6332 204.411 38.2773 204.411 38.2773C204.411 38.2773 205.217 38.9122 206.243 39.6378C206.568 39.8711 207.01 40.182 207.257 40.6485C207.517 41.102 207.452 42.2163 207.556 42.4236Z" stroke="#002850" stroke-width="0.039" stroke-miterlimit="3.864"/>
<path d="M208.18 24.9056C200.435 24.789 196.77 29.6608 196.679 34.5716H190.025C190.116 26.7585 195.912 18.129 208.18 18.3104C220.448 18.129 226.244 26.7585 226.335 34.5716H219.681C219.59 29.6608 215.912 24.789 208.18 24.9056Z" fill="#002850"/>
<path d="M208.18 24.9056C200.435 24.789 196.77 29.6608 196.679 34.5716H190.025C190.116 26.7585 195.912 18.129 208.18 18.3104C220.448 18.129 226.244 26.7585 226.335 34.5716H219.681C219.59 29.6608 215.912 24.789 208.18 24.9056Z" stroke="#002850" stroke-width="0.176"/>
<path d="M208.18 44.5881C200.72 44.6917 197.03 40.2215 196.692 35.4922H190.038C190.376 43.1498 196.185 51.3905 208.18 51.2221C220.174 51.3905 225.983 43.1498 226.321 35.4922H219.668C219.317 40.2215 215.639 44.6917 208.18 44.5881Z" fill="#D2072A"/>
<path d="M208.18 44.5881C200.72 44.6917 197.03 40.2215 196.692 35.4922H190.038C190.376 43.1498 196.185 51.3905 208.18 51.2221C220.174 51.3905 225.983 43.1498 226.321 35.4922H219.668C219.317 40.2215 215.639 44.6917 208.18 44.5881Z" stroke="#002850" stroke-width="0.177"/>
<path d="M195.938 32.4599C195.886 32.4858 195.847 32.2266 195.6 32.0841C195.34 31.9286 192.144 30.594 191.832 30.5811C191.598 30.5681 191.325 30.6588 191.338 30.607C191.429 30.3608 192.274 28.2358 192.442 27.873C192.442 27.873 193.391 28.2358 193.313 28.2618C192.897 28.3784 192.637 29.3502 192.637 29.3502L193.729 29.7907C193.729 29.7907 194.106 28.8578 194.158 28.8578C194.21 28.8448 195.055 29.2076 195.029 29.2206C194.613 29.3502 194.47 30.0887 194.47 30.0887L195.743 30.607C195.743 30.607 196.484 29.5834 196.237 28.8967C196.198 28.806 197.212 29.3761 197.212 29.3761C197.147 29.4797 196.029 32.3951 195.938 32.4599Z" fill="white"/>
<path d="M198.888 27.0311C198.044 27.0311 196.809 26.7201 196.809 26.7201C196.809 26.7201 197.537 27.3679 197.94 27.666C198.213 27.8603 198.499 27.8085 198.499 27.8344C198.499 27.8862 197.212 29.3115 197.199 29.3504C197.199 29.3504 197.134 28.8839 196.9 28.6766C196.198 28.0676 194.912 26.9533 194.171 26.3055C193.911 26.0722 193.443 26.0722 193.456 26.0593C193.625 25.8908 194.99 24.1287 195.731 23.7529C195.925 23.6493 196.497 23.4808 197.056 23.8825C197.888 24.4656 197.433 25.4633 197.433 25.4633C197.498 25.541 199.174 26.3314 200.24 26.137C200.24 26.1241 199.434 27.0311 198.888 27.0311Z" fill="white"/>
<path d="M195.223 25.2687C195.223 25.2687 195.73 24.6338 196.38 25.1651C196.731 25.4501 196.692 25.8907 196.601 26.1628C196.536 26.3312 196.445 26.4089 196.445 26.4089L195.223 25.2687Z" fill="#002850"/>
<path d="M219.979 30.9306C220.304 30.1532 221.084 29.1555 221.084 29.1555C221.084 29.1555 220.187 29.5571 219.772 29.8163C219.486 29.9847 219.421 30.2827 219.395 30.2568C219.356 30.2309 218.55 28.4947 218.524 28.4687C218.524 28.4687 218.979 28.5983 219.265 28.4687C220.109 28.08 221.643 27.3415 222.54 26.9139C222.851 26.7584 223.033 26.3438 223.046 26.3567C223.137 26.59 224.216 28.5206 224.268 29.3498C224.281 29.5701 224.203 30.1661 223.618 30.516C222.747 31.0343 222.02 30.2309 222.02 30.2309C221.929 30.2568 220.668 31.6821 220.525 32.5891C220.512 32.5891 219.668 31.6821 219.979 30.9306Z" fill="white"/>
<path d="M223.06 28.2744C223.06 28.2744 223.436 28.9871 222.696 29.3758C222.293 29.5831 221.903 29.3758 221.695 29.1814C221.565 29.0518 221.539 28.9352 221.539 28.9352L223.06 28.2744Z" fill="#002850"/>
<path d="M216.25 26.0454C216.237 25.9936 216.497 26.0454 216.731 25.8899C216.978 25.7085 219.473 23.3115 219.603 23.0264C219.707 22.8191 219.733 22.5341 219.759 22.5729C219.954 22.7414 221.578 24.361 221.851 24.659C221.851 24.659 221.136 25.3846 221.149 25.3069C221.201 24.8793 220.422 24.2573 220.422 24.2573L219.577 25.0866C219.577 25.0866 220.292 25.7863 220.266 25.8511C220.253 25.9029 219.59 26.5378 219.59 26.4989C219.642 26.0713 219.005 25.6438 219.005 25.6438L218.03 26.6155C218.03 26.6155 218.68 27.7039 219.421 27.7428C219.512 27.7428 218.498 28.4814 218.498 28.4814C218.42 28.3647 216.276 26.1491 216.25 26.0454Z" fill="white"/>
<path d="M200.057 26.2272C200.057 26.2272 200.161 25.9292 199.992 25.5794C199.837 25.2425 198.784 23.2341 198.264 22.2883C198.108 21.9902 197.653 21.8477 197.679 21.8477C197.757 21.8348 199.72 20.6427 200.733 20.4743C202.059 20.254 202.916 21.3553 203.046 21.5886C203.969 23.2989 203.163 24.18 203.046 24.3614C202.527 25.1388 200.902 25.7219 200.057 26.2272Z" fill="white"/>
<path d="M199.642 21.7575C199.642 21.7575 200.799 20.6302 201.747 22.3276C202.787 24.1805 201.15 24.7247 201.15 24.7247L199.642 21.7575Z" fill="#002850"/>
<path d="M203.67 19.5284L205.672 19.2822C205.594 19.5155 205.477 19.8394 205.516 20.1115C205.672 21.3035 205.958 23.5581 205.984 23.7006C206.023 23.9209 206.296 24.193 206.296 24.193C206.088 24.2189 204.554 24.3873 204.359 24.4132C204.359 24.4132 204.541 24.0764 204.528 23.8561C204.502 23.1175 204.177 20.9537 204.073 20.2799C203.995 19.9042 203.826 19.7228 203.67 19.5284Z" fill="white"/>
<path d="M207.062 19.1917C207.049 19.1788 208.362 19.1917 208.57 19.1788C208.674 19.1658 210.87 22.1848 210.87 22.1848C210.87 22.1848 210.922 20.1117 210.909 19.8266C210.883 19.399 210.571 19.2306 210.597 19.2306C210.74 19.2176 211.779 19.2695 212.039 19.2824C212.091 19.2824 211.818 19.4768 211.779 19.9043C211.74 20.2412 211.675 24.1024 211.662 24.3098C211.649 24.4782 210.649 24.1931 209.973 23.4157C209.635 23.027 208.245 21.2001 208.245 21.2001C208.245 21.2001 208.206 22.8845 208.219 23.5194C208.219 23.8563 208.427 24.0636 208.505 24.1543C208.518 24.1802 207.166 24.1413 207.062 24.1413C207.062 24.1413 207.348 23.8692 207.374 23.4546C207.387 23.027 207.452 20.4874 207.426 20.0598C207.426 19.7229 207.205 19.3861 207.062 19.1917Z" fill="white"/>
<path d="M218.017 21.5505C217.926 21.4339 217.537 21.0063 216.679 20.5917C215.756 20.1512 214.262 20.0864 213.352 21.2784C212.377 22.5612 212.741 23.9087 213.664 24.7639C214.613 25.645 215.847 25.8264 216.055 25.8393C216.107 25.8393 217.251 23.7792 217.251 23.7792C216.744 23.5071 216.198 23.1702 215.886 23.0276C215.821 23.0017 215.899 23.3386 215.808 23.52C215.743 23.6366 215.223 24.5954 215.119 24.6991C215.067 24.7509 214.405 24.4011 214.223 23.8958C214.093 23.533 214.106 23.0924 214.366 22.5482C214.73 21.7838 215.366 21.2655 215.795 21.2784C217.108 21.3043 217.446 22.5482 217.524 22.4057C217.731 22.0429 218.03 21.5635 218.017 21.5505Z" fill="white"/>
<path d="M199.408 43.512C199.967 43.9137 201.032 44.5097 201.071 44.5097C201.11 44.5227 200.772 45.028 200.759 45.0021C200.733 44.9503 200.629 44.7559 200.512 44.6652C200.304 44.4968 199.85 44.2765 199.72 44.1988C199.707 44.1858 199.252 44.9891 199.161 45.1317C199.122 45.1835 199.928 45.5981 199.98 45.65C199.993 45.6629 199.72 46.1035 199.707 46.0905C199.655 46.0128 199.603 45.935 199.434 45.8054C199.369 45.7666 198.979 45.5204 198.94 45.5333C198.862 45.5722 198.355 46.531 198.251 46.6865C198.199 46.7643 198.94 47.2566 199.369 47.3473C199.577 47.3992 199.811 47.4121 199.915 47.4251C199.915 47.4251 199.499 47.8008 199.369 47.8786C199.369 47.8786 197.25 46.7513 197.276 46.7254C197.328 46.6347 197.549 46.5829 197.653 46.4144C198.472 45.0669 199.226 43.8489 199.148 43.7712C199.096 43.7193 195.795 45.2224 195.496 45.2742C195.418 45.2872 195.34 44.8984 195.431 44.5745C195.509 44.3024 196.744 42.4366 196.679 42.3718C196.588 42.2941 194.158 43.2659 193.833 43.2788C193.755 43.2788 193.755 42.8901 193.794 42.6828C193.846 42.3718 195.613 40.0784 195.756 39.8322C195.925 39.5472 195.873 39.3528 195.899 39.2751C195.925 39.2232 196.341 39.9618 196.38 40.0266C196.406 40.0654 196.276 40.1432 196.198 40.2857C196.055 40.5449 194.508 42.5014 194.56 42.5273C194.664 42.5921 196.289 41.9572 196.978 41.711C197.354 41.5685 197.302 41.1927 197.341 41.2316C197.445 41.3482 197.718 41.6721 197.822 41.8017C197.861 41.8406 197.679 41.9183 197.627 42.0479C197.471 42.3848 196.029 44.5097 196.133 44.5486C196.224 44.5745 198.16 43.6027 198.407 43.4602C198.55 43.3825 198.81 43.1752 198.836 42.9938C198.849 42.9808 198.849 43.1104 199.408 43.512Z" fill="white"/>
<path d="M200.5 48.4103C200.461 48.3973 200.747 48.2548 200.825 48.0215C201.137 47.0886 201.864 45.4172 201.877 45.1969C201.877 45.0544 201.838 44.9118 201.851 44.8989C201.851 44.873 202.748 45.2099 202.735 45.2358C202.735 45.2487 202.605 45.3265 202.514 45.4301C202.371 45.5986 201.799 47.3348 201.422 48.2418C201.318 48.475 201.448 48.7601 201.409 48.7471C201.331 48.7212 200.565 48.4362 200.5 48.4103Z" fill="white"/>
<path d="M205.594 45.9353C205.347 45.7927 204.658 45.6113 204.229 45.6373C203.697 45.6761 203.255 46.013 203.177 46.3888C203.047 47.0107 203.528 47.4124 203.697 47.516C204.801 48.2028 204.827 48.3971 204.775 48.6563C204.736 48.9024 204.372 49.0579 204.151 49.045C203.281 49.0061 202.839 48.449 202.748 48.4619C202.722 48.4619 202.748 49.1098 202.761 49.1227C203.06 49.2782 203.632 49.5244 204.021 49.5114C204.32 49.5114 205.1 49.5114 205.425 48.6951C205.516 48.4749 205.516 48.0602 205.061 47.6586C204.541 47.2051 203.71 46.9071 203.905 46.4147C204.047 46.0389 204.502 46.0519 204.84 46.1426C205.178 46.2203 205.451 46.5831 205.477 46.5313C205.477 46.4665 205.633 45.9612 205.594 45.9353Z" fill="white"/>
<path d="M208.635 46.2333C208.375 46.1296 207.647 46.0519 207.231 46.1426C206.711 46.2592 206.321 46.6609 206.309 47.0366C206.27 47.6715 206.802 47.9954 206.984 48.0732C208.18 48.5915 208.232 48.7729 208.219 49.045C208.206 49.2911 207.868 49.4985 207.66 49.5244C206.789 49.6151 206.27 49.1357 206.192 49.1616C206.179 49.1616 206.283 49.8094 206.309 49.8094C206.62 49.9131 207.218 50.0686 207.608 50.0167C207.894 49.9649 208.687 49.8483 208.869 49.0061C208.921 48.7729 208.869 48.3582 208.362 48.0343C207.777 47.6715 206.906 47.4901 207.036 46.9718C207.127 46.5831 207.582 46.5313 207.92 46.5572C208.271 46.5961 208.596 46.907 208.596 46.8552C208.596 46.7775 208.687 46.2592 208.635 46.2333Z" fill="white"/>
<path d="M210.636 47.4897C210.636 47.4897 211.753 47.5934 211.61 46.7382C211.494 46.0256 210.493 46.3625 210.493 46.3625C210.493 46.3625 210.623 47.3861 210.636 47.4897ZM210.87 49.3685C210.87 49.3685 212.416 49.3815 212.234 48.3579C212.078 47.4768 210.675 47.8785 210.675 47.8785C210.675 47.8785 210.857 49.239 210.87 49.3685ZM209.622 46.0904C209.661 46.0774 210.012 46.0515 210.441 45.9867C211.091 45.896 212.247 45.7276 212.364 46.6087C212.429 47.1269 211.909 47.399 211.935 47.412C212.117 47.4768 212.806 47.4897 212.923 48.2542C212.962 48.4745 212.975 49.1094 212.247 49.4592C211.623 49.7702 210.22 49.8091 210.103 49.8479C210.025 49.8739 210.22 49.7832 210.22 49.4074C210.22 49.0446 209.895 46.518 209.843 46.4143C209.7 46.1811 209.596 46.1033 209.622 46.0904Z" fill="white"/>
<path d="M218.316 42.2422C218.329 42.1904 218.836 41.4 218.862 41.413C218.888 41.413 219.044 41.711 219.304 41.8924C219.823 42.2552 220.681 42.8901 221.162 43.0844C221.604 43.2788 222.085 42.7864 222.137 42.7216C222.474 42.294 222.565 41.8146 222.228 41.5166C221.734 41.089 220.447 40.2727 220.187 40.1561C220.005 40.0784 219.758 40.0784 219.784 40.0525C219.849 39.9747 220.2 39.4046 220.278 39.3269C220.304 39.288 220.59 39.6897 220.772 39.7674C220.876 39.8063 222.903 41.1668 223.02 41.2445C223.241 41.3741 223.371 41.3093 223.527 41.3611L223.085 41.996C223.085 41.996 222.812 41.8405 222.812 41.8924C222.812 42.0349 222.838 42.6439 222.409 43.1881C221.916 43.823 221.552 43.81 221.279 43.8359C220.746 43.8618 219.278 42.5661 218.758 42.3847C218.68 42.3459 218.316 42.2422 218.316 42.2422Z" fill="white"/>
<path d="M216.042 44.5618C216.211 44.5488 216.341 44.4192 216.328 44.2508C216.328 44.0824 216.185 43.9528 216.016 43.9657C215.847 43.9657 215.717 44.1083 215.73 44.2767C215.743 44.4322 215.873 44.5618 216.042 44.5618Z" fill="white"/>
<path d="M217.705 43.1497C217.874 43.1497 218.004 43.0071 217.991 42.8387C217.991 42.6702 217.848 42.5407 217.679 42.5536C217.51 42.5536 217.38 42.6962 217.393 42.8646C217.393 43.033 217.536 43.1626 217.705 43.1497Z" fill="white"/>
<path d="M217.563 45.3911C217.576 45.417 218.238 44.8728 218.446 44.7044C218.459 44.6914 217.225 43.9917 217.186 44.0306C217.147 44.0565 217.524 45.2875 217.563 45.3911ZM212.91 45.6632C213.261 45.5077 214.392 44.821 214.898 44.8469C215.626 44.8858 215.769 45.4429 215.769 45.6114C215.808 46.2074 215.223 46.5832 215.249 46.6091C215.717 46.9848 217.42 47.542 217.485 47.4383C217.55 47.3347 216.757 44.6007 216.679 44.1343C216.666 44.0436 216.549 43.914 216.419 43.7974C216.393 43.7715 217.069 43.2402 217.082 43.2402C217.186 43.2402 220.11 44.9117 220.357 45.0024C220.551 45.0801 220.863 45.0931 220.863 45.0931C220.863 45.1449 220.006 45.7928 219.98 45.7928C219.954 45.8057 219.993 45.6243 219.915 45.5336C219.837 45.4559 218.875 44.8858 218.823 44.9117C218.732 44.9765 217.654 45.8187 217.667 45.8446C217.679 45.9094 217.952 46.8423 218.017 46.946C218.095 47.1014 218.264 47.1403 218.251 47.1662C218.173 47.2699 216.991 47.8918 216.978 47.8918C216.276 47.9696 214.47 46.92 214.47 46.92C214.535 46.8034 215.496 46.2981 215.041 45.5984C214.652 44.9894 213.755 45.5725 213.755 45.5725C213.911 45.8964 214.807 47.8918 214.924 48.0732C215.054 48.3194 215.171 48.449 215.366 48.5526C215.431 48.5915 214.509 48.9673 214.431 48.9802C214.392 48.9932 214.522 48.8247 214.392 48.4749C214.301 48.2417 213.326 45.9353 213.183 45.741C213.131 45.6632 212.91 45.6632 212.91 45.6632Z" fill="white"/>
</g>
<defs>
<clipPath id="clip0">
<rect width="241" height="90" fill="white" transform="translate(0.876953 0.857422)"/>
</clipPath>
</defs>
</svg>
