<svg width="245" height="50" viewBox="0 0 245 50" fill="none" xmlns="http://www.w3.org/2000/svg">
<g clip-path="url(#clip0)">
<path d="M242.789 47.3026C242.821 47.3579 242.837 47.3895 242.837 47.4132C242.837 47.4844 242.797 47.5081 242.67 47.5081H242.543C242.416 47.5081 242.416 47.5081 242.36 47.3974L241.669 46.204H241.495L241.352 47.35C241.336 47.5002 241.328 47.5002 241.177 47.5002H241.042C240.915 47.5002 240.883 47.4765 240.883 47.3974C240.883 47.3816 240.883 47.3421 240.891 47.3184L241.241 44.4811C241.256 44.3389 241.264 44.331 241.415 44.331H241.884C242.257 44.331 242.456 44.3863 242.622 44.5206C242.813 44.6787 242.924 44.9395 242.924 45.2319C242.924 45.5006 242.821 45.7456 242.646 45.9116C242.519 46.0381 242.384 46.0934 242.13 46.1566L242.789 47.3026ZM241.542 45.801H241.757C242.043 45.801 242.186 45.7615 242.297 45.6429C242.384 45.5402 242.448 45.3979 242.448 45.2477C242.448 45.0581 242.352 44.9 242.201 44.8368C242.13 44.8052 242.003 44.7894 241.86 44.7894H241.661L241.542 45.801ZM241.9 43.2957C240.439 43.2957 239.255 44.4732 239.255 45.9274C239.255 47.3816 240.439 48.5592 241.9 48.5592C243.361 48.5592 244.544 47.3816 244.544 45.9274C244.544 44.4811 243.361 43.2957 241.9 43.2957ZM241.9 48.2194C240.629 48.2194 239.605 47.1998 239.605 45.9353C239.605 44.6708 240.629 43.6513 241.9 43.6513C243.17 43.6513 244.195 44.6708 244.195 45.9353C244.187 47.1919 243.162 48.2194 241.9 48.2194ZM220.126 22.5023L220.158 21.9095L222.587 2.27C222.722 1.21097 222.786 1.14774 223.882 1.14774H234.284C235.213 1.14774 235.483 1.31371 235.483 1.87484L235.452 2.46758L235.15 4.88597C235.015 5.945 234.951 6.00823 233.856 6.00823H227.955L227.487 9.81758H233.204C234.165 9.81758 234.435 9.98355 234.435 10.5447C234.435 10.679 234.435 10.679 234.372 11.1374L234.07 13.5558C233.935 14.6148 233.871 14.6781 232.776 14.6781H226.891L226.423 18.3531H232.156C233.117 18.3531 233.387 18.519 233.387 19.0802C233.387 19.2145 233.387 19.2777 233.324 19.6729L233.022 22.0913C232.887 23.1503 232.823 23.2136 231.727 23.2136H221.325C220.396 23.2373 220.126 23.0713 220.126 22.5023ZM196.049 23.2373H199.599C200.694 23.2373 200.766 23.174 200.893 22.115C200.893 22.115 202.02 12.0068 202.314 9.18533C203.299 10.8529 210.144 22.439 210.144 22.439C210.644 23.2373 210.644 23.2373 211.542 23.2373H216.004C217.1 23.2373 217.172 23.174 217.299 22.115L219.729 2.47549C219.76 2.20678 219.76 2.0092 219.76 1.88274C219.76 1.32162 219.49 1.15565 218.53 1.15565H215.004C213.908 1.15565 213.837 1.21887 213.71 2.27791C213.71 2.27791 212.828 9.71484 212.153 14.8756C210.096 11.4061 204.466 1.94597 204.466 1.94597C204.006 1.14774 204.006 1.14774 203.069 1.14774H198.606C197.51 1.14774 197.439 1.21097 197.312 2.27L194.882 21.9095L194.85 22.5023C194.85 23.0713 195.112 23.2373 196.049 23.2373ZM181.779 23.4823C174.553 23.4823 169.923 18.9458 170.312 12.2834C170.717 5.36016 176.197 0.483873 183.55 0.483873C190.506 0.483873 194.913 4.89387 194.532 11.4536C194.381 14.1011 193.309 16.9542 191.697 19.009C189.394 21.9253 185.972 23.4823 181.779 23.4823ZM181.978 17.8473C185.567 17.8473 188.195 15.4368 188.402 11.9277C188.608 8.45033 186.409 6.12678 182.978 6.12678C179.389 6.12678 176.626 8.6321 176.427 12.0779C176.228 15.5316 178.452 17.8473 181.978 17.8473ZM237.485 35.1553H231.767L232.236 31.346H238.136C239.232 31.346 239.303 31.2827 239.43 30.2237L239.732 27.8053L239.764 27.2126C239.764 26.6515 239.502 26.4855 238.564 26.4855H228.162C227.066 26.4855 226.995 26.5487 226.868 27.6077L224.438 47.2473L224.406 47.84C224.406 48.4011 224.668 48.5671 225.605 48.5671H236.008C237.103 48.5671 237.175 48.5039 237.302 47.4448L237.604 45.0265C237.667 44.6313 237.667 44.5602 237.667 44.4337C237.667 43.8726 237.397 43.7066 236.436 43.7066H230.703L231.172 40.0316H237.056C238.152 40.0316 238.223 39.9684 238.35 38.9094L238.652 36.491C238.715 36.0247 238.715 36.0247 238.715 35.8982C238.715 35.3213 238.445 35.1553 237.485 35.1553ZM222.802 26.4776H219.276C218.18 26.4776 218.109 26.5408 217.982 27.5998C217.982 27.5998 217.1 35.0368 216.425 40.1976C214.369 36.7281 208.738 27.2679 208.738 27.2679C208.27 26.4697 208.27 26.4697 207.341 26.4697H202.878C201.782 26.4697 201.711 26.5329 201.584 27.5919L199.154 47.2315L199.122 47.8242C199.122 48.3853 199.384 48.5513 200.321 48.5513H203.871C204.967 48.5513 205.038 48.4881 205.165 47.429C205.165 47.429 206.293 37.3208 206.587 34.4994C207.571 36.1669 214.416 47.7531 214.416 47.7531C214.917 48.5513 214.917 48.5513 215.814 48.5513H220.277C221.372 48.5513 221.444 48.4881 221.571 47.429L224.001 27.7895C224.033 27.5208 224.033 27.3232 224.033 27.1968C224.033 26.6436 223.763 26.4776 222.802 26.4776ZM198.804 36.7913C198.654 39.4389 197.582 42.2919 195.97 44.3468C193.667 47.2631 190.244 48.82 186.051 48.82C178.825 48.82 174.196 44.2836 174.585 37.6211C174.99 30.6979 180.469 25.8216 187.822 25.8216C194.778 25.8216 199.186 30.2316 198.804 36.7913ZM187.25 31.4645C183.661 31.4645 180.898 33.9698 180.699 37.4156C180.501 40.8615 182.724 43.185 186.25 43.185C189.839 43.185 192.468 40.7745 192.674 37.2655C192.873 33.7802 190.681 31.4645 187.25 31.4645ZM104.554 21.3168C104.411 21.4195 102.418 22.6919 101.187 23.1582C99.9482 23.6324 98.2012 24.0197 97.0815 24.2173C96.478 24.32 93.9687 24.6598 93.9449 24.6677C93.3016 24.7705 92.579 24.8811 91.6817 25.0076C90.57 25.1656 89.1962 25.3632 87.3857 25.6477L86.8298 25.7426C83.0102 26.3827 82.2082 26.525 79.1907 27.6473C77.7057 28.1926 76.8719 28.6115 76.3081 28.896L76.1652 28.9671C75.9587 29.0856 75.6331 29.2674 75.2123 29.5124C74.442 29.9629 73.1635 30.69 72.0597 31.2353C71.5833 31.4724 71.3054 31.5436 70.6542 31.4171C70.011 31.2669 69.7807 31.0931 69.4472 30.6821C68.661 29.7337 67.7955 28.5561 67.2714 27.829C66.9855 27.4339 66.7632 27.1336 66.6282 26.9439L66.5249 26.8174C66.1199 26.3274 65.5323 25.6082 64.3968 24.5097C62.1018 22.2652 61.4269 21.8068 58.1949 19.6729L57.7264 19.3568C56.1859 18.361 55.0186 17.626 54.0657 17.0332C53.2954 16.5511 52.6839 16.1639 52.136 15.8082C52.1122 15.7924 49.9602 14.4647 49.4599 14.1248C48.515 13.4926 47.0777 12.4336 46.1406 11.4931C45.2036 10.5684 43.9092 8.59258 43.814 8.44242C43.7187 8.28436 43.8934 8.04726 44.0522 7.93662C44.1395 7.87339 44.3301 7.79436 44.481 7.82597C44.5366 7.84178 44.5842 7.86549 44.616 7.905C44.6557 7.95242 44.7589 8.07097 44.8939 8.24484C45.3465 8.79016 46.2836 9.92823 46.9506 10.6079C48.2847 11.9673 50.2858 13.1765 51.0402 13.6269C51.1672 13.706 51.2625 13.7613 51.3102 13.7929C51.6278 13.9984 52.8031 14.6386 53.2954 14.8915C54.5342 15.5237 56.0191 16.1797 57.3691 16.7013C58.8223 17.2624 60.196 17.784 61.2681 18.3294L61.4428 18.4163C62.9674 19.1434 65.445 20.9295 66.0167 21.3958C66.9696 22.1624 69.7569 23.7115 70.5986 24.154C70.8368 24.2963 71.353 24.5413 72.0756 24.7073C72.8062 24.8495 73.37 24.8337 73.6479 24.7942C74.6008 24.731 77.7772 24.4386 78.9604 24.1303C79.6751 23.9406 82.6608 23.3084 84.3602 23.261L84.5587 23.2531C85.7578 23.1898 87.2269 23.2689 88.7833 23.34C90.2365 23.4111 91.8564 23.4032 93.246 23.3321C93.8019 23.3005 95.136 23.1898 95.5092 23.1266C95.5648 23.1187 95.676 23.1029 95.8268 23.0871C96.7083 22.9844 99.027 22.6919 100.798 21.9886C101.687 21.6408 103.005 20.9848 103.641 20.6687C103.839 20.566 103.982 20.5027 104.038 20.4711C104.085 20.4553 104.133 20.4474 104.197 20.4553C104.347 20.4869 104.49 20.645 104.546 20.7319C104.641 20.9216 104.705 21.2061 104.554 21.3168ZM173.195 46.781L165.119 2.44387C164.984 1.69307 164.325 1.14774 163.555 1.14774H152.747C150.81 1.14774 150.627 1.19516 150 2.28581L149.666 2.92597L129.711 37.6923L121.77 25.2684L138.692 4.49871C139.462 3.57403 139.74 2.90226 139.74 2.40436C139.74 1.47178 139.264 1.15565 137.175 1.15565H128.273C126.931 1.15565 126.804 1.23468 125.701 2.57823L109.985 21.7752L113.233 3.93758C113.44 2.94178 113.44 2.94178 113.456 2.64936C113.527 1.43226 112.971 1.15565 110.891 1.15565H103.696C101.33 1.15565 101.179 1.21887 100.758 3.50291L97.8121 19.8152C96.8115 8.02355 87.8621 0.357422 74.4658 0.357422C64.3491 0.357422 55.9 4.68049 50.9528 11.7144C51.2466 11.8961 51.5404 12.0858 51.866 12.2755C52.009 12.3624 52.1201 12.4336 52.1757 12.4652C52.1837 12.4731 52.1916 12.4731 52.1995 12.481C52.406 12.6232 53.486 13.216 54.0259 13.4926C55.2091 14.0932 56.6385 14.7334 57.9567 15.2392L58.0599 15.2787C59.5131 15.8398 60.8869 16.3615 61.9986 16.9305L62.1574 17.0095C62.1733 17.0174 62.1892 17.0253 62.213 17.0332C64.8018 13.9352 68.7881 12.0384 73.3938 12.0384C79.8339 12.0384 84.2728 15.7845 85.1146 21.6645C86.2104 21.6408 87.4492 21.704 88.7594 21.7673L88.8786 21.7752C90.2841 21.8384 91.8485 21.8384 93.1825 21.7673C93.786 21.7356 95.0169 21.625 95.263 21.5855C95.271 21.5855 95.2789 21.5855 95.2948 21.5776C95.3583 21.5697 95.4854 21.5539 95.6521 21.5302C97.6215 21.2931 99.162 20.9532 100.234 20.5265C101.06 20.2024 102.338 19.5623 102.95 19.2619C103.053 19.2066 103.148 19.1592 103.228 19.1276L103.315 19.0881C103.363 19.0644 103.402 19.0406 103.458 19.0248C103.8 18.8826 104.173 18.851 104.53 18.9221C105.229 19.0723 105.713 19.5623 105.951 19.9732C106.491 20.9374 106.293 22.0439 105.483 22.605C105.459 22.6208 103.252 24.0671 101.767 24.6282C100.139 25.2526 97.9947 25.6556 97.3753 25.7663C96.9545 25.8374 95.7871 26.0034 94.5881 26.1694C94.3975 26.1931 94.2625 26.2168 94.2148 26.2247C93.5716 26.3274 92.8411 26.4381 91.9199 26.5645C90.8479 26.7147 89.4979 26.9123 87.6636 27.1968L87.0998 27.2916C86.1548 27.4497 85.4004 27.5761 84.7652 27.6947C83.1929 33.7169 77.9836 37.6686 71.2101 37.6686C63.5074 37.6686 58.6476 32.6026 59.0843 25.0629C59.1399 24.154 59.2749 23.2847 59.4813 22.439C58.9017 22.0439 58.2187 21.5855 57.3214 21.0006L56.8529 20.6924C55.3044 19.6966 54.153 18.9695 53.2239 18.3926C52.4378 17.9026 51.8104 17.5074 51.2705 17.1518C51.2308 17.1281 51.1116 17.0569 50.9449 16.9542C49.9205 16.3219 48.92 15.6976 48.5706 15.4605C48.0465 15.1127 46.2518 13.8719 45.013 12.639C43.8775 11.5168 42.464 9.31968 42.4561 9.29597C41.9399 8.45033 42.2099 7.35968 43.0993 6.69581C43.4804 6.41129 44.1236 6.16629 44.7986 6.30065C45.1877 6.38758 45.5133 6.56936 45.7674 6.83807C45.8071 6.87758 45.8389 6.9171 45.8786 6.96452L45.9342 7.02774C45.9898 7.09097 46.0612 7.17791 46.1406 7.27274C46.5694 7.79436 47.4747 8.89291 48.0941 9.51726C48.515 9.94404 49.0549 10.4024 49.714 10.8766L50.9766 3.92968L51.1513 2.64145C51.2943 1.47178 50.667 1.14774 48.5864 1.14774H41.1617C38.7953 1.14774 38.6444 1.21097 38.2236 3.495L35.5554 18.4163H18.4269L21.0633 3.92178C21.2618 2.92597 21.2618 2.92597 21.2856 2.63355C21.3571 1.42436 20.8012 1.14774 18.7207 1.14774H11.3436C8.97723 1.14774 8.82635 1.21097 8.40548 3.495L0.694867 45.8326L0.55193 47.1129C0.480462 48.33 1.02838 48.5671 3.03743 48.5671H10.4145C12.7809 48.5671 12.9318 48.5434 13.3527 46.2594L16.5211 28.9118H33.6575L30.5924 45.8326C30.4097 46.5439 30.3938 46.8284 30.37 47.1129C30.2985 48.33 31.0609 48.5671 33.1414 48.5671H40.3279C42.6943 48.5671 42.8452 48.5434 43.266 46.2594L46.3153 29.5124C47.4032 41.4779 56.7894 49.3574 70.686 49.3574C79.6274 49.3574 86.9172 46.0381 91.8167 39.8261C93.1508 38.1348 94.3022 36.1907 95.2392 34.12L93.1269 45.8326L92.984 47.1129C92.8411 48.33 93.3969 48.5671 95.406 48.5671H102.6C104.967 48.5671 105.118 48.5434 105.539 46.2594L108.993 27.3469C109.723 28.9908 110.383 30.2948 112.217 33.4798L120.531 47.1129C121.404 48.5039 121.508 48.5671 122.866 48.5671H135.484C137.493 48.5671 137.636 48.6145 138.303 47.3974L138.636 46.7573L142.233 39.9763H158.973L159.997 47.429C160.085 48.085 160.648 48.5671 161.307 48.5671H171.71C172.647 48.5671 173.362 47.7136 173.195 46.781ZM147.459 30.4845L155.058 15.3736L157.131 30.4766H147.459V30.4845Z" fill="#0082CA"/>
</g>
<defs>
<clipPath id="clip0">
<rect width="244" height="49" fill="white" transform="translate(0.543457 0.357422)"/>
</clipPath>
</defs>
</svg>
