<svg width="101" height="25" viewBox="0 0 101 25" fill="none" xmlns="http://www.w3.org/2000/svg">
<path d="M21.5087 3.7051C21.5065 2.73766 21.1284 1.82804 20.4412 1.14304C19.0245 -0.26698 16.7204 -0.264756 15.3059 1.14749L14.9323 1.52112L14.5609 1.15416L14.5631 1.15194C13.1442 -0.258084 10.8401 -0.25586 9.42566 1.16083C8.01119 2.57753 8.01564 4.87715 9.43456 6.28717L9.43678 6.28495L13.2154 10.0369L18.7087 4.53688C19.1668 4.07873 19.1668 3.33369 18.7065 2.87777C18.2483 2.42185 17.501 2.42185 17.0429 2.87999L16.6715 3.2514L16.1133 2.6954L16.4847 2.32399C17.2497 1.55893 18.4952 1.55671 19.2625 2.31954C20.0297 3.08238 20.032 4.3256 19.2669 5.09288L19.2713 5.09511L13.7758 10.5951L14.0827 10.8998L19.576 5.39979C20.0275 4.9461 20.2766 4.34561 20.2766 3.7051C20.2766 3.06459 20.0253 2.4641 19.5716 2.01263C18.6331 1.08299 17.1118 1.08522 16.1778 2.0193L15.8063 2.39071L15.2392 1.82804L15.6106 1.45663C16.8561 0.211182 18.8844 0.206734 20.132 1.44995C21.3797 2.69318 21.3842 4.71702 20.1387 5.96247L14.6454 11.4624L14.9523 11.7671L20.4456 6.26716L20.4479 6.26938C21.1351 5.58439 21.5109 4.67254 21.5087 3.7051ZM17.352 3.18913C17.6412 2.90001 18.1104 2.90001 18.3995 3.18691C18.6887 3.47603 18.6887 3.94307 18.4018 4.23219L14.9434 7.69275L11.474 4.24109C11.1849 3.95419 11.1849 3.48492 11.4718 3.1958C11.7609 2.90668 12.2301 2.90668 12.5193 3.19358L14.9323 5.59328L15.2392 5.28637L12.8239 2.88444C12.3636 2.43297 11.623 2.43519 11.1671 2.89111C10.7089 3.34926 10.7111 4.0943 11.1693 4.55022L14.6387 8.00188L14.0827 8.56011L10.6133 5.10845C9.846 4.34561 9.84378 3.10239 10.6088 2.33511C11.3739 1.57005 12.6193 1.56783 13.3866 2.33066L13.3888 2.32844L15.8041 4.73037L16.111 4.42345L13.6935 2.0193L13.6913 2.02153C12.7528 1.09189 11.2316 1.09411 10.2997 2.0282C9.84822 2.48189 9.59913 3.08238 9.59913 3.72289C9.59913 4.36341 9.85045 4.96389 10.3041 5.41536L13.7736 8.86702L13.2109 9.4297L9.7437 5.97804L9.74147 5.98026C8.4938 4.73704 8.48935 2.71319 9.7348 1.46775C10.9802 0.222302 13.0085 0.217854 14.2562 1.46107L14.254 1.4633L16.6737 3.86745L16.9806 3.56054V3.55832L17.352 3.18913Z" fill="black"/>
<path d="M4.43159 0.935693L1.1445 0.940918L1.16031 10.8867L4.44739 10.8815L4.43159 0.935693Z" fill="black"/>
<path d="M4.80874 13.9155C6.10311 13.9133 7.48422 14.2091 8.46723 14.734L8.47168 17.5763C7.50423 16.9669 6.27881 16.6133 5.1668 16.6288C4.49737 16.6288 4.28387 16.8001 4.28609 17.0714C4.28832 18.1078 9.12776 17.6319 9.13221 21.0835C9.13666 23.6278 7.24402 24.3106 4.95107 24.315C3.44319 24.3172 2.08877 23.9925 0.992336 23.3831L0.990112 20.4141C2.22889 21.2214 3.55439 21.575 4.62192 21.5728C5.49151 21.5706 5.74504 21.4149 5.74504 21.088C5.74282 20.0649 0.903376 20.4719 0.898928 17.0047C0.896704 14.9163 2.64477 13.9178 4.80874 13.9155Z" fill="black"/>
<path d="M19.5806 14.1201L19.5894 20.2006C19.5939 23.2697 17.3321 24.295 14.9702 24.2994C12.6061 24.3039 10.342 23.283 10.3376 20.2161L10.3287 14.1335L13.618 14.129L13.6269 20.0538C13.6291 20.9767 14.1117 21.3593 14.968 21.3593C15.8353 21.357 16.3202 20.9745 16.3179 20.0493L16.309 14.1246L19.5806 14.1201Z" fill="black"/>
<path d="M25.6854 14.1094C28.2186 14.1049 30.1557 14.9834 30.1601 17.7812C30.1646 20.5657 28.2297 21.4486 25.6965 21.4531L24.629 21.4553L24.6335 24.0552L21.3442 24.0596L21.3286 14.1138L25.6854 14.1094ZM25.661 16.8093L24.6223 16.8116L24.6246 18.7576L25.6632 18.7553C26.4171 18.7531 26.9019 18.4684 26.8997 17.7879C26.8997 17.0918 26.4149 16.8093 25.661 16.8093Z" fill="black"/>
<path d="M38.8428 14.0894L38.8472 16.6759L34.5905 16.6826L34.5927 17.8324L38.3357 17.8257L38.3401 20.241L34.5971 20.2476V21.4264L38.9406 21.4197L38.9451 24.0329L31.3145 24.0462L31.2989 14.1005L38.8428 14.0894Z" fill="black"/>
<path d="M40.5464 24.0306L40.5308 14.0848L45.1568 14.0781C47.2785 14.0759 49.4002 14.8677 49.4046 17.5809C49.4068 19.1289 48.6974 20.054 47.701 20.5522L50.2675 24.015L46.6513 24.0217L44.5963 21.0838L43.8268 21.086L43.8313 24.0261L40.5464 24.0306ZM43.8246 18.6285L45.0923 18.6262C45.7328 18.6262 46.102 18.2415 46.102 17.6877C46.102 17.1339 45.7306 16.7514 45.09 16.7514L43.8224 16.7536L43.8246 18.6285Z" fill="black"/>
<path d="M54.709 13.8355C56.0056 13.8332 57.3867 14.129 58.3698 14.6539L58.3742 17.4962C57.4045 16.8868 56.1813 16.5332 55.0693 16.5488C54.3999 16.5488 54.1864 16.72 54.1886 16.9913C54.1908 18.0277 59.0303 17.5518 59.0347 21.0034C59.0392 23.5477 57.1466 24.2305 54.8536 24.2349C53.3457 24.2372 51.9913 23.9124 50.8949 23.3031L50.8904 20.334C52.1314 21.1413 53.4547 21.4949 54.5222 21.4927C55.3896 21.4905 55.6476 21.3348 55.6453 21.0079C55.6431 19.9848 50.8037 20.3896 50.7992 16.9246C50.797 14.8363 52.5473 13.8399 54.709 13.8355Z" fill="black"/>
<path d="M64.7615 14.0488C67.2968 14.0444 69.2317 14.9229 69.2362 17.7207C69.2406 20.5051 67.3057 21.3881 64.7726 21.3925L63.7051 21.3947L63.7095 23.9946L60.4224 23.9991L60.4069 14.0533L64.7615 14.0488ZM64.737 16.7466L63.6984 16.7488L63.7006 18.6948L64.7392 18.6926C65.4932 18.6904 65.978 18.4057 65.9758 17.7251C65.9758 17.029 65.4909 16.7466 64.737 16.7466Z" fill="black"/>
<path d="M75.4454 13.8042C79.0327 13.7975 80.843 16.1394 80.8475 18.995C80.8519 21.8507 79.0483 24.197 75.4609 24.2037C71.8736 24.2104 70.061 21.8685 70.0566 19.0128C70.0544 16.1572 71.858 13.8087 75.4454 13.8042ZM75.4498 16.7733C74.1688 16.7755 73.4304 17.6429 73.4326 19.0062C73.4349 20.3695 74.1754 21.2346 75.4587 21.2324C76.7397 21.2302 77.4781 20.3628 77.4759 18.9995C77.4714 17.6362 76.7308 16.771 75.4498 16.7733Z" fill="black"/>
<path d="M82.2218 23.9656L82.2062 14.0199L86.8322 14.0132C88.9539 14.0088 91.0756 14.8027 91.08 17.516C91.0823 19.0639 90.3728 19.9891 89.3764 20.4873L91.9429 23.9501L88.3267 23.9567L86.2717 21.0188L85.5022 21.0211L85.5067 23.9612L82.2218 23.9656ZM85.5022 18.5613L86.7699 18.5591C87.4104 18.5591 87.7796 18.1743 87.7796 17.6205C87.7796 17.0668 87.4082 16.6842 86.7677 16.6842L85.5 16.6865L85.5022 18.5613Z" fill="black"/>
<path d="M100.695 13.9912L100.699 16.8602L98.0214 16.8646L98.0325 23.9414L94.7587 23.9459L94.7476 16.8713L92.0721 16.8735L92.0677 14.0046L100.695 13.9912Z" fill="black"/>
</svg>
