<svg width="220" height="110" viewBox="0 0 220 110" fill="none" xmlns="http://www.w3.org/2000/svg">
<g clip-path="url(#clip0)">
<path d="M110.827 105.274H111.647C112.271 103.602 112.59 101.993 112.59 98.5265V98.29H119.657V105.274H120.706L120.413 109.361H118.238V107.516H113.307L113.133 109.361H110.827V105.274ZM117.083 105.274V100.528H115.07V100.621C115.07 102.665 114.764 104.007 114.339 105.274H117.083Z" fill="black"/>
<path d="M121.856 98.2861H129.318V100.461H124.4V101.858H128.855V103.877H124.4V105.338H129.386V107.512H121.856V98.2861Z" fill="black"/>
<path d="M130.831 98.2861H135.591C136.759 98.2861 137.579 98.5775 138.123 99.118C138.492 99.4853 138.721 99.9751 138.721 100.634C138.721 101.702 138.11 102.336 137.29 102.69C138.416 103.058 139.133 103.691 139.133 104.97C139.133 106.554 137.834 107.512 135.621 107.512H130.835V98.2861H130.831ZM134.954 101.964C135.736 101.964 136.173 101.698 136.173 101.132C136.173 100.63 135.774 100.342 135.005 100.342H133.336V101.964H134.954ZM135.324 105.456C136.105 105.456 136.556 105.152 136.556 104.586C136.556 104.084 136.156 103.754 135.298 103.754H133.336V105.456H135.324Z" fill="black"/>
<path d="M140.441 98.2861H147.903V100.461H142.985V101.858H147.44V103.877H142.985V105.338H147.971V107.512H140.441V98.2861Z" fill="black"/>
<path d="M149.088 107.432L149.263 105.469C149.381 105.494 149.738 105.524 149.861 105.524C150.592 105.524 151.28 105.156 151.28 99.5656V98.2861H158.411V107.512H155.837V100.528H153.675V100.883C153.675 106.512 152.431 107.643 150.626 107.643C149.951 107.643 149.288 107.5 149.088 107.432Z" fill="black"/>
<path d="M159.867 102.901C159.867 100.254 162.016 98.1045 164.879 98.1045C167.741 98.1045 169.865 100.224 169.865 102.901C169.865 105.549 167.716 107.698 164.853 107.698C161.986 107.698 159.867 105.574 159.867 102.901ZM167.236 102.901C167.236 101.571 166.267 100.41 164.849 100.41C163.443 100.41 162.5 101.542 162.5 102.901C162.5 104.231 163.469 105.393 164.874 105.393C166.297 105.393 167.236 104.257 167.236 102.901Z" fill="black"/>
<path d="M171.334 98.2861H179.645V107.512H177.072V100.528H173.903V107.512H171.33V98.2861H171.334Z" fill="black"/>
<path d="M181.421 98.2861H184.139L186.351 101.858L188.564 98.2861H191.282V107.512H188.726V102.213L186.351 105.823H186.296L183.935 102.238V107.512H181.417V98.2861H181.421Z" fill="black"/>
<path d="M193.062 98.2861H200.523V100.461H195.605V101.858H200.061V103.877H195.605V105.338H200.591V107.512H193.062V98.2861Z" fill="black"/>
<path d="M202.036 98.2861H204.609V101.74H207.909V98.2861H210.479V107.512H207.909V104.008H204.609V107.512H202.036V98.2861Z" fill="black"/>
<path d="M214.521 100.528H211.735V98.29H219.873V100.528H217.091V107.512H214.517V100.528H214.521Z" fill="black"/>
<path d="M187.341 53.688C187.43 53.6457 187.464 53.612 187.498 53.612C193.945 53.6626 200.443 52.8646 206.809 54.1736C213.281 55.5036 217.898 59.8739 219.32 66.782C220.272 71.3761 220.051 75.8604 218.246 80.2222C216.424 84.6179 213.184 87.5314 208.75 88.8826C206.371 89.6089 203.815 89.9594 201.326 90.0649C196.956 90.2507 192.564 90.124 188.182 90.124C187.927 90.124 187.668 90.0903 187.336 90.0607V53.688H187.341ZM195.045 71.7814C195.045 75.2355 195.049 78.681 195.045 82.1308C195.04 82.7304 195.023 83.2413 195.881 83.216C198.255 83.1484 200.646 83.2878 203.004 83.064C206.495 82.7304 209.34 81.1554 210.805 77.7521C212.122 74.7034 212.207 71.4985 211.553 68.2725C210.644 63.7629 207.573 60.9591 203.038 60.6044C200.748 60.4271 198.438 60.5031 196.145 60.3933C195.223 60.3469 195.023 60.7016 195.036 61.5545C195.066 64.9621 195.045 68.3739 195.045 71.7814Z" fill="black"/>
<path d="M143.75 90.1236C140.688 90.1236 137.923 90.1363 135.154 90.0982C134.89 90.094 134.559 89.8196 134.376 89.5789C131.438 85.766 128.541 81.9192 125.572 78.1316C125.241 77.7136 124.566 77.4011 124.027 77.3505C122.812 77.2365 119.329 77.2956 119.329 77.2956C119.329 77.2956 119.283 77.5912 119.295 78.4019C119.334 81.8137 119.308 85.2255 119.308 88.6373V90.0476H111.608V53.6284C111.914 53.5946 112.165 53.5439 112.42 53.5439C117.733 53.5524 123.041 53.5228 128.35 53.6073C131.013 53.6495 133.54 54.3673 135.863 55.7439C139.01 57.6144 140.522 60.5111 140.772 64.0665C140.887 65.6499 140.755 67.3051 140.407 68.8548C139.651 72.2497 137.413 74.4496 134.313 75.8093C133.918 75.9866 133.519 76.1682 133 76.4004C136.572 80.9523 140.072 85.4239 143.75 90.1236ZM119.312 70.7465C121.818 70.7465 124.179 70.7549 126.549 70.738C127.174 70.738 127.815 70.7422 128.431 70.6198C131.518 70.0075 133.077 68.1538 132.949 65.3079C132.826 62.5844 131.085 60.7898 127.993 60.5533C125.364 60.3549 122.727 60.452 120.085 60.4013C119.499 60.3844 119.3 60.6293 119.308 61.1909C119.325 62.6181 119.312 64.0453 119.312 65.4683V70.7465Z" fill="black"/>
<path d="M183.739 90.1233C181.153 90.1233 178.702 90.1487 176.256 90.0938C175.984 90.0853 175.606 89.6546 175.475 89.3337C174.778 87.6405 174.124 85.9304 173.508 84.2076C173.275 83.5615 172.952 83.2871 172.221 83.2871C167.32 83.3208 162.415 83.3208 157.51 83.2955C156.758 83.2871 156.397 83.532 156.138 84.2625C155.514 86.019 154.787 87.746 154.057 89.4604C153.938 89.7306 153.59 90.0895 153.343 90.0895C150.897 90.1402 148.451 90.1191 145.831 90.1191C146.671 88.0036 147.432 86.0359 148.23 84.0725C152.227 74.2044 156.244 64.3406 160.224 54.4642C160.504 53.7632 160.852 53.5015 161.6 53.5183C163.791 53.5648 165.987 53.5395 168.178 53.5268C168.739 53.5226 169.113 53.6155 169.367 54.2531C174.073 65.9705 178.804 77.6796 183.535 89.3886C183.595 89.5659 183.633 89.7475 183.739 90.1233ZM164.81 61.4989C162.882 66.5744 160.971 71.6034 159.017 76.7422H170.646C168.679 71.6118 166.751 66.5744 164.81 61.4989Z" fill="black"/>
<path d="M44.1623 90.1408H36.437V53.6456C38.8153 53.6456 41.1427 53.6287 43.4658 53.6751C43.7078 53.6794 43.9966 54.034 44.175 54.2916C48.9911 61.0814 53.7987 67.8881 58.6063 74.6864C59.1838 75.5013 59.7742 76.3036 60.4962 77.3001V53.692H68.1492V90.1957C65.8091 90.1957 63.4818 90.2168 61.1587 90.1619C60.8911 90.1577 60.5811 89.7481 60.3773 89.4609C55.2172 82.1729 50.0698 74.8806 44.914 67.5925C44.7356 67.3392 44.519 67.1069 44.1623 66.6847V90.1408Z" fill="black"/>
<path d="M25.9935 53.6875H18.3447V90.1025H25.9935V53.6875Z" fill="black"/>
<path d="M103.658 70.1431C103.654 69.8856 103.599 69.4253 103.119 69.4253C102.919 69.4169 102.724 69.4211 102.529 69.4169V69.4084H101.564C99.8445 69.3873 98.1075 69.3915 96.2982 69.3915V69.4084H90.0552V76.4769H96.2855C96.2855 78.3137 96.294 80.1463 96.3322 81.8268C96.2982 83.7987 95.5805 83.803 94.3489 84.0352C93.44 84.1999 92.408 84.2083 90.9173 84.0859C87.7618 83.8241 84.8654 82.8107 82.7164 80.2983C80.818 78.0899 80.2574 75.4128 80.0748 72.5711C79.7393 67.1409 82.7037 62.5975 87.8213 60.9845C92.7138 59.4433 97.3982 60.1569 101.913 62.4455C102.159 62.5679 102.414 62.6693 102.834 62.8551C102.834 60.6974 102.796 58.7001 102.856 56.7113C102.881 55.8795 102.635 55.4572 101.849 55.1616C96.8843 53.2826 91.8219 52.6366 86.5981 53.802C82.7461 54.6634 79.3018 56.3355 76.6559 59.3673C72.2603 64.4089 71.4619 70.4176 72.6765 76.7007C74.0568 83.879 78.6181 88.2408 85.5449 90.1198C91.4779 91.7286 98.7233 91.0572 102.928 88.8024C103.251 88.68 103.646 88.1986 103.646 87.8861C103.692 82.3546 103.692 75.6746 103.658 70.1431Z" fill="black"/>
<path d="M8.52577 99.8652V40.7796L60.4961 13.0672V43.9296H68.1492V0.357422L0.876953 36.2235V107.474H68.1492V99.8652H8.52577Z" fill="#FFC42C"/>
</g>
<defs>
<clipPath id="clip0">
<rect width="219" height="109" fill="white" transform="translate(0.876953 0.357422)"/>
</clipPath>
</defs>
</svg>
