<svg width="84" height="42" viewBox="0 0 84 42" fill="none" xmlns="http://www.w3.org/2000/svg">
<path d="M68.1207 23.5311L68.3547 25.9541H47.2636V23.8494L36.8814 41.0868L43.2109 15.8416L33.3783 32.8032V25.9541H1.83963V23.5311H35.9943L49.6311 0L43.0694 26.1818L49.6383 15.277V23.5311H68.1207Z" fill="#9B1915"/>
<path d="M0 35.1689V15.2993H2.89898V35.1708H0V35.1689Z" fill="black"/>
<path d="M0.885296 40.9224H0.60592V38.627H0V38.3623H1.49847V38.627H0.885296V40.9224Z" fill="black"/>
<path d="M10.3837 40.9218H10.1043V38.3599H10.4672C10.9425 38.3599 11.3869 38.4876 11.3869 39.0651C11.3869 39.4594 11.1438 39.7389 10.7574 39.7722L11.5556 40.9199H11.2128L10.4545 39.7963H10.3837V40.9218ZM10.3837 39.5446H10.4708C10.7865 39.5446 11.1076 39.4835 11.1076 39.0855C11.1076 38.6653 10.8046 38.6246 10.469 38.6246H10.3855V39.5446H10.3837Z" fill="black"/>
<path d="M20.516 40.9218H20.2366V38.3599H20.516V40.9218Z" fill="black"/>
<path d="M29.7232 40.1948L29.4202 40.9204H29.1136L30.2729 38.2363L31.4013 40.9204H31.0911L30.7953 40.1948H29.7232ZM30.2656 38.9027L29.8357 39.9282H30.6847L30.2656 38.9027Z" fill="black"/>
<path d="M40.3934 40.9224H40.114V38.627H39.5081V38.3623H41.0066V38.627H40.3934V40.9224Z" fill="black"/>
<path d="M51.191 39.4002V38.3599H51.4704V40.9218H51.191V39.6649H49.9066V40.9218H49.6272V38.3599H49.9066V39.4002H51.191Z" fill="black"/>
<path d="M60.5901 40.6556H61.2831V40.9203H60.3107V38.3584H60.5901V40.6556Z" fill="black"/>
<path d="M72.3713 39.6451C72.3713 40.3818 71.7781 40.9668 71.0634 40.9668C70.3468 40.9668 69.7554 40.3818 69.7554 39.6451C69.7554 38.9121 70.3486 38.3179 71.0634 38.3179C71.7781 38.316 72.3713 38.9102 72.3713 39.6451ZM70.0329 39.6414C70.0329 40.2189 70.4919 40.7021 71.0615 40.7021C71.6312 40.7021 72.0901 40.2189 72.0901 39.6414C72.0901 39.0602 71.6366 38.5826 71.0615 38.5826C70.4865 38.5807 70.0329 39.0602 70.0329 39.6414Z" fill="black"/>
<path d="M81.0881 38.251L83.0455 40.3446V38.3602H83.3249V41.0369L81.3674 38.947V40.9202H81.0881V38.251Z" fill="black"/>
<path d="M4.51328 35.1684V15.2988H8.34291C10.6668 15.2988 11.9802 16.1355 11.9802 18.703V21.5222C11.9802 23.0012 11.6791 24.2285 9.21732 24.508V24.5635C10.5035 24.732 11.9802 25.1744 11.9802 26.9922C11.9802 29.7595 11.9802 32.2344 11.9802 35.1684H9.1901C9.1901 31.9531 9.1901 29.8928 9.1901 27.5771C9.1901 26.3776 8.7529 25.9019 7.41226 25.9574V35.1666H4.51328V35.1684ZM7.41226 23.5306H7.95831C8.97059 23.5306 9.1901 22.9734 9.1901 22.2478V18.6474C9.1901 17.8941 8.7529 17.6701 8.09618 17.6701H7.41226V23.5306Z" fill="black"/>
<path d="M13.6221 18.6479C13.6221 16.0527 15.6195 15.2993 17.3973 15.2993C19.2024 15.2993 21.1997 16.0527 21.1997 18.6479V31.8203C21.1997 34.4155 19.2024 35.1689 17.3973 35.1689C15.6195 35.1689 13.6221 34.4155 13.6221 31.8203V18.6479ZM16.5211 31.5685C16.5211 32.5737 16.8222 32.7958 17.4245 32.7958C17.9978 32.7958 18.2989 32.5718 18.2989 31.5685V18.8997C18.2989 17.8945 17.9978 17.6724 17.4245 17.6724C16.8222 17.6724 16.5211 17.8964 16.5211 18.8997V31.5685Z" fill="black"/>
<path d="M27.1614 15.2993L29.3764 32.2683V15.2993H31.7566V35.1708H27.4625L25.1931 17.6724V35.1708H22.8129V15.2993H27.1614Z" fill="black"/>
<path d="M54.1027 31.5684C54.1027 32.5736 54.4038 32.7957 55.0061 32.7957C55.5794 32.7957 55.8805 32.5717 55.8805 31.5684V29.8654C55.8805 27.074 51.2037 24.3399 51.2037 21.1024V18.646C51.2037 16.0508 53.201 15.2974 54.9789 15.2974C56.7839 15.2974 58.7813 16.0508 58.7813 18.646V22.4407H55.8823V18.8996C55.8823 17.8944 55.5812 17.6723 55.0079 17.6723C54.4056 17.6723 54.1045 17.8963 54.1045 18.8996V20.9654C54.1045 22.3889 58.7813 26.6871 58.7813 28.6956V31.8202C58.7813 34.4154 56.7839 35.1688 54.9789 35.1688C53.201 35.1688 51.2037 34.4154 51.2037 31.8202V27.6349H54.1027V31.5684Z" fill="black"/>
<path d="M67.834 15.2993V17.6706H65.3178V35.1689H62.4188V17.6706H59.8754V15.2993H67.834Z" fill="black"/>
<path d="M74.305 23.531L72.9607 24.5325L74.0456 27.9459L71.2101 25.8338L68.3782 27.9459L69.4631 24.5325L68.1188 23.531L66.8217 35.1688H69.4485L70.0781 29.7821H72.1262L72.6759 35.1688H75.6021L74.305 23.531ZM71.2119 19.0458L72.2858 22.4185H74.1834L73.3888 15.2974H69.0367L68.2422 22.4185H70.1361L71.2119 19.0458Z" fill="black"/>
<path d="M76.5327 35.1689V15.2993H80.3623C82.6881 15.2993 83.9997 16.136 83.9997 18.7035V21.5227C83.9997 23.0017 83.6985 24.229 81.2368 24.5085V24.564C82.523 24.7325 83.9997 25.1749 83.9997 26.9927C83.9997 29.6434 83.9997 32.1183 83.9997 35.1689H81.1987C81.1987 32.7977 81.2095 29.8933 81.2095 27.5776C81.2095 26.3781 80.7723 25.9024 79.4317 25.9579V35.1671H76.5327V35.1689ZM79.4335 23.5311H79.9796C80.9918 23.5311 81.2114 22.9739 81.2114 22.2483V18.6479C81.2114 17.8945 80.7742 17.6706 80.1174 17.6706H79.4335V23.5311Z" fill="black"/>
</svg>
