<svg width="97" height="34" viewBox="0 0 97 34" fill="none" xmlns="http://www.w3.org/2000/svg">
<path d="M46.4745 15.4592C46.4745 15.1703 46.4475 14.8814 46.3936 14.5963C46.3397 14.3112 46.2241 14.0531 46.0507 13.8297C45.8774 13.6024 45.6308 13.4137 45.3034 13.2634C44.9798 13.1132 44.5445 13.0207 44.0052 12.9899C43.7009 12.9899 43.3426 13.0015 42.9265 13.0207C42.5105 13.0438 42.0521 13.1132 41.5551 13.2326V17.5818H43.7933C44.1516 17.5818 44.4867 17.5318 44.7988 17.4355C45.1108 17.3391 45.392 17.1966 45.6347 17.0078C45.8774 16.8191 46.0739 16.5957 46.2203 16.3375C46.3705 16.0756 46.4514 15.7828 46.4745 15.4592ZM44.1053 11.5761C45.3381 11.6532 46.2549 12.0345 46.8559 12.728C47.4568 13.4214 47.7573 14.3575 47.7573 15.5363C47.7573 16.0217 47.6533 16.4724 47.4414 16.8923C47.2296 17.3083 46.9445 17.6743 46.5824 17.9863C46.2202 18.3022 45.7965 18.5449 45.315 18.726C44.8334 18.9032 44.3288 18.9918 43.7972 18.9918H41.559V21.8656H40.1298V13.2788C39.9449 13.2673 39.7715 13.2519 39.6097 13.2288C39.4479 13.2056 39.2861 13.1633 39.1243 13.0978V11.7341C39.3401 11.788 39.5635 11.8265 39.7985 11.8458C40.0296 11.8689 40.2453 11.8804 40.438 11.8804C40.7192 11.8804 40.9927 11.865 41.2585 11.8304C41.5243 11.7996 41.7901 11.7649 42.0636 11.7341C42.3448 11.6801 42.6222 11.6378 42.8919 11.6108C43.1615 11.5838 43.4543 11.5723 43.7663 11.5723H44.1053V11.5761Z" fill="black"/>
<path d="M53.5661 14.9006C53.2309 14.9006 52.9073 14.9429 52.5992 15.0315C52.291 15.1201 52.0136 15.2473 51.7709 15.4206C51.5282 15.594 51.3279 15.8135 51.17 16.0794C51.012 16.3452 50.9196 16.661 50.8849 17.0309L51.7594 16.9962C51.9443 17.0193 52.1677 17.0309 52.4335 17.0386C52.6993 17.0424 52.9536 17.0463 53.204 17.0463C53.4197 17.0463 53.6354 17.0347 53.8512 17.0039C54.0669 16.9769 54.2595 16.923 54.429 16.8421C54.5985 16.7612 54.7333 16.6495 54.8335 16.507C54.9375 16.3683 54.9876 16.1872 54.9876 15.9715C54.9876 15.5824 54.8412 15.305 54.5484 15.1432C54.2633 14.9815 53.932 14.9006 53.5661 14.9006ZM56.1933 21.018C55.8158 21.2876 55.3728 21.5303 54.8643 21.7422C54.3558 21.9541 53.778 22.0581 53.1269 22.0581C52.5992 22.0581 52.1061 21.9811 51.6592 21.8231C51.2085 21.6652 50.8194 21.4417 50.492 21.149C50.1607 20.8562 49.8987 20.4941 49.6984 20.0588C49.4981 19.6273 49.3863 19.1342 49.3671 18.5833V18.5024C49.1937 18.5256 49.0165 18.5371 48.8393 18.541C48.6621 18.5487 48.4849 18.5833 48.3116 18.645V17.1696C48.4965 17.1156 48.6737 17.0848 48.847 17.0732C49.0204 17.0617 49.1976 17.0463 49.3825 17.0232C49.4133 16.5031 49.5327 16.0293 49.7408 15.594C49.9449 15.1625 50.2223 14.7888 50.569 14.4729C50.9157 14.1609 51.3279 13.9144 51.8017 13.741C52.2794 13.5677 52.8033 13.4829 53.3773 13.4829C53.9937 13.4829 54.5523 13.6177 55.0492 13.8874C55.4267 14.1031 55.7426 14.3998 55.9892 14.7811C56.2396 15.1587 56.3628 15.5863 56.3628 16.0639C56.3628 16.5609 56.1933 17.027 55.8582 17.4585C55.5115 17.913 55.0993 18.2058 54.6178 18.3445C54.1362 18.4793 53.6162 18.5487 53.0499 18.5487C52.8033 18.5487 52.5106 18.5371 52.1831 18.514C51.8518 18.4947 51.5513 18.4832 51.2817 18.4832C51.2046 18.4832 51.1353 18.487 51.0698 18.4909C51.0043 18.4986 50.9465 18.5063 50.8926 18.514V18.5949C50.8926 19.2344 51.1045 19.7159 51.5321 20.0472C51.9597 20.3785 52.4913 20.5403 53.1308 20.5403C53.4544 20.5403 53.7548 20.5133 54.0322 20.4594C54.3096 20.4055 54.5677 20.3284 54.8104 20.2321C55.0531 20.1358 55.2881 20.0202 55.5153 19.8931C55.7426 19.7621 55.9699 19.6235 56.1972 19.4694V21.018H56.1933Z" fill="black"/>
<path d="M65.2156 13.7485V21.8653H63.7555V16.1832L59.4217 21.8807H58.058V13.7485H59.5219V19.4307L63.8519 13.7485H65.2156Z" fill="black"/>
<path d="M74.6269 13.7178V21.8808H73.1361V18.4214H68.964V21.8808H67.4886V13.7178H68.964V16.9152H73.1361V13.7178H74.6269Z" fill="black"/>
<path d="M83.7411 20.7137C84.0763 20.7137 84.396 20.6444 84.7119 20.5018C85.0239 20.3632 85.2974 20.1744 85.5286 19.9355C85.7597 19.6967 85.9446 19.4193 86.0872 19.0996C86.2258 18.7799 86.299 18.4447 86.299 18.0864C86.299 17.7744 86.2412 17.4585 86.1218 17.1465C86.0024 16.8345 85.8368 16.5532 85.621 16.3028C85.4053 16.0524 85.1433 15.8521 84.839 15.7019C84.5308 15.5516 84.1918 15.4746 83.8143 15.4746C83.5755 15.4746 83.3636 15.5054 83.1748 15.5709C82.9861 15.6364 82.7934 15.7057 82.6008 15.7828V20.4556C82.9283 20.6251 83.3097 20.7137 83.7411 20.7137ZM77.5158 18.0826C77.5158 18.4293 77.5813 18.7606 77.7084 19.0726C77.8394 19.3847 78.0166 19.662 78.2439 19.9009C78.4712 20.1397 78.737 20.3285 79.0529 20.4749C79.3649 20.6213 79.7001 20.6944 80.0545 20.6944C80.4513 20.6944 80.8249 20.6213 81.1678 20.4672V15.7635C80.7903 15.567 80.405 15.4707 80.0044 15.4707C79.6692 15.4707 79.3534 15.5401 79.0529 15.6826C78.7485 15.8252 78.4866 16.0139 78.2593 16.2528C78.032 16.4916 77.851 16.769 77.7161 17.0887C77.5851 17.4046 77.5158 17.7359 77.5158 18.0826ZM85.0085 14.238C85.4092 14.369 85.7751 14.5577 86.1064 14.8043C86.4377 15.0547 86.7228 15.3475 86.9616 15.6903C87.2005 16.0293 87.3854 16.403 87.5202 16.8075C87.655 17.212 87.7244 17.628 87.7244 18.0479C87.7244 18.5872 87.6242 19.1073 87.4239 19.5965C87.2236 20.0896 86.9462 20.5288 86.588 20.9102C86.2297 21.2954 85.8098 21.5997 85.3205 21.827C84.8352 22.0543 84.3074 22.166 83.745 22.166C83.5408 22.166 83.3405 22.1506 83.1517 22.1159C82.9629 22.0851 82.7742 22.0389 82.5931 21.985V24.6777H81.1639V22.0004C80.9906 22.0543 80.8095 22.0928 80.6208 22.1236C80.432 22.1506 80.2432 22.1622 80.0622 22.1622C79.5306 22.1622 79.0259 22.0543 78.5444 21.8386C78.0628 21.6229 77.6429 21.3262 77.277 20.9564C76.9148 20.5827 76.6259 20.1436 76.4102 19.6428C76.1945 19.142 76.0866 18.6065 76.0866 18.0441C76.0866 17.6434 76.1482 17.2428 76.2715 16.8422C76.3948 16.4415 76.5758 16.0717 76.8147 15.7327C77.0535 15.3937 77.3386 15.0894 77.666 14.8236C77.9973 14.5577 78.371 14.3574 78.7948 14.2149C79.153 14.0955 79.519 14.0377 79.8965 14.0377C80.1007 14.0377 80.3087 14.0531 80.5129 14.0878C80.7171 14.1224 80.9328 14.1648 81.1601 14.2187V12.127H82.5893L82.5816 14.238C82.9707 14.1186 83.3674 14.0608 83.7681 14.0608C84.1418 14.0608 84.5539 14.1186 85.0085 14.238Z" fill="black"/>
<path d="M92.4628 14.9816C92.0737 14.9816 91.7039 15.0548 91.361 15.2011C91.0143 15.3475 90.7138 15.544 90.4596 15.7944C90.2053 16.0448 90.0012 16.3337 89.8509 16.6689C89.7007 17.004 89.6236 17.3661 89.6236 17.7552C89.6236 18.1443 89.7007 18.5064 89.8509 18.8416C90.0012 19.1767 90.2053 19.4733 90.4596 19.7276C90.7138 19.9818 91.0143 20.1822 91.361 20.3285C91.7077 20.4749 92.0737 20.5481 92.4628 20.5481C92.8519 20.5481 93.2178 20.4749 93.5568 20.3285C93.8997 20.1822 94.1963 19.9818 94.4506 19.7276C94.7048 19.4733 94.9051 19.1806 95.0515 18.8416C95.1979 18.5064 95.2711 18.1443 95.2711 17.7552C95.2711 17.3661 95.1979 17.004 95.0515 16.6689C94.9051 16.3337 94.7048 16.0409 94.4506 15.7944C94.1963 15.5478 93.8997 15.3475 93.5568 15.2011C93.2178 15.0548 92.8519 14.9816 92.4628 14.9816ZM92.4628 14.9816C92.0737 14.9816 91.7039 15.0548 91.361 15.2011C91.0143 15.3475 90.7138 15.544 90.4596 15.7944C90.2053 16.0448 90.0012 16.3337 89.8509 16.6689C89.7007 17.004 89.6236 17.3661 89.6236 17.7552C89.6236 18.1443 89.7007 18.5064 89.8509 18.8416C90.0012 19.1767 90.2053 19.4733 90.4596 19.7276C90.7138 19.9818 91.0143 20.1822 91.361 20.3285C91.7077 20.4749 92.0737 20.5481 92.4628 20.5481C92.8519 20.5481 93.2178 20.4749 93.5568 20.3285C93.8997 20.1822 94.1963 19.9818 94.4506 19.7276C94.7048 19.4733 94.9051 19.1806 95.0515 18.8416C95.1979 18.5064 95.2711 18.1443 95.2711 17.7552C95.2711 17.3661 95.1979 17.004 95.0515 16.6689C94.9051 16.3337 94.7048 16.0409 94.4506 15.7944C94.1963 15.5478 93.8997 15.3475 93.5568 15.2011C93.2178 15.0548 92.8519 14.9816 92.4628 14.9816ZM92.4628 22.0428C91.8657 22.0428 91.3071 21.9272 90.7832 21.7C90.2593 21.4727 89.797 21.1645 89.4041 20.7754C89.0073 20.3863 88.6991 19.9318 88.4718 19.4117C88.2445 18.8916 88.1328 18.3408 88.1328 17.7552C88.1328 17.162 88.2445 16.6034 88.4718 16.0833C88.6991 15.5633 89.0111 15.1087 89.4041 14.7196C89.797 14.3305 90.2593 14.0223 90.7832 13.7951C91.3071 13.5678 91.8657 13.4561 92.4628 13.4561C93.0483 13.4561 93.5992 13.5678 94.127 13.7951C94.6509 14.0223 95.1093 14.3305 95.4984 14.7196C95.8875 15.1087 96.1957 15.5633 96.4229 16.0833C96.6502 16.6034 96.7658 17.1581 96.7658 17.7552C96.7658 18.3408 96.6541 18.8916 96.4229 19.4117C96.1957 19.9318 95.8875 20.3863 95.4984 20.7754C95.1093 21.1645 94.6509 21.4727 94.127 21.7C93.5992 21.9272 93.0445 22.0428 92.4628 22.0428ZM92.4628 22.0428C91.8657 22.0428 91.3071 21.9272 90.7832 21.7C90.2593 21.4727 89.797 21.1645 89.4041 20.7754C89.0073 20.3863 88.6991 19.9318 88.4718 19.4117C88.2445 18.8916 88.1328 18.3408 88.1328 17.7552C88.1328 17.162 88.2445 16.6034 88.4718 16.0833C88.6991 15.5633 89.0111 15.1087 89.4041 14.7196C89.797 14.3305 90.2593 14.0223 90.7832 13.7951C91.3071 13.5678 91.8657 13.4561 92.4628 13.4561C93.0483 13.4561 93.5992 13.5678 94.127 13.7951C94.6509 14.0223 95.1093 14.3305 95.4984 14.7196C95.8875 15.1087 96.1957 15.5633 96.4229 16.0833C96.6502 16.6034 96.7658 17.1581 96.7658 17.7552C96.7658 18.3408 96.6541 18.8916 96.4229 19.4117C96.1957 19.9318 95.8875 20.3863 95.4984 20.7754C95.1093 21.1645 94.6509 21.4727 94.127 21.7C93.5992 21.9272 93.0445 22.0428 92.4628 22.0428Z" fill="black"/>
<path d="M17.2929 15.4901C17.316 15.4901 17.343 15.4863 17.3661 15.4863C17.682 15.4709 17.994 15.4285 18.2945 15.363C18.3754 15.3437 18.4601 15.3245 18.541 15.3014C18.8184 15.2243 19.0958 15.1165 19.3693 14.9893C20.4441 14.477 21.2954 13.6025 21.7847 12.52C21.7693 12.5277 21.7538 12.5316 21.7384 12.5393C21.5497 12.6202 21.3686 12.7126 21.1991 12.8166C21.1837 12.8282 21.1683 12.8359 21.1529 12.8475C20.9757 12.9592 20.8062 13.0786 20.6521 13.2096C20.4787 13.4407 20.2707 13.6603 20.0473 13.8529C19.689 14.1611 19.2768 14.3999 18.8261 14.5656L18.7259 14.6041L18.7298 14.6003C18.672 14.6195 18.6181 14.6388 18.5564 14.658L18.5333 14.6657C18.2213 14.7582 17.8861 14.816 17.5317 14.8391L17.4701 14.843C17.3391 14.8507 17.1927 14.8622 17.0541 14.8507H17.0502C17.0541 14.8699 17.0579 14.8853 17.0618 14.9046C17.1157 15.0856 17.1581 15.2706 17.1966 15.4593C17.2004 15.4709 17.2043 15.4863 17.2043 15.4978C17.2351 15.494 17.2659 15.494 17.2929 15.4901Z" fill="#95BC4F"/>
<path d="M16.0756 14.6695C16.168 14.9276 16.2451 15.1972 16.2952 15.463C16.3029 15.5131 16.3106 15.5632 16.3183 15.6133L16.3298 15.6903C16.3799 16.0178 16.4069 16.3221 16.4107 16.6226C16.4107 16.6303 16.4107 16.638 16.4107 16.6457C16.4107 16.6534 16.4107 16.665 16.4107 16.6765C16.4107 16.6842 16.4107 16.6919 16.4107 16.6996C16.7035 16.6573 16.9693 16.638 17.2236 16.6341C17.2236 16.5532 17.2159 16.4723 17.212 16.3876C17.2082 16.3337 17.2082 16.2797 17.2043 16.2258C17.1927 16.0794 17.1735 15.9292 17.1504 15.7712L17.1427 15.7096L17.1388 15.6903C17.1311 15.6402 17.1273 15.5902 17.1157 15.5439C17.0695 15.2935 17.0078 15.0431 16.9346 14.8043C16.3144 12.805 14.7388 11.2602 12.7087 10.6631C12.7202 10.7748 12.7318 10.8904 12.7511 11.0021C12.7549 11.0329 12.7588 11.0637 12.7626 11.0945C12.7896 11.2486 12.8242 11.3989 12.8628 11.5491C14.4191 12.1308 15.5555 13.2326 16.0756 14.6695Z" fill="#F56763"/>
<path d="M19.1075 16.5958C19.1075 16.5457 19.1113 16.4995 19.1152 16.4494C19.1152 16.4417 19.1152 16.434 19.1152 16.4263C19.0227 16.4571 18.9302 16.4802 18.8416 16.5033C18.8224 16.5072 18.7993 16.5149 18.78 16.5226C18.6721 16.5495 18.5643 16.5765 18.4603 16.5958C18.4603 16.6266 18.4641 16.6574 18.4641 16.6882C18.4641 16.7152 18.468 16.7422 18.468 16.7653C18.4795 17.085 18.5181 17.397 18.5874 17.6937C18.6067 17.7746 18.6259 17.8593 18.649 17.9402C18.7261 18.2176 18.8301 18.4988 18.9572 18.7685C19.4657 19.851 20.3402 20.7139 21.4265 21.207C21.4188 21.1916 21.415 21.18 21.4073 21.1646C21.3302 20.9797 21.2416 20.8025 21.1376 20.633C21.1261 20.6137 21.1145 20.5983 21.1068 20.5829C20.9989 20.4095 20.8834 20.24 20.7524 20.0859C20.4981 19.8933 20.2631 19.6738 20.0628 19.4311C19.77 19.0766 19.5389 18.6722 19.3771 18.2291L19.3424 18.129H19.3463C19.327 18.0673 19.3078 18.0096 19.2924 17.9556L19.2847 17.9325C19.1961 17.6166 19.1383 17.2776 19.1152 16.9271L19.1113 16.8577C19.1113 16.7807 19.1075 16.6882 19.1075 16.5958Z" fill="#24BBEB"/>
<path d="M13.5408 13.1553C13.2827 12.8124 13.0709 12.4234 12.9168 12.0073L12.8821 11.9072L12.886 11.911C12.8551 11.8186 12.8205 11.7222 12.7935 11.6259L12.7858 11.6028C12.6933 11.2754 12.6356 10.9402 12.6124 10.6051L12.6086 10.5396C12.6009 10.4202 12.597 10.3085 12.597 10.2083C12.597 9.10269 13.0092 8.01634 13.7566 7.14958C14.4615 6.33289 15.3861 5.80898 16.2952 5.71652C16.8615 5.65874 17.4432 5.62792 18.0172 5.62792C18.622 5.62792 19.0766 5.66259 19.3 5.68185C19.0381 5.48153 18.3138 5.03467 17.1196 5.03467C16.9694 5.03467 16.8153 5.04237 16.6612 5.05393C14.7466 5.22728 12.0539 6.94155 12.0539 10.216C12.0539 10.2661 12.0577 10.3123 12.0616 10.3585C12.0616 10.3894 12.0654 10.4202 12.0654 10.451C12.077 10.7938 12.1078 11.0905 12.1579 11.3601C12.181 11.4795 12.208 11.599 12.2388 11.7107L12.2465 11.7377C12.3197 12.0304 12.416 12.3039 12.5277 12.562C13.0323 13.7139 13.9338 14.6076 15.0779 15.0891C15.0741 15.0737 15.0664 15.0622 15.0625 15.0468C15.0009 14.8888 14.9315 14.7347 14.8545 14.5883C14.8468 14.5729 14.8352 14.5575 14.8275 14.5421C14.7428 14.3919 14.6503 14.2455 14.5463 14.1068C14.5424 14.103 14.5424 14.0991 14.5386 14.0991C14.1534 13.841 13.8182 13.5251 13.5408 13.1553Z" fill="#95BC4F"/>
<path d="M20.5947 13.136C20.9606 12.824 21.3882 12.5697 21.8621 12.3848L21.9661 12.3425L21.9622 12.3502C22.0585 12.3155 22.151 12.2808 22.2511 12.25L22.2704 12.2423C22.2704 12.2423 22.2704 12.2423 22.2743 12.2423C22.6133 12.1421 22.9523 12.0805 23.2836 12.0497L23.3491 12.042C23.4877 12.0304 23.6226 12.0266 23.7497 12.0266C24.8553 12.0266 25.9455 12.4388 26.8084 13.1861C27.6251 13.8911 28.149 14.8156 28.2415 15.7248C28.3917 17.1694 28.3147 18.3289 28.2761 18.7296C28.4996 18.4329 29.035 17.5623 28.9041 16.0907C28.7307 14.18 27.0164 11.4834 23.742 11.4834C23.6726 11.4834 23.6072 11.4873 23.5417 11.4911C23.507 11.4911 23.4723 11.495 23.4415 11.495C23.1025 11.5104 22.802 11.545 22.5285 11.599C22.3937 11.6259 22.2589 11.6606 22.1471 11.6914C21.8621 11.7685 21.577 11.8686 21.3073 11.9919C20.2094 12.4966 19.3812 13.3364 18.8997 14.4304C18.942 14.4111 18.9844 14.3957 19.0268 14.3765C19.0692 14.3572 19.1115 14.3418 19.1539 14.3187C19.2155 14.2879 19.2772 14.2532 19.3388 14.2224C19.3735 14.2031 19.412 14.1839 19.4505 14.1607C19.516 14.1222 19.5777 14.0798 19.6431 14.0375C19.6701 14.0182 19.7009 13.9989 19.7318 13.9797C19.8204 13.9142 19.909 13.8487 19.9937 13.7755C20.1594 13.5521 20.3635 13.3325 20.5947 13.136Z" fill="#24BBEB"/>
<path d="M13.8647 20.2745C13.5026 20.5672 13.0904 20.7984 12.6397 20.9717L12.5395 21.0103L12.5434 21.0025C12.4471 21.0372 12.3546 21.068 12.2545 21.095L12.2313 21.1027C11.9 21.1952 11.561 21.2568 11.2259 21.2838L11.1604 21.2876V21.2838C11.0448 21.2915 10.9254 21.2992 10.8137 21.2992C9.70809 21.2992 8.62174 20.887 7.75498 20.1396C6.93829 19.4347 6.41438 18.5101 6.32192 17.601C6.17168 16.1564 6.24873 14.9968 6.28725 14.5962C6.06382 14.8928 5.52835 15.7634 5.65933 17.235C5.83268 19.1496 7.54695 21.8423 10.8214 21.8423C10.8715 21.8423 10.9216 21.8385 10.9716 21.8385C11.0025 21.8346 11.0371 21.8346 11.0679 21.8346C11.4108 21.8231 11.7074 21.7923 11.9809 21.7422C12.1081 21.7191 12.2313 21.6844 12.3546 21.6536C12.6551 21.5765 12.9363 21.4802 13.1983 21.3647C14.3077 20.8716 15.1822 20.001 15.6637 18.8992C15.6483 18.9031 15.6368 18.9108 15.6214 18.9146C15.4519 18.9801 15.2901 19.0571 15.136 19.1419C15.1206 19.1496 15.1051 19.1612 15.0897 19.1689C14.9318 19.2613 14.7777 19.3615 14.6352 19.4732C14.6313 19.4732 14.6313 19.477 14.6275 19.477C14.4194 19.766 14.1613 20.0356 13.8647 20.2745Z" fill="#F56763"/>
<path d="M10.8058 10.3896C10.7673 10.3857 10.7327 10.3857 10.6941 10.3857C8.32497 10.3857 6.55292 10.7633 5.38182 11.0137C4.80013 11.1369 4.42645 11.2255 3.68296 11.2564C2.94332 11.2833 1.67207 11.1408 0.60498 11.0214C1.74141 11.9228 2.40015 11.9151 3.56739 11.9575C3.7523 11.9575 3.92566 11.9536 4.07975 11.9421C4.56514 11.9112 5.15839 11.7957 5.8441 11.6609C7.1115 11.4143 8.70635 11.0984 10.5709 11.1331C10.6826 11.1331 10.7943 11.1408 10.906 11.1485C10.906 11.1331 10.906 11.1215 10.9022 11.1061C10.8752 10.8827 10.8559 10.6515 10.8482 10.4243C10.8482 10.4127 10.8444 10.4012 10.8444 10.3896C10.8328 10.3896 10.8174 10.3896 10.8058 10.3896Z" fill="#F56763"/>
<path d="M12.0732 12.4853C11.9615 12.2041 11.8729 11.946 11.8074 11.6879C11.7728 11.5569 11.7497 11.4221 11.7265 11.3104C11.6726 11.0214 11.6379 10.721 11.6264 10.4089L11.6225 10.3203C11.6187 10.251 11.6148 10.1816 11.6148 10.1162C11.6148 8.7563 12.1233 7.4234 13.0402 6.35632C13.9069 5.35472 15.0434 4.71139 16.1567 4.59582C16.8539 4.52263 17.5666 4.48411 18.2754 4.48411C19.0536 4.48411 19.6314 4.53033 19.8895 4.55345C19.5891 4.31846 18.6915 3.73291 17.1698 3.73291C16.9849 3.73291 16.7962 3.74061 16.6035 3.75988C14.2459 3.97175 10.9253 6.08666 10.9253 10.1239C10.9253 10.1662 10.9291 10.2048 10.9291 10.2471C10.9291 10.2664 10.9291 10.2818 10.933 10.3011V10.3434C10.9407 10.6247 10.9638 10.9097 11.0023 11.1909L11.01 11.2487L11.0177 11.3027C11.0293 11.3951 11.0408 11.4953 11.0601 11.5839C11.1025 11.8112 11.1603 12.05 11.2334 12.285C11.8383 14.3113 13.3329 15.7983 15.34 16.3761C15.3323 16.2606 15.3207 16.145 15.3053 16.0333C15.3015 16.0025 15.2976 15.9678 15.2938 15.9331C15.2706 15.7829 15.2398 15.6365 15.2013 15.494C13.7683 15.0009 12.6588 13.9338 12.0732 12.4853Z" fill="#95BC4F"/>
<path d="M10.9173 11.6337C10.875 11.6299 10.8326 11.6299 10.7902 11.6299C8.83709 11.6299 7.36166 11.8687 6.38318 12.0267C4.97709 12.2501 3.99476 12.3965 2.72736 12.2809C3.79444 12.8087 4.25286 12.7663 5.44707 12.6893C5.81304 12.6661 6.2445 12.6045 6.74144 12.5313C7.78541 12.3811 9.10675 12.1962 10.6862 12.2231C10.8172 12.2231 10.9597 12.2308 11.1176 12.2462C11.1138 12.2347 11.1099 12.2193 11.1061 12.2077C11.056 12.0305 11.0136 11.8533 10.979 11.68C10.9751 11.6684 10.9713 11.653 10.9713 11.6414C10.9558 11.6337 10.9366 11.6337 10.9173 11.6337Z" fill="#F56763"/>
<path d="M18.4991 18.7065C18.3951 18.4291 18.318 18.1672 18.268 17.9014C18.2564 17.8513 18.2487 17.8012 18.2448 17.7511C18.241 17.7241 18.2371 17.6972 18.2333 17.6741C18.1794 17.3505 18.1524 17.0461 18.1485 16.7418C18.1485 16.7303 18.1485 16.7148 18.1447 16.7033C18.1447 16.6879 18.1408 16.6725 18.1408 16.6532C18.1408 16.6494 18.1408 16.6494 18.1408 16.6455C18.0176 16.6648 17.8981 16.6763 17.7826 16.6879C17.7672 16.6879 17.7479 16.6917 17.7325 16.6956C17.5977 16.7071 17.4628 16.7148 17.328 16.7187C17.328 16.8035 17.3357 16.8921 17.3396 16.9768C17.3434 17.0269 17.3434 17.077 17.3473 17.1309C17.3588 17.2773 17.3781 17.4275 17.4012 17.5855L17.4089 17.6394C17.4089 17.651 17.4128 17.6587 17.4128 17.6702C17.4205 17.7164 17.4243 17.7588 17.432 17.805C17.4782 18.0477 17.5399 18.2981 17.6208 18.5485C18.2487 20.544 19.7627 22.0349 21.7774 22.6474C21.7658 22.5395 21.7504 22.4355 21.735 22.3276C21.7273 22.2891 21.7235 22.2506 21.7196 22.2121C21.6888 22.058 21.6541 21.9039 21.6079 21.7459C20.1209 21.1719 19.0153 20.0933 18.4991 18.7065Z" fill="#24BBEB"/>
<path d="M16.0948 16.6686C16.0948 16.6417 16.0909 16.6186 16.0909 16.5916C16.0794 16.2719 16.0409 15.9598 15.9792 15.667C15.96 15.5862 15.9407 15.5053 15.9214 15.4244C15.8482 15.147 15.7481 14.8735 15.6287 14.6077C15.1086 13.4712 14.1956 12.5775 13.0553 12.0806C13.1016 12.1923 13.1516 12.3001 13.2017 12.4042C13.2325 12.4619 13.2556 12.5274 13.2865 12.5814C13.3828 12.7586 13.4945 12.9319 13.6139 13.0899C13.9953 13.3518 14.3304 13.6677 14.6078 14.0298C14.8621 14.3688 15.0662 14.7464 15.2049 15.1547L15.2396 15.251L15.2357 15.2471C15.2511 15.2972 15.2665 15.3473 15.2781 15.3935L15.2897 15.4359C15.3744 15.7441 15.4245 16.0792 15.4437 16.426L15.4476 16.5146C15.4515 16.5839 15.4553 16.6532 15.4553 16.7264C15.4553 16.7804 15.4515 16.8266 15.4476 16.8805C15.4476 16.8882 15.4476 16.8921 15.4476 16.8998C15.4669 16.8959 15.4823 16.8921 15.5015 16.8882C15.6864 16.8343 15.8752 16.7881 16.0601 16.7534C16.0755 16.7495 16.0871 16.7457 16.0986 16.7418C16.0986 16.7226 16.0948 16.6956 16.0948 16.6686Z" fill="#F56763"/>
<path d="M23.5109 10.2201C23.5147 10.1778 23.5186 10.1354 23.5186 10.0891C23.5186 7.71999 23.141 5.94794 22.8906 4.77684C22.7674 4.19515 22.6672 3.73287 22.6518 3.39002C22.6094 2.4385 22.8367 0.358263 22.8791 0C21.9699 1.46772 21.9507 2.38457 21.9584 3.47477C21.9892 3.96016 22.1048 4.55341 22.2396 5.23912C22.49 6.51037 22.7982 8.09752 22.7674 9.96588C22.7674 10.093 22.7558 10.2163 22.7481 10.3434C22.7635 10.3395 22.7828 10.3395 22.7982 10.3395C23.0139 10.3126 23.2335 10.2933 23.4608 10.2818C23.4762 10.2818 23.4916 10.2779 23.507 10.2779C23.5109 10.2587 23.5109 10.2394 23.5109 10.2201Z" fill="#95BC4F"/>
<path d="M13.1058 21.8193C12.8207 21.9387 12.5549 22.0235 12.2968 22.0889C12.1735 22.1198 12.0425 22.1429 11.9231 22.166C11.6342 22.2199 11.3299 22.2546 11.0178 22.27L10.9485 22.2739C10.8714 22.2777 10.7944 22.2816 10.7135 22.2816C9.35363 22.2816 8.02074 21.7731 6.95365 20.8562C5.95206 19.9894 5.30873 18.853 5.19316 17.7397C5.0044 15.9137 5.10841 14.4614 5.15464 14.0068C4.89268 14.342 4.19156 15.4283 4.35721 17.289C4.56909 19.6466 6.68399 22.9673 10.7212 22.9673C10.7636 22.9673 10.8059 22.9634 10.8483 22.9634C10.8676 22.9634 10.883 22.9634 10.9023 22.9596H10.9446C11.2336 22.9519 11.5186 22.9287 11.7921 22.8902L11.8499 22.8825L11.8884 22.8787C11.9886 22.8671 12.0888 22.8517 12.1851 22.8363C12.4162 22.7939 12.6473 22.7361 12.89 22.6629C14.8932 22.062 16.3725 20.5904 16.9581 18.618C16.8502 18.6257 16.7462 18.6373 16.6422 18.6527C16.5998 18.6604 16.5536 18.6604 16.5112 18.6681C16.3571 18.6912 16.2107 18.7259 16.0682 18.7644C15.5712 20.1589 14.5196 21.2414 13.1058 21.8193Z" fill="#F56763"/>
<path d="M21.3918 11.5339C21.6653 11.4183 21.9388 11.3259 22.2008 11.2565C22.3279 11.2219 22.455 11.1987 22.5745 11.1756C22.8711 11.1178 23.1793 11.0793 23.4798 11.0639L23.5375 11.0601C23.6377 11.0524 23.7379 11.0485 23.838 11.0485C25.1979 11.0485 26.5308 11.5532 27.5979 12.4738C28.5994 13.3406 29.2428 14.477 29.3583 15.5904C29.5471 17.4163 29.4392 18.8687 29.3969 19.3232C29.6588 18.9881 30.3599 17.9017 30.1943 16.0411C29.9824 13.6835 27.8675 10.3628 23.8303 10.3628C23.7725 10.3628 23.7186 10.3666 23.6647 10.3705C23.6415 10.3705 23.6146 10.3744 23.5915 10.3744H23.5491C23.2563 10.3859 22.9713 10.409 22.7016 10.4475L22.6438 10.4552H22.64C22.5321 10.4707 22.4165 10.4861 22.3125 10.5092C22.0814 10.5554 21.8541 10.6132 21.6075 10.6864C19.6275 11.3028 18.1674 12.7743 17.5896 14.7351C17.7013 14.7274 17.813 14.712 17.9209 14.6966C17.9594 14.6928 17.9979 14.6889 18.0365 14.6812C18.1906 14.6542 18.3369 14.6196 18.4795 14.5772C18.9764 13.1981 20.0088 12.1194 21.3918 11.5339Z" fill="#24BBEB"/>
<path d="M15.2513 17.8865C15.521 17.7864 15.7829 17.7132 16.0526 17.6593C16.1027 17.6477 16.1566 17.64 16.2105 17.6323L16.2799 17.6207C16.6035 17.5706 16.9116 17.5437 17.2121 17.5398H17.2352C17.2545 17.536 17.2776 17.536 17.3007 17.5398C17.2815 17.4089 17.266 17.2817 17.2583 17.1585C17.2583 17.1469 17.2545 17.1315 17.2545 17.1199C17.2429 16.9851 17.2352 16.8541 17.2352 16.7231C17.1351 16.7231 17.0349 16.7308 16.9309 16.7386C16.8962 16.7424 16.8654 16.7424 16.8346 16.7424C16.6882 16.754 16.5341 16.7732 16.3723 16.7963L16.3184 16.804L16.2991 16.8079C16.249 16.8156 16.2028 16.8195 16.1527 16.831C15.9023 16.8772 15.6519 16.9389 15.4092 17.0121C13.4292 17.6284 11.896 19.1809 11.2873 21.1802C11.4029 21.1687 11.5146 21.1533 11.6301 21.1379C11.661 21.134 11.6918 21.1302 11.7226 21.1263C11.8767 21.0993 12.0308 21.0647 12.1849 21.0184C12.7627 19.5122 13.8491 18.4027 15.2513 17.8865Z" fill="#FB9950"/>
<path d="M17.2659 17.8628C17.239 17.8628 17.2158 17.8666 17.1889 17.8666C16.8691 17.8782 16.5571 17.9167 16.2643 17.9783C16.1796 17.9976 16.0987 18.0168 16.0178 18.04C15.7404 18.1132 15.4631 18.2133 15.1934 18.3404C14.0916 18.8528 13.2172 19.735 12.7164 20.8406C12.7318 20.8329 12.7472 20.829 12.7626 20.8213C12.9398 20.7481 13.1093 20.6634 13.2711 20.5709C13.2865 20.5632 13.3019 20.5517 13.3173 20.5401C13.483 20.4399 13.6448 20.3321 13.795 20.2126C13.7989 20.2088 13.8027 20.2088 13.8066 20.2049C14.0339 19.8968 14.2881 19.631 14.5655 19.4114C14.8236 19.2072 15.1086 19.0338 15.4168 18.899C15.517 18.8528 15.6248 18.8104 15.7327 18.7719L15.8329 18.7372L15.829 18.7449C15.8868 18.7257 15.9446 18.7103 15.9985 18.6948L16.0216 18.6871C16.3337 18.6024 16.6727 18.5446 17.0232 18.5253L17.108 18.5215C17.2351 18.5138 17.3699 18.5099 17.5009 18.5176C17.5086 18.5176 17.5125 18.5176 17.5202 18.5176C17.5163 18.4984 17.5125 18.483 17.5086 18.4637C17.4508 18.2711 17.4046 18.0785 17.3661 17.8897C17.3661 17.882 17.3622 17.8705 17.3584 17.8628C17.3199 17.8589 17.2929 17.8589 17.2659 17.8628Z" fill="#FB9950"/>
<path d="M22.2662 10.3623C22.2701 10.3045 22.274 10.2506 22.274 10.1889C22.274 8.23582 22.0351 6.76039 21.8772 5.78576C21.804 5.32349 21.7423 4.95752 21.7308 4.68786C21.5574 3.82109 21.6345 2.41115 21.6229 2.13379C21.0797 3.13538 21.1838 4.18706 21.2146 4.85351C21.2377 5.21947 21.2993 5.65093 21.3725 6.14788C21.5228 7.19955 21.7077 8.50933 21.6807 10.0926C21.6768 10.239 21.6691 10.397 21.6499 10.578C21.6691 10.5742 21.6846 10.5703 21.7038 10.5626C21.881 10.5125 22.0544 10.4663 22.2277 10.4316C22.2393 10.4278 22.2508 10.4239 22.2585 10.4239C22.2624 10.4008 22.2624 10.3815 22.2662 10.3623Z" fill="#95BC4F"/>
<path d="M19.3041 15.4475C19.0191 15.5554 18.7571 15.6324 18.499 15.6864C18.4528 15.6941 18.4027 15.7018 18.3565 15.7095C18.3295 15.7133 18.2987 15.7172 18.2717 15.721C17.9558 15.775 17.6515 15.8019 17.3356 15.8096C17.3164 15.8096 17.301 15.8096 17.2855 15.8135C17.274 15.8135 17.2624 15.8135 17.2547 15.8135C17.274 15.956 17.2894 16.0908 17.301 16.2218C17.301 16.2295 17.301 16.2411 17.3048 16.2488C17.3164 16.3759 17.3202 16.4992 17.3241 16.6225C17.4165 16.6186 17.5051 16.6148 17.5976 16.6071C17.6438 16.6032 17.69 16.6032 17.7363 16.5994C17.8827 16.5878 18.0329 16.5685 18.187 16.5454L18.2409 16.5377C18.2525 16.5377 18.2679 16.5339 18.2794 16.5339C18.3218 16.53 18.3642 16.5223 18.4066 16.5146C18.6377 16.4684 18.8804 16.4067 19.1501 16.322C21.1378 15.6825 22.6171 14.1686 23.2219 12.1538C23.1179 12.1654 23.0101 12.1808 22.9022 12.2C22.8637 12.2077 22.8251 12.2116 22.7828 12.2193C22.6287 12.2501 22.4746 12.2886 22.3205 12.331C21.7504 13.8141 20.6833 14.9236 19.3041 15.4475Z" fill="#95BC4F"/>
<path d="M23.7186 22.9443C23.7687 22.9482 23.8149 22.9521 23.865 22.9521C26.2341 22.9521 28.0062 22.5745 29.1773 22.3241C29.759 22.2009 30.1249 22.1354 30.5641 22.0853C31.6235 22.0391 32.8909 22.0545 33.9541 22.3126C33.0719 21.5999 32.1628 21.3765 30.9917 21.3765C30.8068 21.3765 30.6335 21.3803 30.4794 21.3919C29.994 21.4227 29.4007 21.5383 28.715 21.6731C27.5054 21.9081 25.9991 22.2047 24.2386 22.2047C24.1539 22.2047 24.073 22.2047 23.9882 22.2009C23.8688 22.197 23.7417 22.1932 23.5915 22.1816C23.5915 22.197 23.5915 22.2124 23.5953 22.2278C23.6223 22.4513 23.6415 22.6747 23.6492 22.902C23.6492 22.9135 23.6531 22.9289 23.6531 22.9405C23.6762 22.9405 23.6955 22.9405 23.7186 22.9443Z" fill="#24BBEB"/>
<path d="M23.4335 21.746C23.3873 21.5148 23.3295 21.2837 23.2563 21.041C22.6515 19.0532 21.1799 17.5816 19.223 16.9961C19.2307 17.1117 19.2461 17.2234 19.2615 17.3351C19.2654 17.3698 19.2692 17.4083 19.2731 17.443C19.3 17.5971 19.3347 17.7473 19.3732 17.8898C20.7523 18.3868 21.831 19.423 22.4088 20.8176C22.5282 21.1065 22.6207 21.3723 22.6862 21.6304C22.717 21.746 22.7401 21.8654 22.7594 21.981L22.7632 22.0041C22.821 22.3007 22.8557 22.605 22.8711 22.9094L22.875 22.9864C22.8788 23.0712 22.8827 23.1521 22.8827 23.2368C22.8827 24.5967 22.3742 25.9296 21.4573 26.9966C20.5905 27.9982 19.4541 28.6416 18.3408 28.7571C17.6435 28.8303 16.9309 28.865 16.2221 28.865C15.4439 28.865 14.866 28.8188 14.6079 28.7957C14.9084 29.0306 15.806 29.6162 17.3277 29.6162C17.5126 29.6162 17.7013 29.6085 17.8939 29.5892C20.2515 29.3774 23.5722 27.2624 23.5722 23.2252C23.5722 23.1752 23.5684 23.1289 23.5684 23.0827C23.5684 23.0635 23.5645 23.0403 23.5645 23.0211V22.9787C23.5568 22.6936 23.5337 22.4086 23.4952 22.1312L23.4875 22.0734L23.4836 22.0426C23.4682 21.9463 23.4528 21.8423 23.4335 21.746Z" fill="#FB9950"/>
<path d="M10.9909 23.1135C10.987 23.1636 10.9832 23.2137 10.9832 23.2637C10.9832 25.6329 11.3607 27.405 11.6111 28.5761C11.7344 29.1578 11.8345 29.62 11.85 29.9629C12.0117 31.2688 11.665 32.9946 11.6227 33.349C12.6166 31.8621 12.6127 30.9067 12.5434 29.8743C12.5125 29.3889 12.397 28.7956 12.2621 28.1099C12.0117 26.8348 11.7036 25.2515 11.7344 23.3832C11.7382 23.2483 11.7459 23.1097 11.7536 22.9902C11.7382 22.9941 11.719 22.9941 11.7036 22.9941C11.484 23.0211 11.2605 23.0403 11.0333 23.048C11.0217 23.048 11.0102 23.0519 10.9986 23.0519C10.9947 23.075 10.9909 23.0942 10.9909 23.1135Z" fill="#FB9950"/>
<path d="M23.5759 21.6958C23.6376 21.6996 23.6992 21.7035 23.7647 21.7035C25.7178 21.7035 27.1932 21.4646 28.1717 21.3067C28.634 21.2335 29 21.1719 29.2696 21.1603C30.1942 21.0101 31.5463 21.064 31.8237 21.0524C31.0841 20.7789 31.0995 20.7288 30.3213 20.6133C29.8475 20.6133 29.4353 20.6248 29.104 20.648C28.738 20.6711 28.3066 20.7327 27.8096 20.8059C26.7656 20.9523 25.4443 21.141 23.8649 21.1141C23.7108 21.1102 23.549 21.1025 23.3679 21.0833C23.3718 21.0987 23.3756 21.1179 23.3795 21.1333C23.4296 21.3144 23.4758 21.4916 23.5105 21.665C23.5143 21.6727 23.5143 21.6842 23.5182 21.6919C23.5374 21.6919 23.5567 21.6958 23.5759 21.6958Z" fill="#24BBEB"/>
<path d="M20.8255 20.0281C21.1299 20.3941 21.3764 20.8178 21.5575 21.284L21.596 21.388L21.5883 21.3841C21.623 21.4804 21.6576 21.5767 21.6846 21.6731L21.6923 21.6962C21.7886 22.0352 21.8541 22.3742 21.8811 22.7055L21.8849 22.771H21.8811C21.8888 22.8981 21.8965 23.0214 21.8965 23.1446C21.8965 24.2502 21.4843 25.3366 20.7369 26.2033C20.032 27.02 19.1074 27.5439 18.1983 27.6364C17.6281 27.698 17.0464 27.725 16.4724 27.725C15.8715 27.725 15.4169 27.6903 15.1935 27.6711C15.4554 27.8714 16.1797 28.3183 17.3739 28.3183C17.5241 28.3183 17.6782 28.3106 17.8323 28.299C19.7469 28.1256 22.4396 26.4114 22.4396 23.1369C22.4396 23.0753 22.4358 23.0175 22.4319 22.9597C22.4281 22.9289 22.4281 22.8981 22.4281 22.8673C22.4127 22.5206 22.3819 22.2201 22.3318 21.9543C22.3087 21.8271 22.274 21.7 22.2432 21.5806C22.1661 21.284 22.066 21.0028 21.9465 20.7369C21.4458 19.6313 20.606 18.7915 19.508 18.3062C19.5235 18.3447 19.5389 18.3832 19.5581 18.4256C19.5774 18.4679 19.5928 18.5103 19.6159 18.5527C19.6429 18.6105 19.6737 18.6683 19.7045 18.7261C19.7238 18.7646 19.743 18.8031 19.7662 18.8416C19.8047 18.9033 19.8432 18.9649 19.8817 19.0265C19.901 19.0574 19.9164 19.0882 19.9395 19.1151C20.0011 19.2037 20.0666 19.2923 20.136 19.3732C20.3787 19.5504 20.6137 19.7739 20.8255 20.0281Z" fill="#FB9950"/>
<path d="M12.2349 22.9863C12.2311 23.0441 12.2272 23.1019 12.2272 23.1635C12.2272 25.1166 12.466 26.592 12.624 27.5705C12.6972 28.0328 12.7588 28.3988 12.7704 28.6684C13.0015 29.5544 12.8667 30.9451 12.8782 31.2225C13.4214 29.9898 13.3213 29.227 13.2866 28.5028C13.2635 28.1368 13.2018 27.7053 13.1286 27.2084C12.9784 26.1567 12.7935 24.8469 12.8205 23.2637C12.8243 23.1134 12.832 22.9555 12.8513 22.7744C12.8359 22.7783 12.8243 22.7821 12.8089 22.786C12.6278 22.8361 12.4506 22.8823 12.2773 22.9169C12.2657 22.9208 12.2542 22.9247 12.2426 22.9247C12.2388 22.9439 12.2388 22.967 12.2349 22.9863Z" fill="#FB9950"/>
</svg>
