<svg width="54" height="39" viewBox="0 0 54 39" fill="none" xmlns="http://www.w3.org/2000/svg">
<path d="M53.9993 34.687C53.9993 37.0683 52.0698 39 49.6911 39H5.08314C2.70445 39 0.774902 37.0683 0.774902 34.687V4.75243C0.774902 2.37112 2.70445 0.439453 5.08314 0.439453H49.6911C52.0698 0.439453 53.9993 2.37112 53.9993 4.75243V34.687Z" fill="black"/>
<path fill-rule="evenodd" clip-rule="evenodd" d="M30.4034 12.6353C30.3859 12.693 30.4837 12.6679 30.4737 12.7207C30.431 12.7483 30.4586 12.796 30.4687 12.8237C30.4386 12.8513 30.4185 12.889 30.4034 12.9266C30.3507 12.9769 30.293 13.0196 30.2403 13.0548C30.0848 13.0221 29.9292 13.1427 29.8037 13.2406C29.7159 13.3034 29.603 13.3788 29.5177 13.4567C29.3772 13.5396 29.2116 13.5571 29.066 13.5923C28.9481 13.5119 28.9883 13.3713 28.8954 13.2858C28.8979 13.2758 28.8979 13.2733 28.8954 13.2858C28.8026 13.1753 28.7825 13.0246 28.7624 12.9266C28.6018 13.0146 28.4488 13.0573 28.2957 13.0573C28.2179 13.0573 28.1377 13.0447 28.0724 13.1075C27.9846 13.1301 27.9344 13.1025 27.8366 13.1301C27.8366 13.1829 27.7236 13.2884 27.8491 13.316C27.8817 13.3788 27.9971 13.3361 27.9846 13.429C28.1853 13.5797 28.3735 13.7857 28.4463 14.0168C28.4914 14.155 28.6069 14.263 28.5416 14.4112C28.5115 14.5895 28.3283 14.5996 28.1954 14.6523C28.0097 14.69 27.9018 14.69 27.7161 14.6448C27.4878 14.592 27.2971 14.5946 27.0938 14.68C27.0587 14.7377 27.0437 14.8131 27.011 14.8658C26.9006 14.9563 26.9709 15.1221 26.8329 15.1849C26.7852 15.1949 26.7676 15.1572 26.7501 15.1271C26.7375 15.0919 26.72 15.0191 26.72 14.9839C26.7049 14.9261 26.74 14.8809 26.7325 14.8257C26.6447 14.8332 26.5544 14.8658 26.4766 14.8809C26.4665 14.8885 26.449 14.9085 26.4389 14.8985C26.2106 14.9889 25.9497 15.0718 25.7339 15.2351C25.7213 15.3959 25.7615 15.4989 25.8217 15.627C25.8568 15.6672 25.902 15.6672 25.9296 15.7224C25.9446 15.7601 25.9396 15.8028 25.9321 15.8279C25.902 15.843 25.8894 15.853 25.8468 15.8581C25.7665 15.8606 25.7489 15.8656 25.6787 15.8505C25.636 15.843 25.6059 15.8304 25.5607 15.7978C25.5131 15.75 25.4729 15.5717 25.4729 15.5491C25.4152 15.4461 25.2245 15.3707 25.2295 15.2301C25.2546 15.1472 25.3399 15.1422 25.3976 15.0869C25.5607 15.0568 25.6862 14.9513 25.7916 14.8382C25.897 14.7227 25.9923 14.5594 26.1353 14.4991C26.2457 14.4514 26.4565 14.4464 26.464 14.2504C26.4691 14.0344 26.5895 13.8435 26.6196 13.6275C26.6271 13.5546 26.6271 13.4416 26.6196 13.3738C26.577 13.3537 26.4992 13.3009 26.5418 13.2507C26.5368 13.218 26.582 13.1929 26.5519 13.1703C26.577 13.1075 26.5569 13.0171 26.582 12.9618L26.597 12.9141C26.602 12.8513 26.6497 12.7659 26.6949 12.6981C26.8153 12.5448 26.9885 12.4996 27.124 12.4067C27.1541 12.3414 27.1541 12.2409 27.2394 12.2082C27.3724 12.158 27.5355 12.1228 27.6835 12.0726C27.8591 12.0123 28.0222 11.9771 28.2004 11.9043C28.1452 11.8415 28.1176 11.7812 28.0699 11.7184C28.0599 11.7084 28.0473 11.7008 28.0323 11.6933C27.9194 11.7234 27.8014 11.746 27.6785 11.7686C27.6785 11.7737 27.6835 11.7686 27.6785 11.7686C27.5731 11.7787 27.5079 11.7561 27.4 11.7737C27.2344 11.8013 27.0537 11.7913 26.8956 11.628C26.8605 11.5551 26.8354 11.4873 26.7852 11.4094C26.7651 11.3291 26.7952 11.2838 26.858 11.2386C26.8806 11.2487 26.8931 11.2637 26.9182 11.2487C26.9483 11.2612 26.9533 11.2864 26.9634 11.314C26.9834 11.3291 26.996 11.3919 27.0311 11.3592C27.0713 11.3441 27.0938 11.4094 27.1014 11.4346C27.1566 11.525 27.2795 11.4647 27.3297 11.5828C27.4025 11.5602 27.4777 11.5225 27.5355 11.4873C27.7236 11.3667 27.9244 11.3039 28.1201 11.2512C28.1954 11.2361 28.2531 11.3341 28.3133 11.3642C28.3785 11.3919 28.4312 11.4672 28.4764 11.5024C28.5266 11.5828 28.5793 11.6883 28.6721 11.7435C28.7273 11.7737 28.7449 11.9068 28.8201 11.8566C28.8201 11.8113 28.8201 11.7661 28.8327 11.7209C28.8929 11.6029 29.0033 11.4898 29.1263 11.4722C29.2342 11.427 29.3722 11.4773 29.4625 11.5099C29.5152 11.5727 29.6181 11.6204 29.6281 11.7184C29.6281 11.7611 29.6833 11.8591 29.608 11.8993C29.6181 11.957 29.6356 12.0198 29.5704 12.0625C29.5804 12.1329 29.6206 12.1856 29.5905 12.2434C29.4826 12.2158 29.5955 12.3489 29.4901 12.3489C29.5729 12.4217 29.4198 12.4042 29.4198 12.477C29.3471 12.5247 29.2843 12.4971 29.2116 12.4544C29.1915 12.472 29.2166 12.4871 29.2216 12.5046C29.2316 12.6001 29.2367 12.688 29.2015 12.7835C29.2241 12.8237 29.2693 12.8664 29.2969 12.9166C29.337 12.9744 29.3195 13.012 29.3471 13.0648C29.5152 12.9593 29.7134 12.9518 29.874 12.8588C29.9744 12.8287 29.9995 12.7106 30.0446 12.6428C30.0898 12.6277 30.1349 12.6227 30.1751 12.5951C30.2177 12.6051 30.2378 12.5499 30.2805 12.575C30.293 12.6554 30.3733 12.6051 30.4034 12.6353ZM27.3598 13.8259C27.2845 14.0218 27.2469 14.1901 27.0963 14.3559C27.3021 14.381 27.4652 14.2956 27.6659 14.1952C27.7111 14.1776 27.819 14.1952 27.8642 14.1952C27.7688 14.1273 27.7061 14.0319 27.6107 13.959C27.5279 13.9063 27.4376 13.8837 27.3598 13.8259ZM27.7262 17.0562C25.8744 17.0562 24.3614 15.5416 24.3614 13.6903C24.3614 11.8365 25.8719 10.3218 27.7262 10.3218C29.5779 10.3218 31.0859 11.839 31.0859 13.6903C31.0834 15.5441 29.5754 17.0562 27.7262 17.0562Z" fill="white"/>
<path fill-rule="evenodd" clip-rule="evenodd" d="M44.5648 17.7976H34.6034V20.9124H44.0454C45.4254 20.9124 46.4667 21.1811 46.9033 21.6157C47.4252 22.0402 47.6862 22.9973 47.6862 24.2105V26.3808C47.6862 27.7724 47.4227 28.7295 46.9861 29.1665C46.4667 29.6865 45.4254 29.9402 44.0454 29.9402H34.6837C33.2961 29.9402 32.2498 29.684 31.7279 29.1665C31.2963 28.7295 31.0378 27.7724 31.0378 26.3808V25.9563L34.1643 25.1701V27.2525H44.5622V23.6051H35.2909C33.813 23.6051 32.7717 23.3489 32.2498 22.9169C31.7279 22.4798 31.4769 21.6182 31.4769 20.307V18.7471C31.4769 17.3655 31.7279 16.3206 32.2498 15.8006C32.7717 15.2781 33.813 15.0244 35.2909 15.0244H43.8722C45.3401 15.0244 46.2961 15.2781 46.9008 15.8006C47.4227 16.3206 47.6836 17.1922 47.6836 18.4934V18.8425L44.5648 19.5308V17.7976Z" fill="white"/>
<path fill-rule="evenodd" clip-rule="evenodd" d="M26.258 29.9425V17.7974H29.1963V29.9425H26.258Z" fill="white"/>
<path fill-rule="evenodd" clip-rule="evenodd" d="M21.1342 17.7976H11.1602V20.9124H20.6098C21.9948 20.9124 23.0311 21.1811 23.4677 21.6157C23.9896 22.0402 24.243 22.9973 24.243 24.2105V26.3808C24.243 27.7724 23.9921 28.7295 23.553 29.1665C23.0311 29.6865 21.9948 29.9402 20.6098 29.9402H11.2405C9.86049 29.9402 8.81668 29.684 8.29979 29.1665C7.86571 28.7295 7.60977 27.7724 7.60977 26.3808V25.9563L10.7186 25.1701V27.2525H21.1317V23.6051H11.8578C10.3824 23.6051 9.33608 23.3489 8.81668 22.9169C8.29979 22.4798 8.03382 21.6182 8.03382 20.307V18.7471C8.03382 17.3655 8.29979 16.3206 8.81668 15.8006C9.33357 15.2781 10.3824 15.0244 11.8578 15.0244H20.4291C21.907 15.0244 22.8605 15.2781 23.4677 15.8006C23.9896 16.3206 24.243 17.1922 24.243 18.4934V18.8425L21.1342 19.5308V17.7976Z" fill="white"/>
<path fill-rule="evenodd" clip-rule="evenodd" d="M6.36548 31.9341H48.9134C49.0941 31.9341 49.2446 32.0823 49.2446 32.2631V32.2757C49.2446 32.4566 49.0941 32.6023 48.9134 32.6023H6.36548C6.18482 32.6023 6.03427 32.4566 6.03427 32.2757V32.2631C6.03427 32.0823 6.18482 31.9341 6.36548 31.9341Z" fill="white"/>
<path fill-rule="evenodd" clip-rule="evenodd" d="M12.7616 34.5261H11.482V35.7444H12.7616V35.3299L13.2409 35.4254V35.6565C13.2409 35.8348 13.2032 35.9554 13.133 36.0207C13.0627 36.086 12.9297 36.1162 12.7265 36.1162H11.5121C11.3164 36.1162 11.1834 36.0835 11.1131 36.0207C11.0378 35.9579 11.0052 35.8348 11.0052 35.6565V34.6266C11.0052 34.4533 11.0378 34.3302 11.1081 34.2649C11.1809 34.1996 11.3138 34.1694 11.5121 34.1694H12.7265C12.9297 34.1694 13.0678 34.1996 13.1355 34.2649C13.2058 34.3302 13.2384 34.4533 13.2384 34.6266V34.8175L12.7591 34.8853V34.5261H12.7616Z" fill="white"/>
<path fill-rule="evenodd" clip-rule="evenodd" d="M13.7554 36.1187V34.1694H14.2271V36.1187H13.7554Z" fill="white"/>
<path fill-rule="evenodd" clip-rule="evenodd" d="M14.8268 36.1187V34.1694H16.9169V34.5136H15.3061V34.9381H16.242V35.2722H15.3061V35.7545H16.942V36.1187H14.8268Z" fill="white"/>
<path fill-rule="evenodd" clip-rule="evenodd" d="M17.361 36.1187V34.1694H17.6847L19.3357 35.4631V34.1694H19.7748V36.1187H19.4386L17.7926 34.8024V36.1187H17.361Z" fill="white"/>
<path fill-rule="evenodd" clip-rule="evenodd" d="M22.0807 34.5261H20.801V35.7444H22.0807V35.3299L22.5599 35.4254V35.6565C22.5599 35.8348 22.5248 35.9554 22.4545 36.0207C22.3792 36.086 22.2463 36.1162 22.0455 36.1162H20.8311C20.6329 36.1162 20.4999 36.0835 20.4321 36.0207C20.3594 35.9579 20.3268 35.8348 20.3268 35.6565V34.6266C20.3268 34.4533 20.3569 34.3302 20.4296 34.2649C20.4999 34.1996 20.6329 34.1694 20.8336 34.1694H22.048C22.2538 34.1694 22.3868 34.1996 22.457 34.2649C22.5298 34.3302 22.5624 34.4533 22.5624 34.6266V34.8175L22.0832 34.8853V34.5261H22.0807Z" fill="white"/>
<path fill-rule="evenodd" clip-rule="evenodd" d="M23.0746 36.1187V34.1694H25.1647V34.5136H23.5513V34.9381H24.4898V35.2722H23.5513V35.7545H25.1873V36.1187H23.0746Z" fill="white"/>
<path fill-rule="evenodd" clip-rule="evenodd" d="M27.6563 36.1187V34.1694H28.1306V36.1187H27.6563Z" fill="white"/>
<path fill-rule="evenodd" clip-rule="evenodd" d="M28.7329 36.1187V34.1694H29.0541L30.7102 35.4631V34.1694H31.1392V36.1187H30.8105L29.1595 34.8024V36.1187H28.7329Z" fill="white"/>
<path fill-rule="evenodd" clip-rule="evenodd" d="M38.8069 34.506H37.7205V35.0235H38.8069C38.8872 35.0235 38.9424 35.0109 38.975 34.9858C39.0077 34.9607 39.0227 34.9205 39.0227 34.8652V34.6618C39.0227 34.604 39.0102 34.5613 38.975 34.5412C38.9424 34.5161 38.8847 34.506 38.8069 34.506ZM37.2538 36.1187V34.1694H39.0077C39.1682 34.1694 39.2837 34.1996 39.3564 34.2574C39.4317 34.3176 39.4668 34.4156 39.4668 34.5487V34.9783C39.4668 35.1114 39.4317 35.2094 39.3564 35.2697C39.2862 35.3274 39.1708 35.3601 39.0077 35.3601H37.7205V36.1187H37.2538Z" fill="white"/>
<path fill-rule="evenodd" clip-rule="evenodd" d="M39.8304 34.6266C39.8304 34.4533 39.863 34.3302 39.9333 34.2649C40.0035 34.1996 40.139 34.1694 40.3348 34.1694H41.8428C42.0435 34.1694 42.1765 34.1996 42.2442 34.2649C42.3145 34.3302 42.3496 34.4533 42.3496 34.6266V35.6565C42.3496 35.8374 42.317 35.9579 42.2442 36.0207C42.1715 36.086 42.041 36.1162 41.8428 36.1162H40.3348C40.1365 36.1162 40.0035 36.0835 39.9333 36.0207C39.863 35.9579 39.8304 35.8348 39.8304 35.6565V34.6266ZM40.3072 35.7444H41.8779V34.5261H40.3072V35.7444Z" fill="white"/>
<path fill-rule="evenodd" clip-rule="evenodd" d="M42.9041 36.1187V34.1694H44.6605C44.8211 34.1694 44.939 34.1996 45.0093 34.2574C45.0821 34.3176 45.1197 34.4156 45.1197 34.5487V35.0059C45.1197 35.1365 45.0846 35.2345 45.0093 35.2923C44.939 35.35 44.8236 35.3802 44.6605 35.3802H44.3921L45.3204 36.1187H44.6405L43.8225 35.3802H43.3733V36.1187H42.9041ZM44.4598 34.506H43.3733V35.0436H44.4598C44.5426 35.0436 44.5953 35.0335 44.6279 35.0059C44.6605 34.9833 44.6781 34.9406 44.6781 34.8853V34.6618C44.6781 34.604 44.6605 34.5613 44.6279 34.5412C44.5953 34.5161 44.5426 34.506 44.4598 34.506Z" fill="white"/>
<path fill-rule="evenodd" clip-rule="evenodd" d="M46.6304 34.5161V36.1187H46.1537V34.5161H45.2153V34.1694H47.5714V34.5161H46.6304Z" fill="white"/>
<path d="M10.0394 34.5341H8.70449V34.9386H9.9666C10.1648 34.9386 10.2928 34.9712 10.3656 35.034C10.4358 35.0968 10.4709 35.2174 10.4709 35.4008V35.667C10.4709 35.8479 10.4358 35.9685 10.3656 36.0312C10.2953 36.0966 10.1648 36.1242 9.9666 36.1242H8.70449C8.51128 36.1242 8.37579 36.0966 8.30553 36.0312C8.23026 35.9685 8.19513 35.8504 8.19513 35.667V35.6118L8.61667 35.5364V35.765H10.0394V35.3179H8.78227C8.58907 35.3179 8.4611 35.2877 8.38834 35.2249C8.31306 35.1596 8.27793 35.039 8.27793 34.8582V34.6472C8.27793 34.4638 8.31306 34.3432 8.38834 34.2804C8.4611 34.2176 8.58907 34.1875 8.78227 34.1875H9.93398C10.1197 34.1875 10.2476 34.2151 10.3279 34.2729C10.4032 34.3332 10.4459 34.4462 10.4459 34.612V34.6547L10.0369 34.7451V34.5341H10.0394Z" fill="white"/>
<path d="M36.2227 34.5341H34.8903V34.9386H36.1499C36.3456 34.9386 36.4786 34.9712 36.5489 35.034C36.6216 35.0968 36.6543 35.2174 36.6543 35.4008V35.667C36.6543 35.8479 36.6216 35.9684 36.5489 36.0287C36.4786 36.094 36.3456 36.1217 36.1499 36.1217H34.8903C34.6946 36.1217 34.5616 36.094 34.4888 36.0287C34.4186 35.9659 34.381 35.8479 34.381 35.667V35.6118L34.8025 35.5364V35.765H36.2277V35.3179H34.9706C34.7799 35.3179 34.6469 35.2877 34.5767 35.2249C34.5039 35.1596 34.4663 35.039 34.4663 34.8582V34.6472C34.4663 34.4638 34.5039 34.3432 34.5767 34.2804C34.6469 34.2176 34.7799 34.1875 34.9706 34.1875H36.1223C36.308 34.1875 36.4435 34.2151 36.5137 34.2729C36.5915 34.3332 36.6317 34.4462 36.6317 34.612V34.6547L36.2202 34.7451V34.5341H36.2227Z" fill="white"/>
</svg>
