<svg width="92" height="31" viewBox="0 0 92 31" fill="none" xmlns="http://www.w3.org/2000/svg">
<path d="M17.0974 30.6495C30.7309 23.5576 33.2189 15.2845 35.804 4.51927L28.7728 8.63764C28.5382 16.0046 24.5129 22.5746 17.0893 26.7455C6.59514 19.4028 3.3142 10.9112 6.44546 8.33422C7.95849 7.08819 10.7782 7.10842 14.2453 11.5504L16.1669 9.82703C10.758 1.4487 5.21157 2.58954 3.05933 4.36554C-1.77105 8.36254 0.102037 19.3624 17.0974 30.6495Z" fill="#F9AE00"/>
<path d="M46.0675 8.3219C46.0675 7.31456 45.226 6.71582 43.8141 6.71582C41.3908 6.71582 39.6957 8.45945 39.6957 10.9515C39.6957 13.2372 41.403 14.9606 43.6685 14.9606C44.8093 14.9606 46.0392 14.4792 46.0392 13.4233V12.9136C45.5699 13.3627 44.7001 13.6701 43.8829 13.6701C42.2121 13.6701 41.2128 12.5657 41.2128 10.7128C41.2128 9.11888 42.2849 8.00635 43.8222 8.00635C44.5666 8.00635 45.5335 8.22886 46.0634 8.84378V8.3219H46.0675Z" fill="black"/>
<path d="M72.9341 26.6847C73.8645 26.6847 74.791 26.5026 75.3654 26.3327C75.2805 25.4063 75.3654 23.78 75.3654 21.3607C75.3654 20.6244 74.9649 20.2765 74.1032 20.2765H73.8929C73.8929 22.3842 73.7917 23.9863 73.8929 25.0341L73.8443 25.0462C73.6623 25.0907 73.2941 25.1676 72.8491 25.1676C71.8094 25.1676 71.3037 24.9127 71.3037 23.7961V21.3567C71.3037 20.6204 70.9032 20.2725 70.0415 20.2725H69.8311V23.7314C69.8352 25.7501 70.8182 26.6847 72.9341 26.6847Z" fill="black"/>
<path d="M59.9803 14.8878H60.308V9.6488C60.308 8.91251 59.9075 8.56459 59.0458 8.56459H58.8354V11.0364H56.2301V9.64475C56.2301 8.90846 55.8296 8.56055 54.9679 8.56055H54.7575V13.7995C54.7575 14.5075 55.154 14.8837 55.8984 14.8837H56.226V12.1489H58.8314V13.8036C58.8395 14.5156 59.2359 14.8878 59.9803 14.8878Z" fill="black"/>
<path d="M64.4385 16.9675C66.3439 16.9675 67.5738 15.8591 67.5738 14.1397V11.1662C67.5738 9.39832 66.6554 8.42334 64.9846 8.42334C63.415 8.42334 61.728 9.39023 61.728 11.5141C61.728 13.1405 62.7798 14.1478 64.4708 14.1478C65.729 14.1478 66.1012 13.2659 66.1012 13.2659V14.1073C66.1012 15.0985 65.4701 15.6649 64.3738 15.6649C63.3907 15.6649 62.7353 15.4666 62.2539 15.0257V15.5759C62.2579 16.3971 63.156 16.9675 64.4385 16.9675ZM64.5922 12.9624C63.7993 12.9624 63.2491 12.3354 63.2491 11.4373C63.2491 10.438 63.8842 9.70982 64.7621 9.70982C65.5591 9.70982 66.0324 10.2924 66.0324 11.2674C66.0324 12.299 65.4701 12.9624 64.5922 12.9624Z" fill="black"/>
<path d="M70.1265 16.9186H70.5634V14.018L70.6848 14.2243C71.0246 14.8028 71.6112 15.0294 72.2545 15.0294C74.0062 15.0294 75.0944 13.6903 75.0944 11.534C75.0944 9.61238 73.6097 8.41895 72.2302 8.41895C70.79 8.41895 69.0706 9.03791 69.0706 11.975V15.8708C69.0706 16.5545 69.6127 16.9186 70.1265 16.9186ZM71.9794 9.71352C73.0676 9.71352 73.5733 10.4255 73.5733 11.9548C73.5733 13.0066 73.0069 13.7429 72.1938 13.7429C71.1743 13.7429 70.5391 12.9459 70.5391 11.6594C70.5391 10.4579 71.0934 9.71352 71.9794 9.71352Z" fill="black"/>
<path d="M79.3059 8.42334C77.4085 8.42334 76.1827 9.76646 76.1827 11.8459C76.1827 13.4277 77.2062 15.0297 79.1643 15.0297C81.0616 15.0297 82.2915 13.6906 82.2915 11.6193C82.2874 10.0335 81.2599 8.42334 79.3059 8.42334ZM79.3059 13.7271C78.2621 13.7271 77.7119 12.9989 77.7119 11.6193C77.7119 10.4502 78.2662 9.72601 79.1643 9.72601C80.208 9.72601 80.7582 10.4583 80.7582 11.8459C80.7542 13.0272 80.2121 13.7271 79.3059 13.7271Z" fill="black"/>
<path d="M89.6543 8.56445H89.2214C88.3071 10.1341 87.4171 12.9943 87.4171 12.9943C87.4171 12.9943 86.9114 11.453 86.8629 11.3073C86.4866 10.1503 85.9729 8.56445 84.6459 8.56445H84.1119C83.8125 10.0209 83.4687 12.2944 83.4687 14.0098C83.4687 14.5883 83.9218 14.8876 84.3708 14.8876H84.9129C84.917 13.7306 85.0383 11.8333 85.188 10.5225L85.2163 10.2838C85.2163 10.2838 85.3053 10.4214 85.3701 10.6075C85.6168 11.3235 86.167 13.0388 86.2115 13.1723C86.693 14.5964 87.0732 14.8836 87.5223 14.8836H87.85C88.2262 14.0866 88.9908 11.4004 89.541 10.2838C89.541 10.2838 89.7028 11.4813 89.7838 14.0057C89.804 14.5721 90.1034 14.8836 90.6859 14.8836H91.313C91.2927 13.5607 91.1592 11.8778 90.9206 9.87926C90.8154 8.98519 90.4108 8.56445 89.6543 8.56445Z" fill="black"/>
<path d="M41.925 20.2808H41.6499C40.9096 21.3043 40.1976 22.8942 39.8132 23.9541C39.4168 25.0383 39.2671 25.7261 39.2671 25.9041C39.2671 26.4057 39.4613 26.604 39.9548 26.604H40.5819C40.8125 25.095 41.3505 23.3797 41.9897 22.1094L42.0464 21.9961L42.1071 22.1094C42.8312 23.5212 43.1387 24.8118 43.345 25.8919C43.3936 26.1873 43.7051 26.604 44.235 26.604H45.0239C44.858 24.8644 43.7941 22.2186 42.9243 20.8957C42.6047 20.4224 42.37 20.2808 41.925 20.2808Z" fill="black"/>
<path d="M47.2691 26.5999H47.5968V23.853H48.5475L48.5515 23.9137C48.681 25.3256 49.6478 26.7455 51.5209 26.7455C53.4183 26.7455 54.6441 25.4065 54.6441 23.3351C54.6441 21.7452 53.6206 20.1392 51.6625 20.1392C50.0484 20.1392 48.9116 21.102 48.6203 22.7162L48.6122 22.7688H47.5968V21.365C47.5968 20.6287 47.1962 20.2808 46.3345 20.2808H46.1242V25.5197C46.1242 26.2277 46.5206 26.5999 47.2691 26.5999ZM51.5209 21.4378C52.5647 21.4378 53.1149 22.17 53.1149 23.5576C53.1149 24.7349 52.5728 25.4388 51.6625 25.4388C50.6188 25.4388 50.0686 24.7106 50.0686 23.3311C50.0686 22.166 50.6269 21.4378 51.5209 21.4378Z" fill="black"/>
<path d="M56.6588 18.9091C55.7364 19.7992 55.7405 21.5752 55.7445 22.8738V23.1286C55.7445 24.8723 56.5536 26.7332 58.8232 26.7332C60.6396 26.7332 61.7683 25.4751 61.7683 23.4523C61.7683 21.6318 60.6356 20.3615 59.0133 20.3615C58.3013 20.3615 57.2656 20.6568 56.8975 21.4942L56.8813 21.5347H56.8045L56.8085 21.4659C56.8328 20.9926 56.9056 20.4464 57.476 19.9286C58.0303 19.4108 58.9243 19.4108 59.6404 19.4108H60.1744C60.7084 19.4108 61.0523 19.1357 61.0523 18.7109V18.1162H59.7982C58.8232 18.1162 57.4841 18.1162 56.6588 18.9091ZM58.6573 21.6075C59.3855 21.6075 60.2513 21.9635 60.2513 23.6586C60.2513 24.7752 59.7173 25.467 58.8596 25.467C57.8078 25.467 57.2292 24.7388 57.2292 23.4159C57.2292 22.3317 57.7997 21.6075 58.6573 21.6075Z" fill="black"/>
<path d="M65.7533 26.7453C67.7558 26.7453 68.4719 25.6814 68.4719 24.6821C68.4719 24.229 68.1442 23.6141 67.5172 23.3188L67.3958 23.2621L67.5131 23.2014C68.0512 22.9263 68.3505 22.4692 68.3505 21.919C68.3505 20.3048 66.4815 20.1309 65.6805 20.1309C64.6165 20.1309 63.7265 20.3938 63.152 20.6244V24.5971C63.152 25.4022 63.4918 26.7453 65.7533 26.7453ZM64.6003 21.4093L64.6448 21.3971C65.0413 21.2758 65.3002 21.2393 65.7169 21.2393C66.2873 21.2393 66.8699 21.3324 66.8699 22.008C66.8699 22.5825 66.526 22.8252 65.7169 22.8252H64.6003V21.4093ZM64.6003 23.8164H65.7776C66.6231 23.8164 66.967 24.0672 66.967 24.6821C66.967 25.2606 66.4734 25.6328 65.7088 25.6328C65.28 25.6328 64.6044 25.3698 64.6044 24.6578V23.8164H64.6003Z" fill="black"/>
<path d="M50.6472 14.9727C51.5777 14.9727 52.5041 14.7907 53.0786 14.6208C52.9936 13.6943 53.0786 12.068 53.0786 9.6488C53.0786 8.91251 52.6781 8.56459 51.8164 8.56459H51.606C51.606 10.6723 51.5048 12.2744 51.606 13.3222L51.5574 13.3343C51.3754 13.3788 51.0072 13.4557 50.5622 13.4557C49.5225 13.4557 49.0168 13.2008 49.0168 12.0842V9.64475C49.0168 8.90846 48.6163 8.56055 47.7546 8.56055H47.5443V12.0195C47.5483 14.0382 48.5314 14.9727 50.6472 14.9727Z" fill="black"/>
<path d="M35.8041 4.51515L28.7729 8.63756C14.832 0.162135 13.4079 24.8764 4.08295 18.6705C3.23338 17.4407 2.55777 16.2513 2.04803 15.1145C12.6271 25.2365 11.9839 -11.7641 35.8041 4.51515Z" fill="url(#paint0_linear)"/>
<defs>
<linearGradient id="paint0_linear" x1="8.06741" y1="4.6832" x2="28.798" y2="16.652" gradientUnits="userSpaceOnUse">
<stop offset="0.2282" stop-color="#E6302D"/>
<stop offset="0.4533" stop-color="#E95F32"/>
<stop offset="1" stop-color="#F9AE00"/>
</linearGradient>
</defs>
</svg>
