<svg width="285" height="80" viewBox="0 0 285 80" fill="none" xmlns="http://www.w3.org/2000/svg">
<g clip-path="url(#clip0)">
<path d="M73.0332 36.8018H88.6504V51.1342L97.2991 36.8018H114.448L101.154 55.6744L114.844 76.584H96.8543L88.6504 61.4663V76.584H73.0332V36.8018Z" fill="#0067B2"/>
<path d="M69.0793 75.3318C66.6329 76.6325 63.2723 77.7614 58.5773 77.7614C45.8512 77.7614 36.8071 69.4172 36.8071 56.68C36.8071 42.2495 48.4212 35.5986 58.3549 35.5986C61.5425 35.5986 65.941 36.384 69.0793 38.6173V52.5325C66.6824 49.5138 63.1734 48.3358 60.4306 48.3358C54.6235 48.3358 51.8312 52.2625 51.8312 57.0972C51.8312 62.1528 55.4637 65.0488 60.3811 65.0488C63.8406 65.0488 66.8553 63.4535 69.0793 61.4166V75.3318Z" fill="#0067B2"/>
<path d="M15.8276 67.0372V61.0736H17.7303C19.2377 61.0736 21.6346 61.3681 21.6346 64.0431C21.6346 66.8164 19.1636 67.0618 17.7303 67.0618H15.8276V67.0372ZM0.210449 36.8018V76.584H23.3149C34.1382 76.584 36.4857 69.5405 36.4857 65.4911C36.4857 60.0919 32.8533 56.1652 27.837 55.3308V55.2081C31.0741 54.251 34.6572 51.4041 34.6572 46.913C34.6572 43.8452 33.4958 36.8018 22.2524 36.8018H0.210449ZM15.8276 51.9195V46.3485H17.2855C20.0037 46.3485 20.745 47.7719 20.745 49.1463C20.745 50.4961 20.0037 51.9195 17.2855 51.9195H15.8276Z" fill="#0067B2"/>
<path d="M206.174 41.8564L201.726 42.0528L201.306 40.9484L197.031 40.6539L196.982 39.8685L192.386 39.7949L193.152 41.4392L195.203 41.6846L194.956 41.1447L196.809 42.3718L199.898 43.0835L201.949 43.1571L207.138 42.47L206.174 41.8564Z" fill="#62BAEA"/>
<path d="M194.808 38.0044L192.707 37.7099C192.707 37.7099 192.757 36.9736 191.941 36.581C191.126 36.1638 191.299 36.5564 191.299 36.5564L190.508 35.9674L189.025 35.722L188.902 34.6176L186.999 34.5195L187.048 33.9795L185.541 33.8323L184.899 33.2678L185.096 32.6543L184.726 32.0898L182.922 31.2554L181.414 30.6664L180.426 29.5375L179.24 28.5313L177.708 27.0588L173.927 25.7335L170.344 23.1075L168.936 22.4449L167.404 21.6841L164.142 19.9416L159.323 17.2666L148.673 12.1374L145.633 10.7876C143.904 10.0513 143.632 9.65863 143.582 9.43775C142.026 9.06963 141.507 8.79967 140.691 7.98979C139.876 8.01433 138.022 6.95903 137.528 6.49274C137.528 6.4682 134.39 5.56015 134.192 5.38836C134.192 5.19203 126.062 2.34518 125.074 2.09976C124.357 2.05068 122.405 1.68255 122.134 1.55984C121.812 1.55984 120.552 1.16717 120.058 1.11809C118.353 0.921755 116.747 0.651796 115.017 0.651796C113.781 0.651796 113.065 0.651796 111.977 0.381836C111.582 0.627254 109.037 0.16096 108.147 0.84813C107.134 0.897213 104.787 1.41259 104.144 1.70709C102.76 1.75618 100.388 3.27777 99.5974 3.67043C99.202 3.86677 98.7819 4.0631 98.3618 4.25944C100.907 5.14294 103.798 6.19824 103.798 6.32095C103.996 6.49274 107.134 7.40079 107.134 7.42533C107.628 7.91616 109.482 8.97146 110.297 8.94692C111.113 9.7568 111.631 10.0268 113.188 10.3949C113.238 10.6158 113.509 11.0084 115.215 11.7447L118.254 13.0699L128.904 18.1992L133.723 20.8742L136.985 22.6167L138.517 23.3775L139.975 23.991L141.161 24.8745L143.508 25.7826L148.796 27.5005L155.172 29.9792L157.544 30.7891L159.941 31.5254L161.078 31.329L162.313 31.7462L163.697 32.9733L165.105 32.507L166.069 32.6788L166.835 33.6605L167.329 34.2495L168.54 34.6176L169.677 34.7158L171.085 34.4704L172.741 34.6176L173.334 35.5993L175.657 35.9674L177.312 36.0901L178.993 36.2128L180.278 36.8018L181.439 38.0535L183.119 38.3971L187.444 39.0106L191.348 38.5443L193.893 38.667L194.808 38.0044Z" fill="#62BAEA"/>
<path d="M159.743 44.3125L164.339 44.3616L164.388 45.1715L168.663 45.466L169.083 46.5703L173.531 46.374L174.495 46.963L169.306 47.6502L167.255 47.5766L164.166 46.8894L162.313 45.6623L162.56 46.2022L160.509 45.9568L159.743 44.3125Z" fill="#0067B2"/>
<path d="M160.212 42.4219C160.212 42.4219 160.261 41.6857 159.446 41.293C158.631 40.8758 158.804 41.2685 158.804 41.2685L157.988 40.6795L156.505 40.434L156.382 39.3297L154.479 39.2315L154.529 38.6916L153.021 38.5198L152.379 37.9553L152.576 37.3172L152.206 36.7528L150.427 35.8938L148.919 35.3048L147.931 34.1759L146.745 33.1451L145.237 31.6726L141.457 30.3474L137.874 27.7214L136.416 27.1079L134.859 26.3471L131.597 24.6046L126.828 21.9541L116.202 16.8249L113.163 15.4751C111.433 14.7388 111.161 14.3461 111.112 14.1253C109.555 13.7571 109.036 13.4872 108.221 12.6773C107.405 12.7264 105.552 11.6711 105.058 11.1802C105.058 11.1557 101.92 10.2477 101.722 10.0513C101.722 9.87953 93.592 7.00814 92.6036 6.76272C91.887 6.73818 89.9348 6.37005 89.663 6.24734C89.3171 6.24734 88.0815 5.85467 87.5873 5.80559C85.907 5.60926 84.2761 5.36384 82.5463 5.3393C81.2861 5.31475 80.5942 5.3393 79.5069 5.06934C79.1115 5.31475 76.5663 4.84846 75.6521 5.51109C74.6389 5.56017 72.3161 6.07555 71.6736 6.37005C70.2898 6.41913 67.9176 7.94072 67.1021 8.33339C66.4103 8.67698 65.5948 9.02056 64.9523 9.41323C64.6558 9.65865 60.2079 11.8429 59.9113 12.1128C59.9855 12.2601 55.5623 14.886 55.1422 15.2542C54.9445 15.4505 53.7831 15.9168 53.4866 16.2113C53.19 16.5058 52.0039 17.5611 51.6085 17.7574C51.4356 18.1256 50.2989 18.5182 50.1259 18.8864C49.8541 19.2545 48.5197 19.8926 48.2973 20.1625C48.2479 20.1871 47.5066 20.8006 46.9135 21.2915C46.6664 21.6105 46.4193 21.9541 46.1722 22.2731C45.8757 22.3713 44.6896 23.0585 44.393 23.2793C44.4177 23.9911 44.4672 25.0954 43.3552 24.8746L42.0455 25.6354C42.1938 25.6354 41.3536 26.8624 40.6617 27.7459C40.2416 28.2368 38.3389 28.9485 37.9682 29.4639C37.2022 30.5192 36.2138 31.5008 35.4478 32.5316V32.6052H35.5466C35.5466 32.7525 36.2879 32.7279 36.3868 32.9979C36.535 33.4151 36.0902 33.7832 35.9667 34.1268H36.0655V34.2004C36.6586 34.1759 37.2269 33.5623 37.6964 33.3169C38.0918 33.1697 38.4872 32.9979 38.8825 32.8506C39.5991 32.4334 40.291 32.0162 41.0077 31.599C46.271 28.7522 51.5344 25.9053 56.7978 23.083C59.3183 21.7332 61.3199 20.4816 64.1122 18.96C64.7793 18.5919 67.3245 16.8985 69.2273 16.7758C71.6489 16.6285 74.5401 17.2421 75.3308 17.5611C76.0721 17.8311 77.9007 18.7391 78.8397 18.96C79.1115 19.0582 79.6552 19.4508 79.7787 19.4263C79.8776 19.549 81.6073 19.8189 82.5216 20.138C82.8429 20.3343 83.1394 20.5061 83.4606 20.7025C84.968 21.1442 88.724 22.0277 90.0831 22.4449C91.2445 22.7885 91.9364 23.4511 92.5047 23.5738C93.2955 24.1138 93.4685 23.8438 94.4322 24.3101C95.8901 24.4573 96.7797 24.9727 96.8291 25.0218C97.2739 25.2181 97.5951 25.3899 98.0399 25.5863C98.4106 25.6353 99.1272 26.1998 99.4237 26.3225C99.7697 26.3961 102.142 27.1079 102.364 27.2306C102.76 27.1815 104.44 27.9177 104.638 28.0895C105.107 28.3104 105.651 28.4331 106.194 28.5313L111.038 30.421L116.326 32.1389L122.701 34.6176L125.098 35.4275L127.495 36.1638L128.607 35.9674L129.867 36.3847L131.251 37.6117L132.61 37.17L133.574 37.3418L134.34 38.3235L134.834 38.9125L136.045 39.256L137.231 39.4033L138.64 39.1579L140.295 39.3051L140.888 40.2868L143.211 40.6795L144.867 40.8022L146.547 40.9249L147.832 41.5139L148.993 42.7655L150.674 43.1091L154.998 43.7472L158.902 43.2809L161.448 43.4036L162.362 42.7164L160.212 42.4219Z" fill="#0067B2"/>
<path d="M127.866 76.1184C127.125 76.5111 126.112 76.8547 124.777 76.8547C122.578 76.8547 121.268 76.0939 120.206 75.1368C118.772 73.7624 118.204 72.2163 118.204 70.3756C118.204 68.1423 119.143 66.498 120.206 65.5164C121.466 64.3384 123.023 63.8721 124.802 63.8721C125.667 63.8721 126.729 64.0193 127.891 64.6329V67.4552C126.754 66.1545 125.321 66.0563 124.851 66.0563C122.355 66.0563 120.7 68.1178 120.7 70.4002C120.7 73.1489 122.825 74.6459 124.95 74.6459C126.112 74.6459 127.149 74.1551 127.866 73.2961V76.1184Z" fill="#0067B2"/>
<path d="M135.007 76.5607H132.561V66.2286H129.744V64.1426H137.824V66.2286H135.007V76.5607Z" fill="#0067B2"/>
<path d="M140.295 64.1426V76.5607H142.742V71.9714H144.323C145.756 71.9714 146.794 71.5542 147.486 70.867C148.45 69.9344 148.524 68.5846 148.524 68.0938C148.524 67.2103 148.252 65.9832 147.239 65.0997C146.325 64.2898 145.336 64.1426 143.928 64.1426H140.295ZM142.742 66.2286H143.582C144.175 66.2286 144.793 66.2532 145.312 66.6213C145.682 66.8913 146.004 67.3576 146.004 68.0202C146.004 68.5601 145.781 69.1246 145.336 69.4681C144.817 69.8608 144.2 69.8608 143.73 69.8608H142.742V66.2286Z" fill="#0067B2"/>
<path d="M158.952 76.5591H161.571L156.308 63.8955H154.455L149.043 76.5591H151.687L152.799 73.9576H157.84L158.952 76.5591ZM153.565 71.9698L155.369 67.5032L157.123 71.9698H153.565Z" fill="#0067B2"/>
<path d="M167.155 70.0081L163.424 64.1426H166.34L168.539 67.9956L170.837 64.1426H173.778L169.923 70.0081L174.198 76.5607H171.282L168.539 72.0205L165.648 76.5607H162.708L167.155 70.0081Z" fill="#0067B2"/>
<path d="M183.02 63.8721C179.091 63.8721 176.348 66.5962 176.348 70.3756C176.348 74.1551 179.091 76.8547 183.02 76.8547C186.949 76.8547 189.691 74.1551 189.691 70.3756C189.691 66.5717 186.949 63.8721 183.02 63.8721ZM183.02 74.6459C180.573 74.6459 178.843 72.8789 178.843 70.3511C178.843 67.8478 180.573 66.0563 183.02 66.0563C185.466 66.0563 187.196 67.8478 187.196 70.3511C187.196 72.8789 185.466 74.6459 183.02 74.6459Z" fill="#0067B2"/>
<path d="M195.326 71.1615H196.216C196.734 71.1615 197.352 71.1615 197.871 71.4069C198.662 71.7505 198.785 72.4377 198.785 72.8304C198.785 73.3212 198.612 73.9102 198.019 74.2538C197.476 74.5728 196.809 74.5974 196.339 74.5974H195.301V71.1615H195.326ZM192.904 64.1426V76.5607H197.105C198.192 76.5607 199.329 76.3889 200.293 75.5545C201.158 74.7937 201.355 73.763 201.355 73.0512C201.355 72.4132 201.207 71.4315 200.441 70.7198C200.12 70.4253 199.626 70.0817 198.81 69.9344C199.156 69.7381 200.219 69.1 200.219 67.5048C200.219 66.474 199.799 65.4924 199.057 64.9279C198.044 64.1426 196.685 64.1426 195.993 64.1426H192.904ZM195.326 66.1305H196.043C197.031 66.1305 197.921 66.5477 197.921 67.7011C197.921 69.2964 196.413 69.3209 196.018 69.3209H195.326V66.1305Z" fill="#0067B2"/>
<path d="M210.622 63.8721C206.693 63.8721 203.95 66.5962 203.95 70.3756C203.95 74.1551 206.693 76.8547 210.622 76.8547C214.576 76.8547 217.294 74.1551 217.294 70.3756C217.294 66.5717 214.551 63.8721 210.622 63.8721ZM210.622 74.6459C208.176 74.6459 206.446 72.8789 206.446 70.3511C206.446 67.8478 208.176 66.0563 210.622 66.0563C213.068 66.0563 214.798 67.8478 214.798 70.3511C214.774 72.8789 213.044 74.6459 210.622 74.6459Z" fill="#0067B2"/>
<path d="M224.312 60.1904C224.707 61.2212 225.745 61.2703 225.992 61.2703C226.239 61.2703 227.277 61.2212 227.672 60.1904L229.353 60.8531C228.859 62.1047 227.697 62.9391 225.967 62.9391C224.238 62.9391 223.076 62.1292 222.582 60.8531L224.312 60.1904ZM222.928 64.1417V72.4859L229.822 63.8717H231.527V76.5598H229.081V68.1911L222.187 76.8052H220.506V64.1662H222.928V64.1417Z" fill="#0067B2"/>
<path d="M241.831 64.1426V69.5418C241.831 71.2597 241.634 72.1923 241.387 72.8058C241.016 73.7384 240.299 74.5237 239.41 74.4747V79.3585H241.658V76.5607H249.343V79.3585H251.592V74.4747H250.282V64.1426H241.831ZM244.179 66.2286H247.811V74.4747H242.77C243.116 74.1311 243.487 73.6893 243.759 73.0022C243.981 72.4132 244.179 71.456 244.179 69.5418V66.2286Z" fill="#0067B2"/>
<path d="M260.216 63.8721C256.287 63.8721 253.544 66.5962 253.544 70.3756C253.544 74.1551 256.287 76.8547 260.216 76.8547C264.17 76.8547 266.888 74.1551 266.888 70.3756C266.888 66.5717 264.145 63.8721 260.216 63.8721ZM260.216 74.6459C257.77 74.6459 256.04 72.8789 256.04 70.3511C256.04 67.8478 257.77 66.0563 260.216 66.0563C262.663 66.0563 264.392 67.8478 264.392 70.3511C264.392 72.8789 262.663 74.6459 260.216 74.6459Z" fill="#0067B2"/>
<path d="M269.458 76.5589L271.781 63.9199H273.461L276.871 72.0432L280.405 63.9199H282.11L284.21 76.5589H281.714L280.603 68.9019L277.168 76.7307H276.476L273.189 68.9019L271.929 76.5589H269.458Z" fill="#0067B2"/>
</g>
<defs>
<clipPath id="clip0">
<rect width="284" height="79" fill="white" transform="translate(0.210449 0.357422)"/>
</clipPath>
</defs>
</svg>
